<svg width="56" height="56" viewBox="0 0 56 56" fill="none" xmlns="http://www.w3.org/2000/svg">
<g opacity="0.5" filter="url(#filter0_i_236_5999)">
<mask id="mask0_236_5999" style="mask-type:alpha" maskUnits="userSpaceOnUse" x="0" y="0" width="56" height="56">
<circle cx="28" cy="28" r="28" transform="matrix(1 0 0 -1 0 56)" fill="#D9D9D9"/>
</mask>
<g mask="url(#mask0_236_5999)">
<circle cx="28" cy="28" r="28" transform="matrix(1 0 0 -1 0 56)" fill="#1E6082"/>
<g filter="url(#filter1_f_236_5999)">
<path d="M104.169 29.1349C104.169 7.95912 60.3781 -20.8813 42.2124 -20.8813C24.0466 -20.8813 46.1627 7.95912 46.1627 29.1349C46.1627 50.3107 22.0714 77.1187 40.2371 77.1187C58.4029 77.1187 104.169 50.3107 104.169 29.1349Z" fill="#4F98A4"/>
</g>
<g filter="url(#filter2_f_236_5999)">
<path fill-rule="evenodd" clip-rule="evenodd" d="M50.0758 51.8633C45.9585 54.4827 41.0715 56 35.8301 56C21.1524 56 9.25379 44.1014 9.25379 29.4237C9.25379 14.7461 21.1524 2.84747 35.8301 2.84747C44.5233 2.84747 52.2417 7.02143 57.0905 13.4746C51.7563 2.81239 40.7329 -4.5084 27.9997 -4.5084C10.0457 -4.5084 -4.50879 10.0461 -4.50879 28.0001C-4.50879 45.954 10.0457 60.5085 27.9997 60.5085C36.5221 60.5085 44.2785 57.2291 50.0758 51.8633Z" fill="#12425B"/>
</g>
</g>
</g>
<defs>
<filter id="filter0_i_236_5999" x="0" y="0" width="56" height="60.4575" filterUnits="userSpaceOnUse" color-interpolation-filters="sRGB">
<feFlood flood-opacity="0" result="BackgroundImageFix"/>
<feBlend mode="normal" in="SourceGraphic" in2="BackgroundImageFix" result="shape"/>
<feColorMatrix in="SourceAlpha" type="matrix" values="0 0 0 0 0 0 0 0 0 0 0 0 0 0 0 0 0 0 127 0" result="hardAlpha"/>
<feOffset dy="4.45746"/>
<feGaussianBlur stdDeviation="10"/>
<feComposite in2="hardAlpha" operator="arithmetic" k2="-1" k3="1"/>
<feColorMatrix type="matrix" values="0 0 0 0 0.490196 0 0 0 0 0.8 0 0 0 0 0.772549 0 0 0 1 0"/>
<feBlend mode="normal" in2="shape" result="effect1_innerShadow_236_5999"/>
</filter>
<filter id="filter1_f_236_5999" x="-100.266" y="-154.605" width="338.16" height="365.448" filterUnits="userSpaceOnUse" color-interpolation-filters="sRGB">
<feFlood flood-opacity="0" result="BackgroundImageFix"/>
<feBlend mode="normal" in="SourceGraphic" in2="BackgroundImageFix" result="shape"/>
<feGaussianBlur stdDeviation="66.8619" result="effect1_foregroundBlur_236_5999"/>
</filter>
<filter id="filter2_f_236_5999" x="-71.3707" y="-71.3703" width="195.323" height="198.741" filterUnits="userSpaceOnUse" color-interpolation-filters="sRGB">
<feFlood flood-opacity="0" result="BackgroundImageFix"/>
<feBlend mode="normal" in="SourceGraphic" in2="BackgroundImageFix" result="shape"/>
<feGaussianBlur stdDeviation="33.431" result="effect1_foregroundBlur_236_5999"/>
</filter>
</defs>
</svg>
