<svg width="1428" height="700" viewBox="0 0 1428 700" fill="none" xmlns="http://www.w3.org/2000/svg">
<g clip-path="url(#clip0_236_4156)">
<circle cx="2" cy="2" r="2" fill="#56A0A9" fill-opacity="0.3"/>
<circle cx="46" cy="2" r="2" fill="#56A0A9" fill-opacity="0.3"/>
<circle cx="90" cy="2" r="2" fill="#56A0A9" fill-opacity="0.3"/>
<circle cx="134" cy="2" r="2" fill="#56A0A9" fill-opacity="0.3"/>
<circle cx="178" cy="2" r="2" fill="#56A0A9" fill-opacity="0.3"/>
<circle cx="222" cy="2" r="2" fill="#56A0A9" fill-opacity="0.3"/>
<circle cx="266" cy="2" r="2" fill="#56A0A9" fill-opacity="0.3"/>
<circle cx="310" cy="2" r="2" fill="#56A0A9" fill-opacity="0.3"/>
<circle cx="354" cy="2" r="2" fill="#56A0A9" fill-opacity="0.3"/>
<circle cx="398" cy="2" r="2" fill="#56A0A9" fill-opacity="0.3"/>
<circle cx="442" cy="2" r="2" fill="#56A0A9" fill-opacity="0.3"/>
<circle cx="486" cy="2" r="2" fill="#56A0A9" fill-opacity="0.3"/>
<circle cx="530" cy="2" r="2" fill="#56A0A9" fill-opacity="0.3"/>
<circle cx="574" cy="2" r="2" fill="#56A0A9" fill-opacity="0.3"/>
<circle cx="618" cy="2" r="2" fill="#56A0A9" fill-opacity="0.3"/>
<circle cx="662" cy="2" r="2" fill="#56A0A9" fill-opacity="0.3"/>
<circle cx="706" cy="2" r="2" fill="#56A0A9" fill-opacity="0.3"/>
<circle cx="750" cy="2" r="2" fill="#56A0A9" fill-opacity="0.3"/>
<circle cx="794" cy="2" r="2" fill="#56A0A9" fill-opacity="0.3"/>
<circle cx="838" cy="2" r="2" fill="#56A0A9" fill-opacity="0.3"/>
<circle cx="882" cy="2" r="2" fill="#56A0A9" fill-opacity="0.3"/>
<circle cx="926" cy="2" r="2" fill="#56A0A9" fill-opacity="0.3"/>
<circle cx="970" cy="2" r="2" fill="#56A0A9" fill-opacity="0.3"/>
<circle cx="1014" cy="2" r="2" fill="#56A0A9" fill-opacity="0.3"/>
<circle cx="1058" cy="2" r="2" fill="#56A0A9" fill-opacity="0.3"/>
<circle cx="1102" cy="2" r="2" fill="#56A0A9" fill-opacity="0.3"/>
<circle cx="1146" cy="2" r="2" fill="#56A0A9" fill-opacity="0.3"/>
<circle cx="1190" cy="2" r="2" fill="#56A0A9" fill-opacity="0.3"/>
<circle cx="1234" cy="2" r="2" fill="#56A0A9" fill-opacity="0.3"/>
<circle cx="1278" cy="2" r="2" fill="#56A0A9" fill-opacity="0.3"/>
<circle cx="1322" cy="2" r="2" fill="#56A0A9" fill-opacity="0.3"/>
<circle cx="1366" cy="2" r="2" fill="#56A0A9" fill-opacity="0.3"/>
<circle cx="1410" cy="2" r="2" fill="#56A0A9" fill-opacity="0.3"/>
<circle cx="2" cy="46" r="2" fill="#56A0A9" fill-opacity="0.3"/>
<circle cx="46" cy="46" r="2" fill="#56A0A9" fill-opacity="0.3"/>
<circle cx="90" cy="46" r="2" fill="#56A0A9" fill-opacity="0.3"/>
<circle cx="134" cy="46" r="2" fill="#56A0A9" fill-opacity="0.3"/>
<circle cx="178" cy="46" r="2" fill="#56A0A9" fill-opacity="0.3"/>
<circle cx="222" cy="46" r="2" fill="#56A0A9" fill-opacity="0.3"/>
<circle cx="266" cy="46" r="2" fill="#56A0A9" fill-opacity="0.3"/>
<circle cx="310" cy="46" r="2" fill="#56A0A9" fill-opacity="0.3"/>
<circle cx="354" cy="46" r="2" fill="#56A0A9" fill-opacity="0.3"/>
<circle cx="398" cy="46" r="2" fill="#56A0A9" fill-opacity="0.3"/>
<circle cx="442" cy="46" r="2" fill="#56A0A9" fill-opacity="0.3"/>
<circle cx="486" cy="46" r="2" fill="#56A0A9" fill-opacity="0.3"/>
<circle cx="530" cy="46" r="2" fill="#56A0A9" fill-opacity="0.3"/>
<circle cx="574" cy="46" r="2" fill="#56A0A9" fill-opacity="0.3"/>
<circle cx="618" cy="46" r="2" fill="#56A0A9" fill-opacity="0.3"/>
<circle cx="662" cy="46" r="2" fill="#56A0A9" fill-opacity="0.3"/>
<circle cx="706" cy="46" r="2" fill="#56A0A9" fill-opacity="0.3"/>
<circle cx="750" cy="46" r="2" fill="#56A0A9" fill-opacity="0.3"/>
<circle cx="794" cy="46" r="2" fill="#56A0A9" fill-opacity="0.3"/>
<circle cx="838" cy="46" r="2" fill="#56A0A9" fill-opacity="0.3"/>
<circle cx="882" cy="46" r="2" fill="#56A0A9" fill-opacity="0.3"/>
<circle cx="926" cy="46" r="2" fill="#56A0A9" fill-opacity="0.3"/>
<circle cx="970" cy="46" r="2" fill="#56A0A9" fill-opacity="0.3"/>
<circle cx="1014" cy="46" r="2" fill="#56A0A9" fill-opacity="0.3"/>
<circle cx="1058" cy="46" r="2" fill="#56A0A9" fill-opacity="0.3"/>
<circle cx="1102" cy="46" r="2" fill="#56A0A9" fill-opacity="0.3"/>
<circle cx="1146" cy="46" r="2" fill="#56A0A9" fill-opacity="0.3"/>
<circle cx="1190" cy="46" r="2" fill="#56A0A9" fill-opacity="0.3"/>
<circle cx="1234" cy="46" r="2" fill="#56A0A9" fill-opacity="0.3"/>
<circle cx="1278" cy="46" r="2" fill="#56A0A9" fill-opacity="0.3"/>
<circle cx="1322" cy="46" r="2" fill="#56A0A9" fill-opacity="0.3"/>
<circle cx="1366" cy="46" r="2" fill="#56A0A9" fill-opacity="0.3"/>
<circle cx="1410" cy="46" r="2" fill="#56A0A9" fill-opacity="0.3"/>
<circle cx="2" cy="90" r="2" fill="#56A0A9" fill-opacity="0.3"/>
<circle cx="46" cy="90" r="2" fill="#56A0A9" fill-opacity="0.3"/>
<circle cx="90" cy="90" r="2" fill="#56A0A9" fill-opacity="0.3"/>
<circle cx="134" cy="90" r="2" fill="#56A0A9" fill-opacity="0.3"/>
<circle cx="178" cy="90" r="2" fill="#56A0A9" fill-opacity="0.3"/>
<circle cx="222" cy="90" r="2" fill="#56A0A9" fill-opacity="0.3"/>
<circle cx="266" cy="90" r="2" fill="#56A0A9" fill-opacity="0.3"/>
<circle cx="310" cy="90" r="2" fill="#56A0A9" fill-opacity="0.3"/>
<circle cx="354" cy="90" r="2" fill="#56A0A9" fill-opacity="0.3"/>
<circle cx="398" cy="90" r="2" fill="#56A0A9" fill-opacity="0.3"/>
<circle cx="442" cy="90" r="2" fill="#56A0A9" fill-opacity="0.3"/>
<circle cx="486" cy="90" r="2" fill="#56A0A9" fill-opacity="0.3"/>
<circle cx="530" cy="90" r="2" fill="#56A0A9" fill-opacity="0.3"/>
<circle cx="574" cy="90" r="2" fill="#56A0A9" fill-opacity="0.3"/>
<circle cx="618" cy="90" r="2" fill="#56A0A9" fill-opacity="0.3"/>
<circle cx="662" cy="90" r="2" fill="#56A0A9" fill-opacity="0.3"/>
<circle cx="706" cy="90" r="2" fill="#56A0A9" fill-opacity="0.3"/>
<circle cx="750" cy="90" r="2" fill="#56A0A9" fill-opacity="0.3"/>
<circle cx="794" cy="90" r="2" fill="#56A0A9" fill-opacity="0.3"/>
<circle cx="838" cy="90" r="2" fill="#56A0A9" fill-opacity="0.3"/>
<circle cx="882" cy="90" r="2" fill="#56A0A9" fill-opacity="0.3"/>
<circle cx="926" cy="90" r="2" fill="#56A0A9" fill-opacity="0.3"/>
<circle cx="970" cy="90" r="2" fill="#56A0A9" fill-opacity="0.3"/>
<circle cx="1014" cy="90" r="2" fill="#56A0A9" fill-opacity="0.3"/>
<circle cx="1058" cy="90" r="2" fill="#56A0A9" fill-opacity="0.3"/>
<circle cx="1102" cy="90" r="2" fill="#56A0A9" fill-opacity="0.3"/>
<circle cx="1146" cy="90" r="2" fill="#56A0A9" fill-opacity="0.3"/>
<circle cx="1190" cy="90" r="2" fill="#56A0A9" fill-opacity="0.3"/>
<circle cx="1234" cy="90" r="2" fill="#56A0A9" fill-opacity="0.3"/>
<circle cx="1278" cy="90" r="2" fill="#56A0A9" fill-opacity="0.3"/>
<circle cx="1322" cy="90" r="2" fill="#56A0A9" fill-opacity="0.3"/>
<circle cx="1366" cy="90" r="2" fill="#56A0A9" fill-opacity="0.3"/>
<circle cx="1410" cy="90" r="2" fill="#56A0A9" fill-opacity="0.3"/>
<circle cx="2" cy="134" r="2" fill="#56A0A9" fill-opacity="0.3"/>
<circle cx="46" cy="134" r="2" fill="#56A0A9" fill-opacity="0.3"/>
<circle cx="90" cy="134" r="2" fill="#56A0A9" fill-opacity="0.3"/>
<circle cx="134" cy="134" r="2" fill="#56A0A9" fill-opacity="0.3"/>
<circle cx="178" cy="134" r="2" fill="#56A0A9" fill-opacity="0.3"/>
<circle cx="222" cy="134" r="2" fill="#56A0A9" fill-opacity="0.3"/>
<circle cx="266" cy="134" r="2" fill="#56A0A9" fill-opacity="0.3"/>
<circle cx="310" cy="134" r="2" fill="#56A0A9" fill-opacity="0.3"/>
<circle cx="354" cy="134" r="2" fill="#56A0A9" fill-opacity="0.3"/>
<circle cx="398" cy="134" r="2" fill="#56A0A9" fill-opacity="0.3"/>
<circle cx="442" cy="134" r="2" fill="#56A0A9" fill-opacity="0.3"/>
<circle cx="486" cy="134" r="2" fill="#56A0A9" fill-opacity="0.3"/>
<circle cx="530" cy="134" r="2" fill="#56A0A9" fill-opacity="0.3"/>
<circle cx="574" cy="134" r="2" fill="#56A0A9" fill-opacity="0.3"/>
<circle cx="618" cy="134" r="2" fill="#56A0A9" fill-opacity="0.3"/>
<circle cx="662" cy="134" r="2" fill="#56A0A9" fill-opacity="0.3"/>
<circle cx="706" cy="134" r="2" fill="#56A0A9" fill-opacity="0.3"/>
<circle cx="750" cy="134" r="2" fill="#56A0A9" fill-opacity="0.3"/>
<circle cx="794" cy="134" r="2" fill="#56A0A9" fill-opacity="0.3"/>
<circle cx="838" cy="134" r="2" fill="#56A0A9" fill-opacity="0.3"/>
<circle cx="882" cy="134" r="2" fill="#56A0A9" fill-opacity="0.3"/>
<circle cx="926" cy="134" r="2" fill="#56A0A9" fill-opacity="0.3"/>
<circle cx="970" cy="134" r="2" fill="#56A0A9" fill-opacity="0.3"/>
<circle cx="1014" cy="134" r="2" fill="#56A0A9" fill-opacity="0.3"/>
<circle cx="1058" cy="134" r="2" fill="#56A0A9" fill-opacity="0.3"/>
<circle cx="1102" cy="134" r="2" fill="#56A0A9" fill-opacity="0.3"/>
<circle cx="1146" cy="134" r="2" fill="#56A0A9" fill-opacity="0.3"/>
<circle cx="1190" cy="134" r="2" fill="#56A0A9" fill-opacity="0.3"/>
<circle cx="1234" cy="134" r="2" fill="#56A0A9" fill-opacity="0.3"/>
<circle cx="1278" cy="134" r="2" fill="#56A0A9" fill-opacity="0.3"/>
<circle cx="1322" cy="134" r="2" fill="#56A0A9" fill-opacity="0.3"/>
<circle cx="1366" cy="134" r="2" fill="#56A0A9" fill-opacity="0.3"/>
<circle cx="1410" cy="134" r="2" fill="#56A0A9" fill-opacity="0.3"/>
<circle cx="2" cy="178" r="2" fill="#56A0A9" fill-opacity="0.3"/>
<circle cx="46" cy="178" r="2" fill="#56A0A9" fill-opacity="0.3"/>
<circle cx="90" cy="178" r="2" fill="#56A0A9" fill-opacity="0.3"/>
<circle cx="134" cy="178" r="2" fill="#56A0A9" fill-opacity="0.3"/>
<circle cx="178" cy="178" r="2" fill="#56A0A9" fill-opacity="0.3"/>
<circle cx="222" cy="178" r="2" fill="#56A0A9" fill-opacity="0.3"/>
<circle cx="266" cy="178" r="2" fill="#56A0A9" fill-opacity="0.3"/>
<circle cx="310" cy="178" r="2" fill="#56A0A9" fill-opacity="0.3"/>
<circle cx="354" cy="178" r="2" fill="#56A0A9" fill-opacity="0.3"/>
<circle cx="398" cy="178" r="2" fill="#56A0A9" fill-opacity="0.3"/>
<circle cx="442" cy="178" r="2" fill="#56A0A9" fill-opacity="0.3"/>
<circle cx="486" cy="178" r="2" fill="#56A0A9" fill-opacity="0.3"/>
<circle cx="530" cy="178" r="2" fill="#56A0A9" fill-opacity="0.3"/>
<circle cx="574" cy="178" r="2" fill="#56A0A9" fill-opacity="0.3"/>
<circle cx="618" cy="178" r="2" fill="#56A0A9" fill-opacity="0.3"/>
<circle cx="662" cy="178" r="2" fill="#56A0A9" fill-opacity="0.3"/>
<circle cx="706" cy="178" r="2" fill="#56A0A9" fill-opacity="0.3"/>
<circle cx="750" cy="178" r="2" fill="#56A0A9" fill-opacity="0.3"/>
<circle cx="794" cy="178" r="2" fill="#56A0A9" fill-opacity="0.3"/>
<circle cx="838" cy="178" r="2" fill="#56A0A9" fill-opacity="0.3"/>
<circle cx="882" cy="178" r="2" fill="#56A0A9" fill-opacity="0.3"/>
<circle cx="926" cy="178" r="2" fill="#56A0A9" fill-opacity="0.3"/>
<circle cx="970" cy="178" r="2" fill="#56A0A9" fill-opacity="0.3"/>
<circle cx="1014" cy="178" r="2" fill="#56A0A9" fill-opacity="0.3"/>
<circle cx="1058" cy="178" r="2" fill="#56A0A9" fill-opacity="0.3"/>
<circle cx="1102" cy="178" r="2" fill="#56A0A9" fill-opacity="0.3"/>
<circle cx="1146" cy="178" r="2" fill="#56A0A9" fill-opacity="0.3"/>
<circle cx="1190" cy="178" r="2" fill="#56A0A9" fill-opacity="0.3"/>
<circle cx="1234" cy="178" r="2" fill="#56A0A9" fill-opacity="0.3"/>
<circle cx="1278" cy="178" r="2" fill="#56A0A9" fill-opacity="0.3"/>
<circle cx="1322" cy="178" r="2" fill="#56A0A9" fill-opacity="0.3"/>
<circle cx="1366" cy="178" r="2" fill="#56A0A9" fill-opacity="0.3"/>
<circle cx="1410" cy="178" r="2" fill="#56A0A9" fill-opacity="0.3"/>
<circle cx="2" cy="222" r="2" fill="#56A0A9" fill-opacity="0.3"/>
<circle cx="46" cy="222" r="2" fill="#56A0A9" fill-opacity="0.3"/>
<circle cx="90" cy="222" r="2" fill="#56A0A9" fill-opacity="0.3"/>
<circle cx="134" cy="222" r="2" fill="#56A0A9" fill-opacity="0.3"/>
<circle cx="178" cy="222" r="2" fill="#56A0A9" fill-opacity="0.3"/>
<circle cx="222" cy="222" r="2" fill="#56A0A9" fill-opacity="0.3"/>
<circle cx="266" cy="222" r="2" fill="#56A0A9" fill-opacity="0.3"/>
<circle cx="310" cy="222" r="2" fill="#56A0A9" fill-opacity="0.3"/>
<circle cx="354" cy="222" r="2" fill="#56A0A9" fill-opacity="0.3"/>
<circle cx="398" cy="222" r="2" fill="#56A0A9" fill-opacity="0.3"/>
<circle cx="442" cy="222" r="2" fill="#56A0A9" fill-opacity="0.3"/>
<circle cx="486" cy="222" r="2" fill="#56A0A9" fill-opacity="0.3"/>
<circle cx="530" cy="222" r="2" fill="#56A0A9" fill-opacity="0.3"/>
<circle cx="574" cy="222" r="2" fill="#56A0A9" fill-opacity="0.3"/>
<circle cx="618" cy="222" r="2" fill="#56A0A9" fill-opacity="0.3"/>
<circle cx="662" cy="222" r="2" fill="#56A0A9" fill-opacity="0.3"/>
<circle cx="706" cy="222" r="2" fill="#56A0A9" fill-opacity="0.3"/>
<circle cx="750" cy="222" r="2" fill="#56A0A9" fill-opacity="0.3"/>
<circle cx="794" cy="222" r="2" fill="#56A0A9" fill-opacity="0.3"/>
<circle cx="838" cy="222" r="2" fill="#56A0A9" fill-opacity="0.3"/>
<circle cx="882" cy="222" r="2" fill="#56A0A9" fill-opacity="0.3"/>
<circle cx="926" cy="222" r="2" fill="#56A0A9" fill-opacity="0.3"/>
<circle cx="970" cy="222" r="2" fill="#56A0A9" fill-opacity="0.3"/>
<circle cx="1014" cy="222" r="2" fill="#56A0A9" fill-opacity="0.3"/>
<circle cx="1058" cy="222" r="2" fill="#56A0A9" fill-opacity="0.3"/>
<circle cx="1102" cy="222" r="2" fill="#56A0A9" fill-opacity="0.3"/>
<circle cx="1146" cy="222" r="2" fill="#56A0A9" fill-opacity="0.3"/>
<circle cx="1190" cy="222" r="2" fill="#56A0A9" fill-opacity="0.3"/>
<circle cx="1234" cy="222" r="2" fill="#56A0A9" fill-opacity="0.3"/>
<circle cx="1278" cy="222" r="2" fill="#56A0A9" fill-opacity="0.3"/>
<circle cx="1322" cy="222" r="2" fill="#56A0A9" fill-opacity="0.3"/>
<circle cx="1366" cy="222" r="2" fill="#56A0A9" fill-opacity="0.3"/>
<circle cx="1410" cy="222" r="2" fill="#56A0A9" fill-opacity="0.3"/>
<circle cx="2" cy="266" r="2" fill="#56A0A9" fill-opacity="0.3"/>
<circle cx="46" cy="266" r="2" fill="#56A0A9" fill-opacity="0.3"/>
<circle cx="90" cy="266" r="2" fill="#56A0A9" fill-opacity="0.3"/>
<circle cx="134" cy="266" r="2" fill="#56A0A9" fill-opacity="0.3"/>
<circle cx="178" cy="266" r="2" fill="#56A0A9" fill-opacity="0.3"/>
<circle cx="222" cy="266" r="2" fill="#56A0A9" fill-opacity="0.3"/>
<circle cx="266" cy="266" r="2" fill="#56A0A9" fill-opacity="0.3"/>
<circle cx="310" cy="266" r="2" fill="#56A0A9" fill-opacity="0.3"/>
<circle cx="354" cy="266" r="2" fill="#56A0A9" fill-opacity="0.3"/>
<circle cx="398" cy="266" r="2" fill="#56A0A9" fill-opacity="0.3"/>
<circle cx="442" cy="266" r="2" fill="#56A0A9" fill-opacity="0.3"/>
<circle cx="486" cy="266" r="2" fill="#56A0A9" fill-opacity="0.3"/>
<circle cx="530" cy="266" r="2" fill="#56A0A9" fill-opacity="0.3"/>
<circle cx="574" cy="266" r="2" fill="#56A0A9" fill-opacity="0.3"/>
<circle cx="618" cy="266" r="2" fill="#56A0A9" fill-opacity="0.3"/>
<circle cx="662" cy="266" r="2" fill="#56A0A9" fill-opacity="0.3"/>
<circle cx="706" cy="266" r="2" fill="#56A0A9" fill-opacity="0.3"/>
<circle cx="750" cy="266" r="2" fill="#56A0A9" fill-opacity="0.3"/>
<circle cx="794" cy="266" r="2" fill="#56A0A9" fill-opacity="0.3"/>
<circle cx="838" cy="266" r="2" fill="#56A0A9" fill-opacity="0.3"/>
<circle cx="882" cy="266" r="2" fill="#56A0A9" fill-opacity="0.3"/>
<circle cx="926" cy="266" r="2" fill="#56A0A9" fill-opacity="0.3"/>
<circle cx="970" cy="266" r="2" fill="#56A0A9" fill-opacity="0.3"/>
<circle cx="1014" cy="266" r="2" fill="#56A0A9" fill-opacity="0.3"/>
<circle cx="1058" cy="266" r="2" fill="#56A0A9" fill-opacity="0.3"/>
<circle cx="1102" cy="266" r="2" fill="#56A0A9" fill-opacity="0.3"/>
<circle cx="1146" cy="266" r="2" fill="#56A0A9" fill-opacity="0.3"/>
<circle cx="1190" cy="266" r="2" fill="#56A0A9" fill-opacity="0.3"/>
<circle cx="1234" cy="266" r="2" fill="#56A0A9" fill-opacity="0.3"/>
<circle cx="1278" cy="266" r="2" fill="#56A0A9" fill-opacity="0.3"/>
<circle cx="1322" cy="266" r="2" fill="#56A0A9" fill-opacity="0.3"/>
<circle cx="1366" cy="266" r="2" fill="#56A0A9" fill-opacity="0.3"/>
<circle cx="1410" cy="266" r="2" fill="#56A0A9" fill-opacity="0.3"/>
<circle cx="2" cy="310" r="2" fill="#56A0A9" fill-opacity="0.3"/>
<circle cx="46" cy="310" r="2" fill="#56A0A9" fill-opacity="0.3"/>
<circle cx="90" cy="310" r="2" fill="#56A0A9" fill-opacity="0.3"/>
<circle cx="134" cy="310" r="2" fill="#56A0A9" fill-opacity="0.3"/>
<circle cx="178" cy="310" r="2" fill="#56A0A9" fill-opacity="0.3"/>
<circle cx="222" cy="310" r="2" fill="#56A0A9" fill-opacity="0.3"/>
<circle cx="266" cy="310" r="2" fill="#56A0A9" fill-opacity="0.3"/>
<circle cx="310" cy="310" r="2" fill="#56A0A9" fill-opacity="0.3"/>
<circle cx="354" cy="310" r="2" fill="#56A0A9" fill-opacity="0.3"/>
<circle cx="398" cy="310" r="2" fill="#56A0A9" fill-opacity="0.3"/>
<circle cx="442" cy="310" r="2" fill="#56A0A9" fill-opacity="0.3"/>
<circle cx="486" cy="310" r="2" fill="#56A0A9" fill-opacity="0.3"/>
<circle cx="530" cy="310" r="2" fill="#56A0A9" fill-opacity="0.3"/>
<circle cx="574" cy="310" r="2" fill="#56A0A9" fill-opacity="0.3"/>
<circle cx="618" cy="310" r="2" fill="#56A0A9" fill-opacity="0.3"/>
<circle cx="662" cy="310" r="2" fill="#56A0A9" fill-opacity="0.3"/>
<circle cx="706" cy="310" r="2" fill="#56A0A9" fill-opacity="0.3"/>
<circle cx="750" cy="310" r="2" fill="#56A0A9" fill-opacity="0.3"/>
<circle cx="794" cy="310" r="2" fill="#56A0A9" fill-opacity="0.3"/>
<circle cx="838" cy="310" r="2" fill="#56A0A9" fill-opacity="0.3"/>
<circle cx="882" cy="310" r="2" fill="#56A0A9" fill-opacity="0.3"/>
<circle cx="926" cy="310" r="2" fill="#56A0A9" fill-opacity="0.3"/>
<circle cx="970" cy="310" r="2" fill="#56A0A9" fill-opacity="0.3"/>
<circle cx="1014" cy="310" r="2" fill="#56A0A9" fill-opacity="0.3"/>
<circle cx="1058" cy="310" r="2" fill="#56A0A9" fill-opacity="0.3"/>
<circle cx="1102" cy="310" r="2" fill="#56A0A9" fill-opacity="0.3"/>
<circle cx="1146" cy="310" r="2" fill="#56A0A9" fill-opacity="0.3"/>
<circle cx="1190" cy="310" r="2" fill="#56A0A9" fill-opacity="0.3"/>
<circle cx="1234" cy="310" r="2" fill="#56A0A9" fill-opacity="0.3"/>
<circle cx="1278" cy="310" r="2" fill="#56A0A9" fill-opacity="0.3"/>
<circle cx="1322" cy="310" r="2" fill="#56A0A9" fill-opacity="0.3"/>
<circle cx="1366" cy="310" r="2" fill="#56A0A9" fill-opacity="0.3"/>
<circle cx="1410" cy="310" r="2" fill="#56A0A9" fill-opacity="0.3"/>
<circle cx="2" cy="354" r="2" fill="#56A0A9" fill-opacity="0.3"/>
<circle cx="46" cy="354" r="2" fill="#56A0A9" fill-opacity="0.3"/>
<circle cx="90" cy="354" r="2" fill="#56A0A9" fill-opacity="0.3"/>
<circle cx="134" cy="354" r="2" fill="#56A0A9" fill-opacity="0.3"/>
<circle cx="178" cy="354" r="2" fill="#56A0A9" fill-opacity="0.3"/>
<circle cx="222" cy="354" r="2" fill="#56A0A9" fill-opacity="0.3"/>
<circle cx="266" cy="354" r="2" fill="#56A0A9" fill-opacity="0.3"/>
<circle cx="310" cy="354" r="2" fill="#56A0A9" fill-opacity="0.3"/>
<circle cx="354" cy="354" r="2" fill="#56A0A9" fill-opacity="0.3"/>
<circle cx="398" cy="354" r="2" fill="#56A0A9" fill-opacity="0.3"/>
<circle cx="442" cy="354" r="2" fill="#56A0A9" fill-opacity="0.3"/>
<circle cx="486" cy="354" r="2" fill="#56A0A9" fill-opacity="0.3"/>
<circle cx="530" cy="354" r="2" fill="#56A0A9" fill-opacity="0.3"/>
<circle cx="574" cy="354" r="2" fill="#56A0A9" fill-opacity="0.3"/>
<circle cx="618" cy="354" r="2" fill="#56A0A9" fill-opacity="0.3"/>
<circle cx="662" cy="354" r="2" fill="#56A0A9" fill-opacity="0.3"/>
<circle cx="706" cy="354" r="2" fill="#56A0A9" fill-opacity="0.3"/>
<circle cx="750" cy="354" r="2" fill="#56A0A9" fill-opacity="0.3"/>
<circle cx="794" cy="354" r="2" fill="#56A0A9" fill-opacity="0.3"/>
<circle cx="838" cy="354" r="2" fill="#56A0A9" fill-opacity="0.3"/>
<circle cx="882" cy="354" r="2" fill="#56A0A9" fill-opacity="0.3"/>
<circle cx="926" cy="354" r="2" fill="#56A0A9" fill-opacity="0.3"/>
<circle cx="970" cy="354" r="2" fill="#56A0A9" fill-opacity="0.3"/>
<circle cx="1014" cy="354" r="2" fill="#56A0A9" fill-opacity="0.3"/>
<circle cx="1058" cy="354" r="2" fill="#56A0A9" fill-opacity="0.3"/>
<circle cx="1102" cy="354" r="2" fill="#56A0A9" fill-opacity="0.3"/>
<circle cx="1146" cy="354" r="2" fill="#56A0A9" fill-opacity="0.3"/>
<circle cx="1190" cy="354" r="2" fill="#56A0A9" fill-opacity="0.3"/>
<circle cx="1234" cy="354" r="2" fill="#56A0A9" fill-opacity="0.3"/>
<circle cx="1278" cy="354" r="2" fill="#56A0A9" fill-opacity="0.3"/>
<circle cx="1322" cy="354" r="2" fill="#56A0A9" fill-opacity="0.3"/>
<circle cx="1366" cy="354" r="2" fill="#56A0A9" fill-opacity="0.3"/>
<circle cx="1410" cy="354" r="2" fill="#56A0A9" fill-opacity="0.3"/>
<circle cx="2" cy="398" r="2" fill="#56A0A9" fill-opacity="0.3"/>
<circle cx="46" cy="398" r="2" fill="#56A0A9" fill-opacity="0.3"/>
<circle cx="90" cy="398" r="2" fill="#56A0A9" fill-opacity="0.3"/>
<circle cx="134" cy="398" r="2" fill="#56A0A9" fill-opacity="0.3"/>
<circle cx="178" cy="398" r="2" fill="#56A0A9" fill-opacity="0.3"/>
<circle cx="222" cy="398" r="2" fill="#56A0A9" fill-opacity="0.3"/>
<circle cx="266" cy="398" r="2" fill="#56A0A9" fill-opacity="0.3"/>
<circle cx="310" cy="398" r="2" fill="#56A0A9" fill-opacity="0.3"/>
<circle cx="354" cy="398" r="2" fill="#56A0A9" fill-opacity="0.3"/>
<circle cx="398" cy="398" r="2" fill="#56A0A9" fill-opacity="0.3"/>
<circle cx="442" cy="398" r="2" fill="#56A0A9" fill-opacity="0.3"/>
<circle cx="486" cy="398" r="2" fill="#56A0A9" fill-opacity="0.3"/>
<circle cx="530" cy="398" r="2" fill="#56A0A9" fill-opacity="0.3"/>
<circle cx="574" cy="398" r="2" fill="#56A0A9" fill-opacity="0.3"/>
<circle cx="618" cy="398" r="2" fill="#56A0A9" fill-opacity="0.3"/>
<circle cx="662" cy="398" r="2" fill="#56A0A9" fill-opacity="0.3"/>
<circle cx="706" cy="398" r="2" fill="#56A0A9" fill-opacity="0.3"/>
<circle cx="750" cy="398" r="2" fill="#56A0A9" fill-opacity="0.3"/>
<circle cx="794" cy="398" r="2" fill="#56A0A9" fill-opacity="0.3"/>
<circle cx="838" cy="398" r="2" fill="#56A0A9" fill-opacity="0.3"/>
<circle cx="882" cy="398" r="2" fill="#56A0A9" fill-opacity="0.3"/>
<circle cx="926" cy="398" r="2" fill="#56A0A9" fill-opacity="0.3"/>
<circle cx="970" cy="398" r="2" fill="#56A0A9" fill-opacity="0.3"/>
<circle cx="1014" cy="398" r="2" fill="#56A0A9" fill-opacity="0.3"/>
<circle cx="1058" cy="398" r="2" fill="#56A0A9" fill-opacity="0.3"/>
<circle cx="1102" cy="398" r="2" fill="#56A0A9" fill-opacity="0.3"/>
<circle cx="1146" cy="398" r="2" fill="#56A0A9" fill-opacity="0.3"/>
<circle cx="1190" cy="398" r="2" fill="#56A0A9" fill-opacity="0.3"/>
<circle cx="1234" cy="398" r="2" fill="#56A0A9" fill-opacity="0.3"/>
<circle cx="1278" cy="398" r="2" fill="#56A0A9" fill-opacity="0.3"/>
<circle cx="1322" cy="398" r="2" fill="#56A0A9" fill-opacity="0.3"/>
<circle cx="1366" cy="398" r="2" fill="#56A0A9" fill-opacity="0.3"/>
<circle cx="1410" cy="398" r="2" fill="#56A0A9" fill-opacity="0.3"/>
<circle cx="2" cy="442" r="2" fill="#56A0A9" fill-opacity="0.3"/>
<circle cx="46" cy="442" r="2" fill="#56A0A9" fill-opacity="0.3"/>
<circle cx="90" cy="442" r="2" fill="#56A0A9" fill-opacity="0.3"/>
<circle cx="134" cy="442" r="2" fill="#56A0A9" fill-opacity="0.3"/>
<circle cx="178" cy="442" r="2" fill="#56A0A9" fill-opacity="0.3"/>
<circle cx="222" cy="442" r="2" fill="#56A0A9" fill-opacity="0.3"/>
<circle cx="266" cy="442" r="2" fill="#56A0A9" fill-opacity="0.3"/>
<circle cx="310" cy="442" r="2" fill="#56A0A9" fill-opacity="0.3"/>
<circle cx="354" cy="442" r="2" fill="#56A0A9" fill-opacity="0.3"/>
<circle cx="398" cy="442" r="2" fill="#56A0A9" fill-opacity="0.3"/>
<circle cx="442" cy="442" r="2" fill="#56A0A9" fill-opacity="0.3"/>
<circle cx="486" cy="442" r="2" fill="#56A0A9" fill-opacity="0.3"/>
<circle cx="530" cy="442" r="2" fill="#56A0A9" fill-opacity="0.3"/>
<circle cx="574" cy="442" r="2" fill="#56A0A9" fill-opacity="0.3"/>
<circle cx="618" cy="442" r="2" fill="#56A0A9" fill-opacity="0.3"/>
<circle cx="662" cy="442" r="2" fill="#56A0A9" fill-opacity="0.3"/>
<circle cx="706" cy="442" r="2" fill="#56A0A9" fill-opacity="0.3"/>
<circle cx="750" cy="442" r="2" fill="#56A0A9" fill-opacity="0.3"/>
<circle cx="794" cy="442" r="2" fill="#56A0A9" fill-opacity="0.3"/>
<circle cx="838" cy="442" r="2" fill="#56A0A9" fill-opacity="0.3"/>
<circle cx="882" cy="442" r="2" fill="#56A0A9" fill-opacity="0.3"/>
<circle cx="926" cy="442" r="2" fill="#56A0A9" fill-opacity="0.3"/>
<circle cx="970" cy="442" r="2" fill="#56A0A9" fill-opacity="0.3"/>
<circle cx="1014" cy="442" r="2" fill="#56A0A9" fill-opacity="0.3"/>
<circle cx="1058" cy="442" r="2" fill="#56A0A9" fill-opacity="0.3"/>
<circle cx="1102" cy="442" r="2" fill="#56A0A9" fill-opacity="0.3"/>
<circle cx="1146" cy="442" r="2" fill="#56A0A9" fill-opacity="0.3"/>
<circle cx="1190" cy="442" r="2" fill="#56A0A9" fill-opacity="0.3"/>
<circle cx="1234" cy="442" r="2" fill="#56A0A9" fill-opacity="0.3"/>
<circle cx="1278" cy="442" r="2" fill="#56A0A9" fill-opacity="0.3"/>
<circle cx="1322" cy="442" r="2" fill="#56A0A9" fill-opacity="0.3"/>
<circle cx="1366" cy="442" r="2" fill="#56A0A9" fill-opacity="0.3"/>
<circle cx="1410" cy="442" r="2" fill="#56A0A9" fill-opacity="0.3"/>
<circle cx="2" cy="486" r="2" fill="#56A0A9" fill-opacity="0.3"/>
<circle cx="46" cy="486" r="2" fill="#56A0A9" fill-opacity="0.3"/>
<circle cx="90" cy="486" r="2" fill="#56A0A9" fill-opacity="0.3"/>
<circle cx="134" cy="486" r="2" fill="#56A0A9" fill-opacity="0.3"/>
<circle cx="178" cy="486" r="2" fill="#56A0A9" fill-opacity="0.3"/>
<circle cx="222" cy="486" r="2" fill="#56A0A9" fill-opacity="0.3"/>
<circle cx="266" cy="486" r="2" fill="#56A0A9" fill-opacity="0.3"/>
<circle cx="310" cy="486" r="2" fill="#56A0A9" fill-opacity="0.3"/>
<circle cx="354" cy="486" r="2" fill="#56A0A9" fill-opacity="0.3"/>
<circle cx="398" cy="486" r="2" fill="#56A0A9" fill-opacity="0.3"/>
<circle cx="442" cy="486" r="2" fill="#56A0A9" fill-opacity="0.3"/>
<circle cx="486" cy="486" r="2" fill="#56A0A9" fill-opacity="0.3"/>
<circle cx="530" cy="486" r="2" fill="#56A0A9" fill-opacity="0.3"/>
<circle cx="574" cy="486" r="2" fill="#56A0A9" fill-opacity="0.3"/>
<circle cx="618" cy="486" r="2" fill="#56A0A9" fill-opacity="0.3"/>
<circle cx="662" cy="486" r="2" fill="#56A0A9" fill-opacity="0.3"/>
<circle cx="706" cy="486" r="2" fill="#56A0A9" fill-opacity="0.3"/>
<circle cx="750" cy="486" r="2" fill="#56A0A9" fill-opacity="0.3"/>
<circle cx="794" cy="486" r="2" fill="#56A0A9" fill-opacity="0.3"/>
<circle cx="838" cy="486" r="2" fill="#56A0A9" fill-opacity="0.3"/>
<circle cx="882" cy="486" r="2" fill="#56A0A9" fill-opacity="0.3"/>
<circle cx="926" cy="486" r="2" fill="#56A0A9" fill-opacity="0.3"/>
<circle cx="970" cy="486" r="2" fill="#56A0A9" fill-opacity="0.3"/>
<circle cx="1014" cy="486" r="2" fill="#56A0A9" fill-opacity="0.3"/>
<circle cx="1058" cy="486" r="2" fill="#56A0A9" fill-opacity="0.3"/>
<circle cx="1102" cy="486" r="2" fill="#56A0A9" fill-opacity="0.3"/>
<circle cx="1146" cy="486" r="2" fill="#56A0A9" fill-opacity="0.3"/>
<circle cx="1190" cy="486" r="2" fill="#56A0A9" fill-opacity="0.3"/>
<circle cx="1234" cy="486" r="2" fill="#56A0A9" fill-opacity="0.3"/>
<circle cx="1278" cy="486" r="2" fill="#56A0A9" fill-opacity="0.3"/>
<circle cx="1322" cy="486" r="2" fill="#56A0A9" fill-opacity="0.3"/>
<circle cx="1366" cy="486" r="2" fill="#56A0A9" fill-opacity="0.3"/>
<circle cx="1410" cy="486" r="2" fill="#56A0A9" fill-opacity="0.3"/>
<circle cx="2" cy="530" r="2" fill="#56A0A9" fill-opacity="0.3"/>
<circle cx="46" cy="530" r="2" fill="#56A0A9" fill-opacity="0.3"/>
<circle cx="90" cy="530" r="2" fill="#56A0A9" fill-opacity="0.3"/>
<circle cx="134" cy="530" r="2" fill="#56A0A9" fill-opacity="0.3"/>
<circle cx="178" cy="530" r="2" fill="#56A0A9" fill-opacity="0.3"/>
<circle cx="222" cy="530" r="2" fill="#56A0A9" fill-opacity="0.3"/>
<circle cx="266" cy="530" r="2" fill="#56A0A9" fill-opacity="0.3"/>
<circle cx="310" cy="530" r="2" fill="#56A0A9" fill-opacity="0.3"/>
<circle cx="354" cy="530" r="2" fill="#56A0A9" fill-opacity="0.3"/>
<circle cx="398" cy="530" r="2" fill="#56A0A9" fill-opacity="0.3"/>
<circle cx="442" cy="530" r="2" fill="#56A0A9" fill-opacity="0.3"/>
<circle cx="486" cy="530" r="2" fill="#56A0A9" fill-opacity="0.3"/>
<circle cx="530" cy="530" r="2" fill="#56A0A9" fill-opacity="0.3"/>
<circle cx="574" cy="530" r="2" fill="#56A0A9" fill-opacity="0.3"/>
<circle cx="618" cy="530" r="2" fill="#56A0A9" fill-opacity="0.3"/>
<circle cx="662" cy="530" r="2" fill="#56A0A9" fill-opacity="0.3"/>
<circle cx="706" cy="530" r="2" fill="#56A0A9" fill-opacity="0.3"/>
<circle cx="750" cy="530" r="2" fill="#56A0A9" fill-opacity="0.3"/>
<circle cx="794" cy="530" r="2" fill="#56A0A9" fill-opacity="0.3"/>
<circle cx="838" cy="530" r="2" fill="#56A0A9" fill-opacity="0.3"/>
<circle cx="882" cy="530" r="2" fill="#56A0A9" fill-opacity="0.3"/>
<circle cx="926" cy="530" r="2" fill="#56A0A9" fill-opacity="0.3"/>
<circle cx="970" cy="530" r="2" fill="#56A0A9" fill-opacity="0.3"/>
<circle cx="1014" cy="530" r="2" fill="#56A0A9" fill-opacity="0.3"/>
<circle cx="1058" cy="530" r="2" fill="#56A0A9" fill-opacity="0.3"/>
<circle cx="1102" cy="530" r="2" fill="#56A0A9" fill-opacity="0.3"/>
<circle cx="1146" cy="530" r="2" fill="#56A0A9" fill-opacity="0.3"/>
<circle cx="1190" cy="530" r="2" fill="#56A0A9" fill-opacity="0.3"/>
<circle cx="1234" cy="530" r="2" fill="#56A0A9" fill-opacity="0.3"/>
<circle cx="1278" cy="530" r="2" fill="#56A0A9" fill-opacity="0.3"/>
<circle cx="1322" cy="530" r="2" fill="#56A0A9" fill-opacity="0.3"/>
<circle cx="1366" cy="530" r="2" fill="#56A0A9" fill-opacity="0.3"/>
<circle cx="1410" cy="530" r="2" fill="#56A0A9" fill-opacity="0.3"/>
<circle cx="2" cy="574" r="2" fill="#56A0A9" fill-opacity="0.3"/>
<circle cx="46" cy="574" r="2" fill="#56A0A9" fill-opacity="0.3"/>
<circle cx="90" cy="574" r="2" fill="#56A0A9" fill-opacity="0.3"/>
<circle cx="134" cy="574" r="2" fill="#56A0A9" fill-opacity="0.3"/>
<circle cx="178" cy="574" r="2" fill="#56A0A9" fill-opacity="0.3"/>
<circle cx="222" cy="574" r="2" fill="#56A0A9" fill-opacity="0.3"/>
<circle cx="266" cy="574" r="2" fill="#56A0A9" fill-opacity="0.3"/>
<circle cx="310" cy="574" r="2" fill="#56A0A9" fill-opacity="0.3"/>
<circle cx="354" cy="574" r="2" fill="#56A0A9" fill-opacity="0.3"/>
<circle cx="398" cy="574" r="2" fill="#56A0A9" fill-opacity="0.3"/>
<circle cx="442" cy="574" r="2" fill="#56A0A9" fill-opacity="0.3"/>
<circle cx="486" cy="574" r="2" fill="#56A0A9" fill-opacity="0.3"/>
<circle cx="530" cy="574" r="2" fill="#56A0A9" fill-opacity="0.3"/>
<circle cx="574" cy="574" r="2" fill="#56A0A9" fill-opacity="0.3"/>
<circle cx="618" cy="574" r="2" fill="#56A0A9" fill-opacity="0.3"/>
<circle cx="662" cy="574" r="2" fill="#56A0A9" fill-opacity="0.3"/>
<circle cx="706" cy="574" r="2" fill="#56A0A9" fill-opacity="0.3"/>
<circle cx="750" cy="574" r="2" fill="#56A0A9" fill-opacity="0.3"/>
<circle cx="794" cy="574" r="2" fill="#56A0A9" fill-opacity="0.3"/>
<circle cx="838" cy="574" r="2" fill="#56A0A9" fill-opacity="0.3"/>
<circle cx="882" cy="574" r="2" fill="#56A0A9" fill-opacity="0.3"/>
<circle cx="926" cy="574" r="2" fill="#56A0A9" fill-opacity="0.3"/>
<circle cx="970" cy="574" r="2" fill="#56A0A9" fill-opacity="0.3"/>
<circle cx="1014" cy="574" r="2" fill="#56A0A9" fill-opacity="0.3"/>
<circle cx="1058" cy="574" r="2" fill="#56A0A9" fill-opacity="0.3"/>
<circle cx="1102" cy="574" r="2" fill="#56A0A9" fill-opacity="0.3"/>
<circle cx="1146" cy="574" r="2" fill="#56A0A9" fill-opacity="0.3"/>
<circle cx="1190" cy="574" r="2" fill="#56A0A9" fill-opacity="0.3"/>
<circle cx="1234" cy="574" r="2" fill="#56A0A9" fill-opacity="0.3"/>
<circle cx="1278" cy="574" r="2" fill="#56A0A9" fill-opacity="0.3"/>
<circle cx="1322" cy="574" r="2" fill="#56A0A9" fill-opacity="0.3"/>
<circle cx="1366" cy="574" r="2" fill="#56A0A9" fill-opacity="0.3"/>
<circle cx="1410" cy="574" r="2" fill="#56A0A9" fill-opacity="0.3"/>
<circle cx="2" cy="618" r="2" fill="#56A0A9" fill-opacity="0.3"/>
<circle cx="46" cy="618" r="2" fill="#56A0A9" fill-opacity="0.3"/>
<circle cx="90" cy="618" r="2" fill="#56A0A9" fill-opacity="0.3"/>
<circle cx="134" cy="618" r="2" fill="#56A0A9" fill-opacity="0.3"/>
<circle cx="178" cy="618" r="2" fill="#56A0A9" fill-opacity="0.3"/>
<circle cx="222" cy="618" r="2" fill="#56A0A9" fill-opacity="0.3"/>
<circle cx="266" cy="618" r="2" fill="#56A0A9" fill-opacity="0.3"/>
<circle cx="310" cy="618" r="2" fill="#56A0A9" fill-opacity="0.3"/>
<circle cx="354" cy="618" r="2" fill="#56A0A9" fill-opacity="0.3"/>
<circle cx="398" cy="618" r="2" fill="#56A0A9" fill-opacity="0.3"/>
<circle cx="442" cy="618" r="2" fill="#56A0A9" fill-opacity="0.3"/>
<circle cx="486" cy="618" r="2" fill="#56A0A9" fill-opacity="0.3"/>
<circle cx="530" cy="618" r="2" fill="#56A0A9" fill-opacity="0.3"/>
<circle cx="574" cy="618" r="2" fill="#56A0A9" fill-opacity="0.3"/>
<circle cx="618" cy="618" r="2" fill="#56A0A9" fill-opacity="0.3"/>
<circle cx="662" cy="618" r="2" fill="#56A0A9" fill-opacity="0.3"/>
<circle cx="706" cy="618" r="2" fill="#56A0A9" fill-opacity="0.3"/>
<circle cx="750" cy="618" r="2" fill="#56A0A9" fill-opacity="0.3"/>
<circle cx="794" cy="618" r="2" fill="#56A0A9" fill-opacity="0.3"/>
<circle cx="838" cy="618" r="2" fill="#56A0A9" fill-opacity="0.3"/>
<circle cx="882" cy="618" r="2" fill="#56A0A9" fill-opacity="0.3"/>
<circle cx="926" cy="618" r="2" fill="#56A0A9" fill-opacity="0.3"/>
<circle cx="970" cy="618" r="2" fill="#56A0A9" fill-opacity="0.3"/>
<circle cx="1014" cy="618" r="2" fill="#56A0A9" fill-opacity="0.3"/>
<circle cx="1058" cy="618" r="2" fill="#56A0A9" fill-opacity="0.3"/>
<circle cx="1102" cy="618" r="2" fill="#56A0A9" fill-opacity="0.3"/>
<circle cx="1146" cy="618" r="2" fill="#56A0A9" fill-opacity="0.3"/>
<circle cx="1190" cy="618" r="2" fill="#56A0A9" fill-opacity="0.3"/>
<circle cx="1234" cy="618" r="2" fill="#56A0A9" fill-opacity="0.3"/>
<circle cx="1278" cy="618" r="2" fill="#56A0A9" fill-opacity="0.3"/>
<circle cx="1322" cy="618" r="2" fill="#56A0A9" fill-opacity="0.3"/>
<circle cx="1366" cy="618" r="2" fill="#56A0A9" fill-opacity="0.3"/>
<circle cx="1410" cy="618" r="2" fill="#56A0A9" fill-opacity="0.3"/>
<circle cx="2" cy="662" r="2" fill="#56A0A9" fill-opacity="0.3"/>
<circle cx="46" cy="662" r="2" fill="#56A0A9" fill-opacity="0.3"/>
<circle cx="90" cy="662" r="2" fill="#56A0A9" fill-opacity="0.3"/>
<circle cx="134" cy="662" r="2" fill="#56A0A9" fill-opacity="0.3"/>
<circle cx="178" cy="662" r="2" fill="#56A0A9" fill-opacity="0.3"/>
<circle cx="222" cy="662" r="2" fill="#56A0A9" fill-opacity="0.3"/>
<circle cx="266" cy="662" r="2" fill="#56A0A9" fill-opacity="0.3"/>
<circle cx="310" cy="662" r="2" fill="#56A0A9" fill-opacity="0.3"/>
<circle cx="354" cy="662" r="2" fill="#56A0A9" fill-opacity="0.3"/>
<circle cx="398" cy="662" r="2" fill="#56A0A9" fill-opacity="0.3"/>
<circle cx="442" cy="662" r="2" fill="#56A0A9" fill-opacity="0.3"/>
<circle cx="486" cy="662" r="2" fill="#56A0A9" fill-opacity="0.3"/>
<circle cx="530" cy="662" r="2" fill="#56A0A9" fill-opacity="0.3"/>
<circle cx="574" cy="662" r="2" fill="#56A0A9" fill-opacity="0.3"/>
<circle cx="618" cy="662" r="2" fill="#56A0A9" fill-opacity="0.3"/>
<circle cx="662" cy="662" r="2" fill="#56A0A9" fill-opacity="0.3"/>
<circle cx="706" cy="662" r="2" fill="#56A0A9" fill-opacity="0.3"/>
<circle cx="750" cy="662" r="2" fill="#56A0A9" fill-opacity="0.3"/>
<circle cx="794" cy="662" r="2" fill="#56A0A9" fill-opacity="0.3"/>
<circle cx="838" cy="662" r="2" fill="#56A0A9" fill-opacity="0.3"/>
<circle cx="882" cy="662" r="2" fill="#56A0A9" fill-opacity="0.3"/>
<circle cx="926" cy="662" r="2" fill="#56A0A9" fill-opacity="0.3"/>
<circle cx="970" cy="662" r="2" fill="#56A0A9" fill-opacity="0.3"/>
<circle cx="1014" cy="662" r="2" fill="#56A0A9" fill-opacity="0.3"/>
<circle cx="1058" cy="662" r="2" fill="#56A0A9" fill-opacity="0.3"/>
<circle cx="1102" cy="662" r="2" fill="#56A0A9" fill-opacity="0.3"/>
<circle cx="1146" cy="662" r="2" fill="#56A0A9" fill-opacity="0.3"/>
<circle cx="1190" cy="662" r="2" fill="#56A0A9" fill-opacity="0.3"/>
<circle cx="1234" cy="662" r="2" fill="#56A0A9" fill-opacity="0.3"/>
<circle cx="1278" cy="662" r="2" fill="#56A0A9" fill-opacity="0.3"/>
<circle cx="1322" cy="662" r="2" fill="#56A0A9" fill-opacity="0.3"/>
<circle cx="1366" cy="662" r="2" fill="#56A0A9" fill-opacity="0.3"/>
<circle cx="1410" cy="662" r="2" fill="#56A0A9" fill-opacity="0.3"/>
</g>
<defs>
<clipPath id="clip0_236_4156">
<rect width="1440" height="700" fill="white"/>
</clipPath>
</defs>
</svg>
