<svg width="1440" height="700" viewBox="0 0 1440 700" fill="none" xmlns="http://www.w3.org/2000/svg">
<g clip-path="url(#clip0_128_3944)">
<circle cx="14" cy="2" r="2" fill="#56A0A9" fill-opacity="0.3"/>
<circle cx="58" cy="2" r="2" fill="#56A0A9" fill-opacity="0.3"/>
<circle cx="102" cy="2" r="2" fill="#56A0A9" fill-opacity="0.3"/>
<circle cx="146" cy="2" r="2" fill="#56A0A9" fill-opacity="0.3"/>
<circle cx="190" cy="2" r="2" fill="#56A0A9" fill-opacity="0.3"/>
<circle cx="234" cy="2" r="2" fill="#56A0A9" fill-opacity="0.3"/>
<circle cx="278" cy="2" r="2" fill="#56A0A9" fill-opacity="0.3"/>
<circle cx="322" cy="2" r="2" fill="#56A0A9" fill-opacity="0.3"/>
<circle cx="366" cy="2" r="2" fill="#56A0A9" fill-opacity="0.3"/>
<circle cx="410" cy="2" r="2" fill="#56A0A9" fill-opacity="0.3"/>
<circle cx="454" cy="2" r="2" fill="#56A0A9" fill-opacity="0.3"/>
<circle cx="498" cy="2" r="2" fill="#56A0A9" fill-opacity="0.3"/>
<circle cx="542" cy="2" r="2" fill="#56A0A9" fill-opacity="0.3"/>
<circle cx="586" cy="2" r="2" fill="#56A0A9" fill-opacity="0.3"/>
<circle cx="630" cy="2" r="2" fill="#56A0A9" fill-opacity="0.3"/>
<circle cx="674" cy="2" r="2" fill="#56A0A9" fill-opacity="0.3"/>
<circle cx="718" cy="2" r="2" fill="#56A0A9" fill-opacity="0.3"/>
<circle cx="762" cy="2" r="2" fill="#56A0A9" fill-opacity="0.3"/>
<circle cx="806" cy="2" r="2" fill="#56A0A9" fill-opacity="0.3"/>
<circle cx="850" cy="2" r="2" fill="#56A0A9" fill-opacity="0.3"/>
<circle cx="894" cy="2" r="2" fill="#56A0A9" fill-opacity="0.3"/>
<circle cx="938" cy="2" r="2" fill="#56A0A9" fill-opacity="0.3"/>
<circle cx="982" cy="2" r="2" fill="#56A0A9" fill-opacity="0.3"/>
<circle cx="1026" cy="2" r="2" fill="#56A0A9" fill-opacity="0.3"/>
<circle cx="1070" cy="2" r="2" fill="#56A0A9" fill-opacity="0.3"/>
<circle cx="1114" cy="2" r="2" fill="#56A0A9" fill-opacity="0.3"/>
<circle cx="1158" cy="2" r="2" fill="#56A0A9" fill-opacity="0.3"/>
<circle cx="1202" cy="2" r="2" fill="#56A0A9" fill-opacity="0.3"/>
<circle cx="1246" cy="2" r="2" fill="#56A0A9" fill-opacity="0.3"/>
<circle cx="1290" cy="2" r="2" fill="#56A0A9" fill-opacity="0.3"/>
<circle cx="1334" cy="2" r="2" fill="#56A0A9" fill-opacity="0.3"/>
<circle cx="1378" cy="2" r="2" fill="#56A0A9" fill-opacity="0.3"/>
<circle cx="1422" cy="2" r="2" fill="#56A0A9" fill-opacity="0.3"/>
<circle cx="14" cy="46" r="2" fill="#56A0A9" fill-opacity="0.3"/>
<circle cx="58" cy="46" r="2" fill="#56A0A9" fill-opacity="0.3"/>
<circle cx="102" cy="46" r="2" fill="#56A0A9" fill-opacity="0.3"/>
<circle cx="146" cy="46" r="2" fill="#56A0A9" fill-opacity="0.3"/>
<circle cx="190" cy="46" r="2" fill="#56A0A9" fill-opacity="0.3"/>
<circle cx="234" cy="46" r="2" fill="#56A0A9" fill-opacity="0.3"/>
<circle cx="278" cy="46" r="2" fill="#56A0A9" fill-opacity="0.3"/>
<circle cx="322" cy="46" r="2" fill="#56A0A9" fill-opacity="0.3"/>
<circle cx="366" cy="46" r="2" fill="#56A0A9" fill-opacity="0.3"/>
<circle cx="410" cy="46" r="2" fill="#56A0A9" fill-opacity="0.3"/>
<circle cx="454" cy="46" r="2" fill="#56A0A9" fill-opacity="0.3"/>
<circle cx="498" cy="46" r="2" fill="#56A0A9" fill-opacity="0.3"/>
<circle cx="542" cy="46" r="2" fill="#56A0A9" fill-opacity="0.3"/>
<circle cx="586" cy="46" r="2" fill="#56A0A9" fill-opacity="0.3"/>
<circle cx="630" cy="46" r="2" fill="#56A0A9" fill-opacity="0.3"/>
<circle cx="674" cy="46" r="2" fill="#56A0A9" fill-opacity="0.3"/>
<circle cx="718" cy="46" r="2" fill="#56A0A9" fill-opacity="0.3"/>
<circle cx="762" cy="46" r="2" fill="#56A0A9" fill-opacity="0.3"/>
<circle cx="806" cy="46" r="2" fill="#56A0A9" fill-opacity="0.3"/>
<circle cx="850" cy="46" r="2" fill="#56A0A9" fill-opacity="0.3"/>
<circle cx="894" cy="46" r="2" fill="#56A0A9" fill-opacity="0.3"/>
<circle cx="938" cy="46" r="2" fill="#56A0A9" fill-opacity="0.3"/>
<circle cx="982" cy="46" r="2" fill="#56A0A9" fill-opacity="0.3"/>
<circle cx="1026" cy="46" r="2" fill="#56A0A9" fill-opacity="0.3"/>
<circle cx="1070" cy="46" r="2" fill="#56A0A9" fill-opacity="0.3"/>
<circle cx="1114" cy="46" r="2" fill="#56A0A9" fill-opacity="0.3"/>
<circle cx="1158" cy="46" r="2" fill="#56A0A9" fill-opacity="0.3"/>
<circle cx="1202" cy="46" r="2" fill="#56A0A9" fill-opacity="0.3"/>
<circle cx="1246" cy="46" r="2" fill="#56A0A9" fill-opacity="0.3"/>
<circle cx="1290" cy="46" r="2" fill="#56A0A9" fill-opacity="0.3"/>
<circle cx="1334" cy="46" r="2" fill="#56A0A9" fill-opacity="0.3"/>
<circle cx="1378" cy="46" r="2" fill="#56A0A9" fill-opacity="0.3"/>
<circle cx="1422" cy="46" r="2" fill="#56A0A9" fill-opacity="0.3"/>
<circle cx="14" cy="90" r="2" fill="#56A0A9" fill-opacity="0.3"/>
<circle cx="58" cy="90" r="2" fill="#56A0A9" fill-opacity="0.3"/>
<circle cx="102" cy="90" r="2" fill="#56A0A9" fill-opacity="0.3"/>
<circle cx="146" cy="90" r="2" fill="#56A0A9" fill-opacity="0.3"/>
<circle cx="190" cy="90" r="2" fill="#56A0A9" fill-opacity="0.3"/>
<circle cx="234" cy="90" r="2" fill="#56A0A9" fill-opacity="0.3"/>
<circle cx="278" cy="90" r="2" fill="#56A0A9" fill-opacity="0.3"/>
<circle cx="322" cy="90" r="2" fill="#56A0A9" fill-opacity="0.3"/>
<circle cx="366" cy="90" r="2" fill="#56A0A9" fill-opacity="0.3"/>
<circle cx="410" cy="90" r="2" fill="#56A0A9" fill-opacity="0.3"/>
<circle cx="454" cy="90" r="2" fill="#56A0A9" fill-opacity="0.3"/>
<circle cx="498" cy="90" r="2" fill="#56A0A9" fill-opacity="0.3"/>
<circle cx="542" cy="90" r="2" fill="#56A0A9" fill-opacity="0.3"/>
<circle cx="586" cy="90" r="2" fill="#56A0A9" fill-opacity="0.3"/>
<circle cx="630" cy="90" r="2" fill="#56A0A9" fill-opacity="0.3"/>
<circle cx="674" cy="90" r="2" fill="#56A0A9" fill-opacity="0.3"/>
<circle cx="718" cy="90" r="2" fill="#56A0A9" fill-opacity="0.3"/>
<circle cx="762" cy="90" r="2" fill="#56A0A9" fill-opacity="0.3"/>
<circle cx="806" cy="90" r="2" fill="#56A0A9" fill-opacity="0.3"/>
<circle cx="850" cy="90" r="2" fill="#56A0A9" fill-opacity="0.3"/>
<circle cx="894" cy="90" r="2" fill="#56A0A9" fill-opacity="0.3"/>
<circle cx="938" cy="90" r="2" fill="#56A0A9" fill-opacity="0.3"/>
<circle cx="982" cy="90" r="2" fill="#56A0A9" fill-opacity="0.3"/>
<circle cx="1026" cy="90" r="2" fill="#56A0A9" fill-opacity="0.3"/>
<circle cx="1070" cy="90" r="2" fill="#56A0A9" fill-opacity="0.3"/>
<circle cx="1114" cy="90" r="2" fill="#56A0A9" fill-opacity="0.3"/>
<circle cx="1158" cy="90" r="2" fill="#56A0A9" fill-opacity="0.3"/>
<circle cx="1202" cy="90" r="2" fill="#56A0A9" fill-opacity="0.3"/>
<circle cx="1246" cy="90" r="2" fill="#56A0A9" fill-opacity="0.3"/>
<circle cx="1290" cy="90" r="2" fill="#56A0A9" fill-opacity="0.3"/>
<circle cx="1334" cy="90" r="2" fill="#56A0A9" fill-opacity="0.3"/>
<circle cx="1378" cy="90" r="2" fill="#56A0A9" fill-opacity="0.3"/>
<circle cx="1422" cy="90" r="2" fill="#56A0A9" fill-opacity="0.3"/>
<circle cx="14" cy="134" r="2" fill="#56A0A9" fill-opacity="0.3"/>
<circle cx="58" cy="134" r="2" fill="#56A0A9" fill-opacity="0.3"/>
<circle cx="102" cy="134" r="2" fill="#56A0A9" fill-opacity="0.3"/>
<circle cx="146" cy="134" r="2" fill="#56A0A9" fill-opacity="0.3"/>
<circle cx="190" cy="134" r="2" fill="#56A0A9" fill-opacity="0.3"/>
<circle cx="234" cy="134" r="2" fill="#56A0A9" fill-opacity="0.3"/>
<circle cx="278" cy="134" r="2" fill="#56A0A9" fill-opacity="0.3"/>
<circle cx="322" cy="134" r="2" fill="#56A0A9" fill-opacity="0.3"/>
<circle cx="366" cy="134" r="2" fill="#56A0A9" fill-opacity="0.3"/>
<circle cx="410" cy="134" r="2" fill="#56A0A9" fill-opacity="0.3"/>
<circle cx="454" cy="134" r="2" fill="#56A0A9" fill-opacity="0.3"/>
<circle cx="498" cy="134" r="2" fill="#56A0A9" fill-opacity="0.3"/>
<circle cx="542" cy="134" r="2" fill="#56A0A9" fill-opacity="0.3"/>
<circle cx="586" cy="134" r="2" fill="#56A0A9" fill-opacity="0.3"/>
<circle cx="630" cy="134" r="2" fill="#56A0A9" fill-opacity="0.3"/>
<circle cx="674" cy="134" r="2" fill="#56A0A9" fill-opacity="0.3"/>
<circle cx="718" cy="134" r="2" fill="#56A0A9" fill-opacity="0.3"/>
<circle cx="762" cy="134" r="2" fill="#56A0A9" fill-opacity="0.3"/>
<circle cx="806" cy="134" r="2" fill="#56A0A9" fill-opacity="0.3"/>
<circle cx="850" cy="134" r="2" fill="#56A0A9" fill-opacity="0.3"/>
<circle cx="894" cy="134" r="2" fill="#56A0A9" fill-opacity="0.3"/>
<circle cx="938" cy="134" r="2" fill="#56A0A9" fill-opacity="0.3"/>
<circle cx="982" cy="134" r="2" fill="#56A0A9" fill-opacity="0.3"/>
<circle cx="1026" cy="134" r="2" fill="#56A0A9" fill-opacity="0.3"/>
<circle cx="1070" cy="134" r="2" fill="#56A0A9" fill-opacity="0.3"/>
<circle cx="1114" cy="134" r="2" fill="#56A0A9" fill-opacity="0.3"/>
<circle cx="1158" cy="134" r="2" fill="#56A0A9" fill-opacity="0.3"/>
<circle cx="1202" cy="134" r="2" fill="#56A0A9" fill-opacity="0.3"/>
<circle cx="1246" cy="134" r="2" fill="#56A0A9" fill-opacity="0.3"/>
<circle cx="1290" cy="134" r="2" fill="#56A0A9" fill-opacity="0.3"/>
<circle cx="1334" cy="134" r="2" fill="#56A0A9" fill-opacity="0.3"/>
<circle cx="1378" cy="134" r="2" fill="#56A0A9" fill-opacity="0.3"/>
<circle cx="1422" cy="134" r="2" fill="#56A0A9" fill-opacity="0.3"/>
<circle cx="14" cy="178" r="2" fill="#56A0A9" fill-opacity="0.3"/>
<circle cx="58" cy="178" r="2" fill="#56A0A9" fill-opacity="0.3"/>
<circle cx="102" cy="178" r="2" fill="#56A0A9" fill-opacity="0.3"/>
<circle cx="146" cy="178" r="2" fill="#56A0A9" fill-opacity="0.3"/>
<circle cx="190" cy="178" r="2" fill="#56A0A9" fill-opacity="0.3"/>
<circle cx="234" cy="178" r="2" fill="#56A0A9" fill-opacity="0.3"/>
<circle cx="278" cy="178" r="2" fill="#56A0A9" fill-opacity="0.3"/>
<circle cx="322" cy="178" r="2" fill="#56A0A9" fill-opacity="0.3"/>
<circle cx="366" cy="178" r="2" fill="#56A0A9" fill-opacity="0.3"/>
<circle cx="410" cy="178" r="2" fill="#56A0A9" fill-opacity="0.3"/>
<circle cx="454" cy="178" r="2" fill="#56A0A9" fill-opacity="0.3"/>
<circle cx="498" cy="178" r="2" fill="#56A0A9" fill-opacity="0.3"/>
<circle cx="542" cy="178" r="2" fill="#56A0A9" fill-opacity="0.3"/>
<circle cx="586" cy="178" r="2" fill="#56A0A9" fill-opacity="0.3"/>
<circle cx="630" cy="178" r="2" fill="#56A0A9" fill-opacity="0.3"/>
<circle cx="674" cy="178" r="2" fill="#56A0A9" fill-opacity="0.3"/>
<circle cx="718" cy="178" r="2" fill="#56A0A9" fill-opacity="0.3"/>
<circle cx="762" cy="178" r="2" fill="#56A0A9" fill-opacity="0.3"/>
<circle cx="806" cy="178" r="2" fill="#56A0A9" fill-opacity="0.3"/>
<circle cx="850" cy="178" r="2" fill="#56A0A9" fill-opacity="0.3"/>
<circle cx="894" cy="178" r="2" fill="#56A0A9" fill-opacity="0.3"/>
<circle cx="938" cy="178" r="2" fill="#56A0A9" fill-opacity="0.3"/>
<circle cx="982" cy="178" r="2" fill="#56A0A9" fill-opacity="0.3"/>
<circle cx="1026" cy="178" r="2" fill="#56A0A9" fill-opacity="0.3"/>
<circle cx="1070" cy="178" r="2" fill="#56A0A9" fill-opacity="0.3"/>
<circle cx="1114" cy="178" r="2" fill="#56A0A9" fill-opacity="0.3"/>
<circle cx="1158" cy="178" r="2" fill="#56A0A9" fill-opacity="0.3"/>
<circle cx="1202" cy="178" r="2" fill="#56A0A9" fill-opacity="0.3"/>
<circle cx="1246" cy="178" r="2" fill="#56A0A9" fill-opacity="0.3"/>
<circle cx="1290" cy="178" r="2" fill="#56A0A9" fill-opacity="0.3"/>
<circle cx="1334" cy="178" r="2" fill="#56A0A9" fill-opacity="0.3"/>
<circle cx="1378" cy="178" r="2" fill="#56A0A9" fill-opacity="0.3"/>
<circle cx="1422" cy="178" r="2" fill="#56A0A9" fill-opacity="0.3"/>
<circle cx="14" cy="222" r="2" fill="#56A0A9" fill-opacity="0.3"/>
<circle cx="58" cy="222" r="2" fill="#56A0A9" fill-opacity="0.3"/>
<circle cx="102" cy="222" r="2" fill="#56A0A9" fill-opacity="0.3"/>
<circle cx="146" cy="222" r="2" fill="#56A0A9" fill-opacity="0.3"/>
<circle cx="190" cy="222" r="2" fill="#56A0A9" fill-opacity="0.3"/>
<circle cx="234" cy="222" r="2" fill="#56A0A9" fill-opacity="0.3"/>
<circle cx="278" cy="222" r="2" fill="#56A0A9" fill-opacity="0.3"/>
<circle cx="322" cy="222" r="2" fill="#56A0A9" fill-opacity="0.3"/>
<circle cx="366" cy="222" r="2" fill="#56A0A9" fill-opacity="0.3"/>
<circle cx="410" cy="222" r="2" fill="#56A0A9" fill-opacity="0.3"/>
<circle cx="454" cy="222" r="2" fill="#56A0A9" fill-opacity="0.3"/>
<circle cx="498" cy="222" r="2" fill="#56A0A9" fill-opacity="0.3"/>
<circle cx="542" cy="222" r="2" fill="#56A0A9" fill-opacity="0.3"/>
<circle cx="586" cy="222" r="2" fill="#56A0A9" fill-opacity="0.3"/>
<circle cx="630" cy="222" r="2" fill="#56A0A9" fill-opacity="0.3"/>
<circle cx="674" cy="222" r="2" fill="#56A0A9" fill-opacity="0.3"/>
<circle cx="718" cy="222" r="2" fill="#56A0A9" fill-opacity="0.3"/>
<circle cx="762" cy="222" r="2" fill="#56A0A9" fill-opacity="0.3"/>
<circle cx="806" cy="222" r="2" fill="#56A0A9" fill-opacity="0.3"/>
<circle cx="850" cy="222" r="2" fill="#56A0A9" fill-opacity="0.3"/>
<circle cx="894" cy="222" r="2" fill="#56A0A9" fill-opacity="0.3"/>
<circle cx="938" cy="222" r="2" fill="#56A0A9" fill-opacity="0.3"/>
<circle cx="982" cy="222" r="2" fill="#56A0A9" fill-opacity="0.3"/>
<circle cx="1026" cy="222" r="2" fill="#56A0A9" fill-opacity="0.3"/>
<circle cx="1070" cy="222" r="2" fill="#56A0A9" fill-opacity="0.3"/>
<circle cx="1114" cy="222" r="2" fill="#56A0A9" fill-opacity="0.3"/>
<circle cx="1158" cy="222" r="2" fill="#56A0A9" fill-opacity="0.3"/>
<circle cx="1202" cy="222" r="2" fill="#56A0A9" fill-opacity="0.3"/>
<circle cx="1246" cy="222" r="2" fill="#56A0A9" fill-opacity="0.3"/>
<circle cx="1290" cy="222" r="2" fill="#56A0A9" fill-opacity="0.3"/>
<circle cx="1334" cy="222" r="2" fill="#56A0A9" fill-opacity="0.3"/>
<circle cx="1378" cy="222" r="2" fill="#56A0A9" fill-opacity="0.3"/>
<circle cx="1422" cy="222" r="2" fill="#56A0A9" fill-opacity="0.3"/>
<circle cx="14" cy="266" r="2" fill="#56A0A9" fill-opacity="0.3"/>
<circle cx="58" cy="266" r="2" fill="#56A0A9" fill-opacity="0.3"/>
<circle cx="102" cy="266" r="2" fill="#56A0A9" fill-opacity="0.3"/>
<circle cx="146" cy="266" r="2" fill="#56A0A9" fill-opacity="0.3"/>
<circle cx="190" cy="266" r="2" fill="#56A0A9" fill-opacity="0.3"/>
<circle cx="234" cy="266" r="2" fill="#56A0A9" fill-opacity="0.3"/>
<circle cx="278" cy="266" r="2" fill="#56A0A9" fill-opacity="0.3"/>
<circle cx="322" cy="266" r="2" fill="#56A0A9" fill-opacity="0.3"/>
<circle cx="366" cy="266" r="2" fill="#56A0A9" fill-opacity="0.3"/>
<circle cx="410" cy="266" r="2" fill="#56A0A9" fill-opacity="0.3"/>
<circle cx="454" cy="266" r="2" fill="#56A0A9" fill-opacity="0.3"/>
<circle cx="498" cy="266" r="2" fill="#56A0A9" fill-opacity="0.3"/>
<circle cx="542" cy="266" r="2" fill="#56A0A9" fill-opacity="0.3"/>
<circle cx="586" cy="266" r="2" fill="#56A0A9" fill-opacity="0.3"/>
<circle cx="630" cy="266" r="2" fill="#56A0A9" fill-opacity="0.3"/>
<circle cx="674" cy="266" r="2" fill="#56A0A9" fill-opacity="0.3"/>
<circle cx="718" cy="266" r="2" fill="#56A0A9" fill-opacity="0.3"/>
<circle cx="762" cy="266" r="2" fill="#56A0A9" fill-opacity="0.3"/>
<circle cx="806" cy="266" r="2" fill="#56A0A9" fill-opacity="0.3"/>
<circle cx="850" cy="266" r="2" fill="#56A0A9" fill-opacity="0.3"/>
<circle cx="894" cy="266" r="2" fill="#56A0A9" fill-opacity="0.3"/>
<circle cx="938" cy="266" r="2" fill="#56A0A9" fill-opacity="0.3"/>
<circle cx="982" cy="266" r="2" fill="#56A0A9" fill-opacity="0.3"/>
<circle cx="1026" cy="266" r="2" fill="#56A0A9" fill-opacity="0.3"/>
<circle cx="1070" cy="266" r="2" fill="#56A0A9" fill-opacity="0.3"/>
<circle cx="1114" cy="266" r="2" fill="#56A0A9" fill-opacity="0.3"/>
<circle cx="1158" cy="266" r="2" fill="#56A0A9" fill-opacity="0.3"/>
<circle cx="1202" cy="266" r="2" fill="#56A0A9" fill-opacity="0.3"/>
<circle cx="1246" cy="266" r="2" fill="#56A0A9" fill-opacity="0.3"/>
<circle cx="1290" cy="266" r="2" fill="#56A0A9" fill-opacity="0.3"/>
<circle cx="1334" cy="266" r="2" fill="#56A0A9" fill-opacity="0.3"/>
<circle cx="1378" cy="266" r="2" fill="#56A0A9" fill-opacity="0.3"/>
<circle cx="1422" cy="266" r="2" fill="#56A0A9" fill-opacity="0.3"/>
<circle cx="14" cy="310" r="2" fill="#56A0A9" fill-opacity="0.3"/>
<circle cx="58" cy="310" r="2" fill="#56A0A9" fill-opacity="0.3"/>
<circle cx="102" cy="310" r="2" fill="#56A0A9" fill-opacity="0.3"/>
<circle cx="146" cy="310" r="2" fill="#56A0A9" fill-opacity="0.3"/>
<circle cx="190" cy="310" r="2" fill="#56A0A9" fill-opacity="0.3"/>
<circle cx="234" cy="310" r="2" fill="#56A0A9" fill-opacity="0.3"/>
<circle cx="278" cy="310" r="2" fill="#56A0A9" fill-opacity="0.3"/>
<circle cx="322" cy="310" r="2" fill="#56A0A9" fill-opacity="0.3"/>
<circle cx="366" cy="310" r="2" fill="#56A0A9" fill-opacity="0.3"/>
<circle cx="410" cy="310" r="2" fill="#56A0A9" fill-opacity="0.3"/>
<circle cx="454" cy="310" r="2" fill="#56A0A9" fill-opacity="0.3"/>
<circle cx="498" cy="310" r="2" fill="#56A0A9" fill-opacity="0.3"/>
<circle cx="542" cy="310" r="2" fill="#56A0A9" fill-opacity="0.3"/>
<circle cx="586" cy="310" r="2" fill="#56A0A9" fill-opacity="0.3"/>
<circle cx="630" cy="310" r="2" fill="#56A0A9" fill-opacity="0.3"/>
<circle cx="674" cy="310" r="2" fill="#56A0A9" fill-opacity="0.3"/>
<circle cx="718" cy="310" r="2" fill="#56A0A9" fill-opacity="0.3"/>
<circle cx="762" cy="310" r="2" fill="#56A0A9" fill-opacity="0.3"/>
<circle cx="806" cy="310" r="2" fill="#56A0A9" fill-opacity="0.3"/>
<circle cx="850" cy="310" r="2" fill="#56A0A9" fill-opacity="0.3"/>
<circle cx="894" cy="310" r="2" fill="#56A0A9" fill-opacity="0.3"/>
<circle cx="938" cy="310" r="2" fill="#56A0A9" fill-opacity="0.3"/>
<circle cx="982" cy="310" r="2" fill="#56A0A9" fill-opacity="0.3"/>
<circle cx="1026" cy="310" r="2" fill="#56A0A9" fill-opacity="0.3"/>
<circle cx="1070" cy="310" r="2" fill="#56A0A9" fill-opacity="0.3"/>
<circle cx="1114" cy="310" r="2" fill="#56A0A9" fill-opacity="0.3"/>
<circle cx="1158" cy="310" r="2" fill="#56A0A9" fill-opacity="0.3"/>
<circle cx="1202" cy="310" r="2" fill="#56A0A9" fill-opacity="0.3"/>
<circle cx="1246" cy="310" r="2" fill="#56A0A9" fill-opacity="0.3"/>
<circle cx="1290" cy="310" r="2" fill="#56A0A9" fill-opacity="0.3"/>
<circle cx="1334" cy="310" r="2" fill="#56A0A9" fill-opacity="0.3"/>
<circle cx="1378" cy="310" r="2" fill="#56A0A9" fill-opacity="0.3"/>
<circle cx="1422" cy="310" r="2" fill="#56A0A9" fill-opacity="0.3"/>
<circle cx="14" cy="354" r="2" fill="#56A0A9" fill-opacity="0.3"/>
<circle cx="58" cy="354" r="2" fill="#56A0A9" fill-opacity="0.3"/>
<circle cx="102" cy="354" r="2" fill="#56A0A9" fill-opacity="0.3"/>
<circle cx="146" cy="354" r="2" fill="#56A0A9" fill-opacity="0.3"/>
<circle cx="190" cy="354" r="2" fill="#56A0A9" fill-opacity="0.3"/>
<circle cx="234" cy="354" r="2" fill="#56A0A9" fill-opacity="0.3"/>
<circle cx="278" cy="354" r="2" fill="#56A0A9" fill-opacity="0.3"/>
<circle cx="322" cy="354" r="2" fill="#56A0A9" fill-opacity="0.3"/>
<circle cx="366" cy="354" r="2" fill="#56A0A9" fill-opacity="0.3"/>
<circle cx="410" cy="354" r="2" fill="#56A0A9" fill-opacity="0.3"/>
<circle cx="454" cy="354" r="2" fill="#56A0A9" fill-opacity="0.3"/>
<circle cx="498" cy="354" r="2" fill="#56A0A9" fill-opacity="0.3"/>
<circle cx="542" cy="354" r="2" fill="#56A0A9" fill-opacity="0.3"/>
<circle cx="586" cy="354" r="2" fill="#56A0A9" fill-opacity="0.3"/>
<circle cx="630" cy="354" r="2" fill="#56A0A9" fill-opacity="0.3"/>
<circle cx="674" cy="354" r="2" fill="#56A0A9" fill-opacity="0.3"/>
<circle cx="718" cy="354" r="2" fill="#56A0A9" fill-opacity="0.3"/>
<circle cx="762" cy="354" r="2" fill="#56A0A9" fill-opacity="0.3"/>
<circle cx="806" cy="354" r="2" fill="#56A0A9" fill-opacity="0.3"/>
<circle cx="850" cy="354" r="2" fill="#56A0A9" fill-opacity="0.3"/>
<circle cx="894" cy="354" r="2" fill="#56A0A9" fill-opacity="0.3"/>
<circle cx="938" cy="354" r="2" fill="#56A0A9" fill-opacity="0.3"/>
<circle cx="982" cy="354" r="2" fill="#56A0A9" fill-opacity="0.3"/>
<circle cx="1026" cy="354" r="2" fill="#56A0A9" fill-opacity="0.3"/>
<circle cx="1070" cy="354" r="2" fill="#56A0A9" fill-opacity="0.3"/>
<circle cx="1114" cy="354" r="2" fill="#56A0A9" fill-opacity="0.3"/>
<circle cx="1158" cy="354" r="2" fill="#56A0A9" fill-opacity="0.3"/>
<circle cx="1202" cy="354" r="2" fill="#56A0A9" fill-opacity="0.3"/>
<circle cx="1246" cy="354" r="2" fill="#56A0A9" fill-opacity="0.3"/>
<circle cx="1290" cy="354" r="2" fill="#56A0A9" fill-opacity="0.3"/>
<circle cx="1334" cy="354" r="2" fill="#56A0A9" fill-opacity="0.3"/>
<circle cx="1378" cy="354" r="2" fill="#56A0A9" fill-opacity="0.3"/>
<circle cx="1422" cy="354" r="2" fill="#56A0A9" fill-opacity="0.3"/>
<circle cx="14" cy="398" r="2" fill="#56A0A9" fill-opacity="0.3"/>
<circle cx="58" cy="398" r="2" fill="#56A0A9" fill-opacity="0.3"/>
<circle cx="102" cy="398" r="2" fill="#56A0A9" fill-opacity="0.3"/>
<circle cx="146" cy="398" r="2" fill="#56A0A9" fill-opacity="0.3"/>
<circle cx="190" cy="398" r="2" fill="#56A0A9" fill-opacity="0.3"/>
<circle cx="234" cy="398" r="2" fill="#56A0A9" fill-opacity="0.3"/>
<circle cx="278" cy="398" r="2" fill="#56A0A9" fill-opacity="0.3"/>
<circle cx="322" cy="398" r="2" fill="#56A0A9" fill-opacity="0.3"/>
<circle cx="366" cy="398" r="2" fill="#56A0A9" fill-opacity="0.3"/>
<circle cx="410" cy="398" r="2" fill="#56A0A9" fill-opacity="0.3"/>
<circle cx="454" cy="398" r="2" fill="#56A0A9" fill-opacity="0.3"/>
<circle cx="498" cy="398" r="2" fill="#56A0A9" fill-opacity="0.3"/>
<circle cx="542" cy="398" r="2" fill="#56A0A9" fill-opacity="0.3"/>
<circle cx="586" cy="398" r="2" fill="#56A0A9" fill-opacity="0.3"/>
<circle cx="630" cy="398" r="2" fill="#56A0A9" fill-opacity="0.3"/>
<circle cx="674" cy="398" r="2" fill="#56A0A9" fill-opacity="0.3"/>
<circle cx="718" cy="398" r="2" fill="#56A0A9" fill-opacity="0.3"/>
<circle cx="762" cy="398" r="2" fill="#56A0A9" fill-opacity="0.3"/>
<circle cx="806" cy="398" r="2" fill="#56A0A9" fill-opacity="0.3"/>
<circle cx="850" cy="398" r="2" fill="#56A0A9" fill-opacity="0.3"/>
<circle cx="894" cy="398" r="2" fill="#56A0A9" fill-opacity="0.3"/>
<circle cx="938" cy="398" r="2" fill="#56A0A9" fill-opacity="0.3"/>
<circle cx="982" cy="398" r="2" fill="#56A0A9" fill-opacity="0.3"/>
<circle cx="1026" cy="398" r="2" fill="#56A0A9" fill-opacity="0.3"/>
<circle cx="1070" cy="398" r="2" fill="#56A0A9" fill-opacity="0.3"/>
<circle cx="1114" cy="398" r="2" fill="#56A0A9" fill-opacity="0.3"/>
<circle cx="1158" cy="398" r="2" fill="#56A0A9" fill-opacity="0.3"/>
<circle cx="1202" cy="398" r="2" fill="#56A0A9" fill-opacity="0.3"/>
<circle cx="1246" cy="398" r="2" fill="#56A0A9" fill-opacity="0.3"/>
<circle cx="1290" cy="398" r="2" fill="#56A0A9" fill-opacity="0.3"/>
<circle cx="1334" cy="398" r="2" fill="#56A0A9" fill-opacity="0.3"/>
<circle cx="1378" cy="398" r="2" fill="#56A0A9" fill-opacity="0.3"/>
<circle cx="1422" cy="398" r="2" fill="#56A0A9" fill-opacity="0.3"/>
<circle cx="14" cy="442" r="2" fill="#56A0A9" fill-opacity="0.3"/>
<circle cx="58" cy="442" r="2" fill="#56A0A9" fill-opacity="0.3"/>
<circle cx="102" cy="442" r="2" fill="#56A0A9" fill-opacity="0.3"/>
<circle cx="146" cy="442" r="2" fill="#56A0A9" fill-opacity="0.3"/>
<circle cx="190" cy="442" r="2" fill="#56A0A9" fill-opacity="0.3"/>
<circle cx="234" cy="442" r="2" fill="#56A0A9" fill-opacity="0.3"/>
<circle cx="278" cy="442" r="2" fill="#56A0A9" fill-opacity="0.3"/>
<circle cx="322" cy="442" r="2" fill="#56A0A9" fill-opacity="0.3"/>
<circle cx="366" cy="442" r="2" fill="#56A0A9" fill-opacity="0.3"/>
<circle cx="410" cy="442" r="2" fill="#56A0A9" fill-opacity="0.3"/>
<circle cx="454" cy="442" r="2" fill="#56A0A9" fill-opacity="0.3"/>
<circle cx="498" cy="442" r="2" fill="#56A0A9" fill-opacity="0.3"/>
<circle cx="542" cy="442" r="2" fill="#56A0A9" fill-opacity="0.3"/>
<circle cx="586" cy="442" r="2" fill="#56A0A9" fill-opacity="0.3"/>
<circle cx="630" cy="442" r="2" fill="#56A0A9" fill-opacity="0.3"/>
<circle cx="674" cy="442" r="2" fill="#56A0A9" fill-opacity="0.3"/>
<circle cx="718" cy="442" r="2" fill="#56A0A9" fill-opacity="0.3"/>
<circle cx="762" cy="442" r="2" fill="#56A0A9" fill-opacity="0.3"/>
<circle cx="806" cy="442" r="2" fill="#56A0A9" fill-opacity="0.3"/>
<circle cx="850" cy="442" r="2" fill="#56A0A9" fill-opacity="0.3"/>
<circle cx="894" cy="442" r="2" fill="#56A0A9" fill-opacity="0.3"/>
<circle cx="938" cy="442" r="2" fill="#56A0A9" fill-opacity="0.3"/>
<circle cx="982" cy="442" r="2" fill="#56A0A9" fill-opacity="0.3"/>
<circle cx="1026" cy="442" r="2" fill="#56A0A9" fill-opacity="0.3"/>
<circle cx="1070" cy="442" r="2" fill="#56A0A9" fill-opacity="0.3"/>
<circle cx="1114" cy="442" r="2" fill="#56A0A9" fill-opacity="0.3"/>
<circle cx="1158" cy="442" r="2" fill="#56A0A9" fill-opacity="0.3"/>
<circle cx="1202" cy="442" r="2" fill="#56A0A9" fill-opacity="0.3"/>
<circle cx="1246" cy="442" r="2" fill="#56A0A9" fill-opacity="0.3"/>
<circle cx="1290" cy="442" r="2" fill="#56A0A9" fill-opacity="0.3"/>
<circle cx="1334" cy="442" r="2" fill="#56A0A9" fill-opacity="0.3"/>
<circle cx="1378" cy="442" r="2" fill="#56A0A9" fill-opacity="0.3"/>
<circle cx="1422" cy="442" r="2" fill="#56A0A9" fill-opacity="0.3"/>
<circle cx="14" cy="486" r="2" fill="#56A0A9" fill-opacity="0.3"/>
<circle cx="58" cy="486" r="2" fill="#56A0A9" fill-opacity="0.3"/>
<circle cx="102" cy="486" r="2" fill="#56A0A9" fill-opacity="0.3"/>
<circle cx="146" cy="486" r="2" fill="#56A0A9" fill-opacity="0.3"/>
<circle cx="190" cy="486" r="2" fill="#56A0A9" fill-opacity="0.3"/>
<circle cx="234" cy="486" r="2" fill="#56A0A9" fill-opacity="0.3"/>
<circle cx="278" cy="486" r="2" fill="#56A0A9" fill-opacity="0.3"/>
<circle cx="322" cy="486" r="2" fill="#56A0A9" fill-opacity="0.3"/>
<circle cx="366" cy="486" r="2" fill="#56A0A9" fill-opacity="0.3"/>
<circle cx="410" cy="486" r="2" fill="#56A0A9" fill-opacity="0.3"/>
<circle cx="454" cy="486" r="2" fill="#56A0A9" fill-opacity="0.3"/>
<circle cx="498" cy="486" r="2" fill="#56A0A9" fill-opacity="0.3"/>
<circle cx="542" cy="486" r="2" fill="#56A0A9" fill-opacity="0.3"/>
<circle cx="586" cy="486" r="2" fill="#56A0A9" fill-opacity="0.3"/>
<circle cx="630" cy="486" r="2" fill="#56A0A9" fill-opacity="0.3"/>
<circle cx="674" cy="486" r="2" fill="#56A0A9" fill-opacity="0.3"/>
<circle cx="718" cy="486" r="2" fill="#56A0A9" fill-opacity="0.3"/>
<circle cx="762" cy="486" r="2" fill="#56A0A9" fill-opacity="0.3"/>
<circle cx="806" cy="486" r="2" fill="#56A0A9" fill-opacity="0.3"/>
<circle cx="850" cy="486" r="2" fill="#56A0A9" fill-opacity="0.3"/>
<circle cx="894" cy="486" r="2" fill="#56A0A9" fill-opacity="0.3"/>
<circle cx="938" cy="486" r="2" fill="#56A0A9" fill-opacity="0.3"/>
<circle cx="982" cy="486" r="2" fill="#56A0A9" fill-opacity="0.3"/>
<circle cx="1026" cy="486" r="2" fill="#56A0A9" fill-opacity="0.3"/>
<circle cx="1070" cy="486" r="2" fill="#56A0A9" fill-opacity="0.3"/>
<circle cx="1114" cy="486" r="2" fill="#56A0A9" fill-opacity="0.3"/>
<circle cx="1158" cy="486" r="2" fill="#56A0A9" fill-opacity="0.3"/>
<circle cx="1202" cy="486" r="2" fill="#56A0A9" fill-opacity="0.3"/>
<circle cx="1246" cy="486" r="2" fill="#56A0A9" fill-opacity="0.3"/>
<circle cx="1290" cy="486" r="2" fill="#56A0A9" fill-opacity="0.3"/>
<circle cx="1334" cy="486" r="2" fill="#56A0A9" fill-opacity="0.3"/>
<circle cx="1378" cy="486" r="2" fill="#56A0A9" fill-opacity="0.3"/>
<circle cx="1422" cy="486" r="2" fill="#56A0A9" fill-opacity="0.3"/>
<circle cx="14" cy="530" r="2" fill="#56A0A9" fill-opacity="0.3"/>
<circle cx="58" cy="530" r="2" fill="#56A0A9" fill-opacity="0.3"/>
<circle cx="102" cy="530" r="2" fill="#56A0A9" fill-opacity="0.3"/>
<circle cx="146" cy="530" r="2" fill="#56A0A9" fill-opacity="0.3"/>
<circle cx="190" cy="530" r="2" fill="#56A0A9" fill-opacity="0.3"/>
<circle cx="234" cy="530" r="2" fill="#56A0A9" fill-opacity="0.3"/>
<circle cx="278" cy="530" r="2" fill="#56A0A9" fill-opacity="0.3"/>
<circle cx="322" cy="530" r="2" fill="#56A0A9" fill-opacity="0.3"/>
<circle cx="366" cy="530" r="2" fill="#56A0A9" fill-opacity="0.3"/>
<circle cx="410" cy="530" r="2" fill="#56A0A9" fill-opacity="0.3"/>
<circle cx="454" cy="530" r="2" fill="#56A0A9" fill-opacity="0.3"/>
<circle cx="498" cy="530" r="2" fill="#56A0A9" fill-opacity="0.3"/>
<circle cx="542" cy="530" r="2" fill="#56A0A9" fill-opacity="0.3"/>
<circle cx="586" cy="530" r="2" fill="#56A0A9" fill-opacity="0.3"/>
<circle cx="630" cy="530" r="2" fill="#56A0A9" fill-opacity="0.3"/>
<circle cx="674" cy="530" r="2" fill="#56A0A9" fill-opacity="0.3"/>
<circle cx="718" cy="530" r="2" fill="#56A0A9" fill-opacity="0.3"/>
<circle cx="762" cy="530" r="2" fill="#56A0A9" fill-opacity="0.3"/>
<circle cx="806" cy="530" r="2" fill="#56A0A9" fill-opacity="0.3"/>
<circle cx="850" cy="530" r="2" fill="#56A0A9" fill-opacity="0.3"/>
<circle cx="894" cy="530" r="2" fill="#56A0A9" fill-opacity="0.3"/>
<circle cx="938" cy="530" r="2" fill="#56A0A9" fill-opacity="0.3"/>
<circle cx="982" cy="530" r="2" fill="#56A0A9" fill-opacity="0.3"/>
<circle cx="1026" cy="530" r="2" fill="#56A0A9" fill-opacity="0.3"/>
<circle cx="1070" cy="530" r="2" fill="#56A0A9" fill-opacity="0.3"/>
<circle cx="1114" cy="530" r="2" fill="#56A0A9" fill-opacity="0.3"/>
<circle cx="1158" cy="530" r="2" fill="#56A0A9" fill-opacity="0.3"/>
<circle cx="1202" cy="530" r="2" fill="#56A0A9" fill-opacity="0.3"/>
<circle cx="1246" cy="530" r="2" fill="#56A0A9" fill-opacity="0.3"/>
<circle cx="1290" cy="530" r="2" fill="#56A0A9" fill-opacity="0.3"/>
<circle cx="1334" cy="530" r="2" fill="#56A0A9" fill-opacity="0.3"/>
<circle cx="1378" cy="530" r="2" fill="#56A0A9" fill-opacity="0.3"/>
<circle cx="1422" cy="530" r="2" fill="#56A0A9" fill-opacity="0.3"/>
<circle cx="14" cy="574" r="2" fill="#56A0A9" fill-opacity="0.3"/>
<circle cx="58" cy="574" r="2" fill="#56A0A9" fill-opacity="0.3"/>
<circle cx="102" cy="574" r="2" fill="#56A0A9" fill-opacity="0.3"/>
<circle cx="146" cy="574" r="2" fill="#56A0A9" fill-opacity="0.3"/>
<circle cx="190" cy="574" r="2" fill="#56A0A9" fill-opacity="0.3"/>
<circle cx="234" cy="574" r="2" fill="#56A0A9" fill-opacity="0.3"/>
<circle cx="278" cy="574" r="2" fill="#56A0A9" fill-opacity="0.3"/>
<circle cx="322" cy="574" r="2" fill="#56A0A9" fill-opacity="0.3"/>
<circle cx="366" cy="574" r="2" fill="#56A0A9" fill-opacity="0.3"/>
<circle cx="410" cy="574" r="2" fill="#56A0A9" fill-opacity="0.3"/>
<circle cx="454" cy="574" r="2" fill="#56A0A9" fill-opacity="0.3"/>
<circle cx="498" cy="574" r="2" fill="#56A0A9" fill-opacity="0.3"/>
<circle cx="542" cy="574" r="2" fill="#56A0A9" fill-opacity="0.3"/>
<circle cx="586" cy="574" r="2" fill="#56A0A9" fill-opacity="0.3"/>
<circle cx="630" cy="574" r="2" fill="#56A0A9" fill-opacity="0.3"/>
<circle cx="674" cy="574" r="2" fill="#56A0A9" fill-opacity="0.3"/>
<circle cx="718" cy="574" r="2" fill="#56A0A9" fill-opacity="0.3"/>
<circle cx="762" cy="574" r="2" fill="#56A0A9" fill-opacity="0.3"/>
<circle cx="806" cy="574" r="2" fill="#56A0A9" fill-opacity="0.3"/>
<circle cx="850" cy="574" r="2" fill="#56A0A9" fill-opacity="0.3"/>
<circle cx="894" cy="574" r="2" fill="#56A0A9" fill-opacity="0.3"/>
<circle cx="938" cy="574" r="2" fill="#56A0A9" fill-opacity="0.3"/>
<circle cx="982" cy="574" r="2" fill="#56A0A9" fill-opacity="0.3"/>
<circle cx="1026" cy="574" r="2" fill="#56A0A9" fill-opacity="0.3"/>
<circle cx="1070" cy="574" r="2" fill="#56A0A9" fill-opacity="0.3"/>
<circle cx="1114" cy="574" r="2" fill="#56A0A9" fill-opacity="0.3"/>
<circle cx="1158" cy="574" r="2" fill="#56A0A9" fill-opacity="0.3"/>
<circle cx="1202" cy="574" r="2" fill="#56A0A9" fill-opacity="0.3"/>
<circle cx="1246" cy="574" r="2" fill="#56A0A9" fill-opacity="0.3"/>
<circle cx="1290" cy="574" r="2" fill="#56A0A9" fill-opacity="0.3"/>
<circle cx="1334" cy="574" r="2" fill="#56A0A9" fill-opacity="0.3"/>
<circle cx="1378" cy="574" r="2" fill="#56A0A9" fill-opacity="0.3"/>
<circle cx="1422" cy="574" r="2" fill="#56A0A9" fill-opacity="0.3"/>
<circle cx="14" cy="618" r="2" fill="#56A0A9" fill-opacity="0.3"/>
<circle cx="58" cy="618" r="2" fill="#56A0A9" fill-opacity="0.3"/>
<circle cx="102" cy="618" r="2" fill="#56A0A9" fill-opacity="0.3"/>
<circle cx="146" cy="618" r="2" fill="#56A0A9" fill-opacity="0.3"/>
<circle cx="190" cy="618" r="2" fill="#56A0A9" fill-opacity="0.3"/>
<circle cx="234" cy="618" r="2" fill="#56A0A9" fill-opacity="0.3"/>
<circle cx="278" cy="618" r="2" fill="#56A0A9" fill-opacity="0.3"/>
<circle cx="322" cy="618" r="2" fill="#56A0A9" fill-opacity="0.3"/>
<circle cx="366" cy="618" r="2" fill="#56A0A9" fill-opacity="0.3"/>
<circle cx="410" cy="618" r="2" fill="#56A0A9" fill-opacity="0.3"/>
<circle cx="454" cy="618" r="2" fill="#56A0A9" fill-opacity="0.3"/>
<circle cx="498" cy="618" r="2" fill="#56A0A9" fill-opacity="0.3"/>
<circle cx="542" cy="618" r="2" fill="#56A0A9" fill-opacity="0.3"/>
<circle cx="586" cy="618" r="2" fill="#56A0A9" fill-opacity="0.3"/>
<circle cx="630" cy="618" r="2" fill="#56A0A9" fill-opacity="0.3"/>
<circle cx="674" cy="618" r="2" fill="#56A0A9" fill-opacity="0.3"/>
<circle cx="718" cy="618" r="2" fill="#56A0A9" fill-opacity="0.3"/>
<circle cx="762" cy="618" r="2" fill="#56A0A9" fill-opacity="0.3"/>
<circle cx="806" cy="618" r="2" fill="#56A0A9" fill-opacity="0.3"/>
<circle cx="850" cy="618" r="2" fill="#56A0A9" fill-opacity="0.3"/>
<circle cx="894" cy="618" r="2" fill="#56A0A9" fill-opacity="0.3"/>
<circle cx="938" cy="618" r="2" fill="#56A0A9" fill-opacity="0.3"/>
<circle cx="982" cy="618" r="2" fill="#56A0A9" fill-opacity="0.3"/>
<circle cx="1026" cy="618" r="2" fill="#56A0A9" fill-opacity="0.3"/>
<circle cx="1070" cy="618" r="2" fill="#56A0A9" fill-opacity="0.3"/>
<circle cx="1114" cy="618" r="2" fill="#56A0A9" fill-opacity="0.3"/>
<circle cx="1158" cy="618" r="2" fill="#56A0A9" fill-opacity="0.3"/>
<circle cx="1202" cy="618" r="2" fill="#56A0A9" fill-opacity="0.3"/>
<circle cx="1246" cy="618" r="2" fill="#56A0A9" fill-opacity="0.3"/>
<circle cx="1290" cy="618" r="2" fill="#56A0A9" fill-opacity="0.3"/>
<circle cx="1334" cy="618" r="2" fill="#56A0A9" fill-opacity="0.3"/>
<circle cx="1378" cy="618" r="2" fill="#56A0A9" fill-opacity="0.3"/>
<circle cx="1422" cy="618" r="2" fill="#56A0A9" fill-opacity="0.3"/>
<circle cx="14" cy="662" r="2" fill="#56A0A9" fill-opacity="0.3"/>
<circle cx="58" cy="662" r="2" fill="#56A0A9" fill-opacity="0.3"/>
<circle cx="102" cy="662" r="2" fill="#56A0A9" fill-opacity="0.3"/>
<circle cx="146" cy="662" r="2" fill="#56A0A9" fill-opacity="0.3"/>
<circle cx="190" cy="662" r="2" fill="#56A0A9" fill-opacity="0.3"/>
<circle cx="234" cy="662" r="2" fill="#56A0A9" fill-opacity="0.3"/>
<circle cx="278" cy="662" r="2" fill="#56A0A9" fill-opacity="0.3"/>
<circle cx="322" cy="662" r="2" fill="#56A0A9" fill-opacity="0.3"/>
<circle cx="366" cy="662" r="2" fill="#56A0A9" fill-opacity="0.3"/>
<circle cx="410" cy="662" r="2" fill="#56A0A9" fill-opacity="0.3"/>
<circle cx="454" cy="662" r="2" fill="#56A0A9" fill-opacity="0.3"/>
<circle cx="498" cy="662" r="2" fill="#56A0A9" fill-opacity="0.3"/>
<circle cx="542" cy="662" r="2" fill="#56A0A9" fill-opacity="0.3"/>
<circle cx="586" cy="662" r="2" fill="#56A0A9" fill-opacity="0.3"/>
<circle cx="630" cy="662" r="2" fill="#56A0A9" fill-opacity="0.3"/>
<circle cx="674" cy="662" r="2" fill="#56A0A9" fill-opacity="0.3"/>
<circle cx="718" cy="662" r="2" fill="#56A0A9" fill-opacity="0.3"/>
<circle cx="762" cy="662" r="2" fill="#56A0A9" fill-opacity="0.3"/>
<circle cx="806" cy="662" r="2" fill="#56A0A9" fill-opacity="0.3"/>
<circle cx="850" cy="662" r="2" fill="#56A0A9" fill-opacity="0.3"/>
<circle cx="894" cy="662" r="2" fill="#56A0A9" fill-opacity="0.3"/>
<circle cx="938" cy="662" r="2" fill="#56A0A9" fill-opacity="0.3"/>
<circle cx="982" cy="662" r="2" fill="#56A0A9" fill-opacity="0.3"/>
<circle cx="1026" cy="662" r="2" fill="#56A0A9" fill-opacity="0.3"/>
<circle cx="1070" cy="662" r="2" fill="#56A0A9" fill-opacity="0.3"/>
<circle cx="1114" cy="662" r="2" fill="#56A0A9" fill-opacity="0.3"/>
<circle cx="1158" cy="662" r="2" fill="#56A0A9" fill-opacity="0.3"/>
<circle cx="1202" cy="662" r="2" fill="#56A0A9" fill-opacity="0.3"/>
<circle cx="1246" cy="662" r="2" fill="#56A0A9" fill-opacity="0.3"/>
<circle cx="1290" cy="662" r="2" fill="#56A0A9" fill-opacity="0.3"/>
<circle cx="1334" cy="662" r="2" fill="#56A0A9" fill-opacity="0.3"/>
<circle cx="1378" cy="662" r="2" fill="#56A0A9" fill-opacity="0.3"/>
<circle cx="1422" cy="662" r="2" fill="#56A0A9" fill-opacity="0.3"/>
</g>
<defs>
<clipPath id="clip0_128_3944">
<rect width="1440" height="700" fill="white"/>
</clipPath>
</defs>
</svg>
