<svg width="1200" height="614" viewBox="0 0 1200 614" fill="none" xmlns="http://www.w3.org/2000/svg">
<rect width="960" height="24" transform="translate(120 590)" fill="#0085FF" fill-opacity="0.04"/>
<path d="M120 601.444L122.087 601.568L124.174 600.698L126.261 600.822L128.348 601.941L130.435 602.065L132.522 598.586L134.609 598.213L136.696 598.089L138.783 598.213L142.957 597.964L145.043 598.337L147.13 596.97L149.217 596.722L151.304 596.846L153.391 595.231L155.478 593.74L157.565 596.722L159.652 597.467L161.739 595.976L163.826 596.722L165.913 599.456L168 600.947L170.087 600.822L172.174 601.444L174.261 599.953L176.348 602.065L178.435 600.822L180.522 602.065L182.609 601.941L184.696 600.947L186.783 600.822L188.87 599.083L190.957 596.225L193.043 595.852L195.13 595.728L197.217 595.852L199.304 594.734L201.391 594.858L203.478 594.112L205.565 596.101L207.652 594.237L209.739 592.497L211.826 592.373L213.913 593.864L218.087 594.112L220.174 594.982L222.261 596.473L224.348 597.095L226.435 596.722L228.522 597.964L230.609 597.716H232.696L234.783 598.213L236.87 597.343L238.957 597.467L241.043 595.231L243.13 594.609L245.217 594.485L247.304 593.74L249.391 593.615L251.478 593.74L253.565 595.479L255.652 594.982L257.739 593.615L259.826 593.74L261.913 593.615L264 593.118L266.087 592.994L268.174 593.118L270.261 594.112L272.348 594.237H274.435L276.522 593.864L278.609 593.74L280.696 594.361L282.783 592L284.87 594.485L286.957 594.361L289.043 594.485L291.13 592.994L293.217 593.118L295.304 592.994L297.391 593.118L299.478 592.994L301.565 593.864L303.652 595.231L305.739 593.367L307.826 595.604L309.913 597.716L312 597.592L314.087 597.84L316.174 595.728L318.261 594.361L320.348 594.237L322.435 594.361L324.522 594.237L326.609 596.598L328.696 598.71L330.783 599.953L332.87 594.237L334.957 594.734L337.043 594.609L339.13 594.112L341.217 593.988L343.304 594.982H345.391L347.478 595.106L349.565 594.982L351.652 593.988L353.739 593.864L355.826 592.497L357.913 593.367L360 593.491L362.087 592.249L364.174 592.497L366.261 594.982L368.348 595.106L370.435 594.982L372.522 594.113L374.609 594.982L376.696 594.858L378.783 593.74L380.87 593.615L382.957 597.095L385.043 597.468L387.13 597.592L389.217 597.468L393.391 597.716L395.478 597.343L397.565 598.71L399.652 598.959L401.739 598.834L403.826 600.45L405.913 601.941L408 598.959L410.087 598.213L412.174 599.704L414.261 598.959L416.348 596.225L418.435 594.734L420.522 594.858L422.609 594.237L424.696 595.728L426.783 593.615L428.87 594.858L430.957 593.615L433.043 593.74L435.13 594.734L437.217 594.858L439.304 596.598L441.391 599.456L443.478 599.828L445.565 599.953L447.652 599.828L449.739 600.947L451.826 600.823L453.913 601.568L456 599.58L458.087 601.444L460.174 603.183L462.261 603.308L464.348 601.817L468.522 601.568L470.609 600.698L472.696 599.207L474.783 598.586L476.87 598.959L478.957 597.716L481.043 597.965H483.13L485.217 597.468L487.304 598.337L489.391 598.213L491.478 600.45L493.565 601.071L495.652 601.195L497.739 601.941L499.826 602.065L501.913 601.941L504 600.201L506.087 600.698L508.174 602.065L510.261 601.941L512.348 602.065L514.435 602.562L516.522 602.686L518.609 602.562L520.696 601.568L522.783 601.444H524.87L526.957 601.817L529.043 601.941L531.13 601.32L533.217 603.681L535.304 601.195L537.391 601.32L539.478 601.195L541.565 602.686L543.652 602.562L545.739 602.686L547.826 602.562L549.913 602.686L552 601.817L554.087 600.45L556.174 602.314L558.261 600.077L560.348 597.965L562.435 598.089L564.522 597.84L566.609 599.953L568.696 601.32L570.783 601.444L572.87 601.32L574.957 601.444L577.043 599.083L579.13 596.97L581.217 595.728L583.304 601.444L585.391 600.947L587.478 601.071L589.565 601.568L591.652 601.692L593.739 600.698H595.826L597.913 600.574L600 600.698L602.087 601.692L604.174 601.817L606.261 603.183L608.348 602.314L610.435 602.189L612.522 603.432L614.609 603.183L616.696 600.698L618.783 600.574L620.87 600.698H622.957L625.043 600.823L627.13 600.698L629.217 600.823L631.304 602.562L633.391 602.686L635.478 602.562L637.565 602.686L639.652 602.562L641.739 602.686L643.826 602.562L645.913 602.686L648 600.823L650.087 601.071H652.174L654.261 601.195L656.348 601.071L658.435 601.195L660.522 602.562L662.609 602.686L664.696 602.562L666.783 602.686L668.87 601.32L670.957 601.444L673.043 601.32L675.13 605.42L677.217 605.296L679.304 605.42L681.391 605.669L683.478 606.538L685.565 605.296L687.652 605.42L689.739 606.663L691.826 602.065L693.913 602.562L696 600.698L698.087 600.574L700.174 600.698L702.261 599.083L704.348 599.207L706.435 599.083L708.522 596.349L710.609 597.468L712.696 598.213L714.783 600.823L716.87 600.947L718.956 600.45L721.043 600.574L723.13 601.32L725.217 601.568L727.304 601.32L729.391 600.45L731.478 601.568L733.565 601.692L735.652 600.45L737.739 601.195L739.826 601.071L741.913 602.562L744 602.189L746.087 600.698L748.174 600.45L750.261 600.574L752.348 601.692L754.435 601.817L756.522 601.692L758.609 603.681L760.696 603.556L762.783 603.681L764.87 603.556L766.957 601.692L769.043 601.568L771.13 601.32L773.217 601.195L775.304 601.32L777.391 600.574H779.478L781.565 600.325L783.652 600.823L785.739 600.698L787.826 600.325L789.913 600.698L792 600.823L794.087 601.568L796.174 601.692L798.261 600.698L800.348 600.823L802.435 601.568L804.522 600.947L806.609 601.692L808.696 601.817L810.783 601.692L812.87 600.45L814.957 600.077L817.044 602.935L819.13 601.444L821.217 601.817L823.304 600.077L825.391 600.201L827.478 601.195L829.565 609.136L831.652 607.396H833.739L835.826 605.533L837.913 607.024L840 607.645L842.087 606.278L844.174 607.645H846.261L848.348 607.272L850.435 608.266L852.522 607.769L854.609 610.13L856.696 610.006L858.783 611L860.87 608.018L862.957 608.763L865.043 607.894L867.13 608.888L871.304 608.391L873.391 602.612L875.478 602.488L877.565 604.103L879.652 605.595L881.739 602.612L883.826 601.867L885.913 603.358L888 602.612L890.087 599.879L892.174 598.388L894.261 598.512L896.348 597.89L898.435 599.382L900.522 597.269L902.609 598.512L904.696 597.269L906.783 597.393L908.87 598.388L910.957 598.512L913.043 600.251L915.13 603.109L917.217 603.482L919.304 603.606L921.391 603.482L923.478 604.601L925.565 604.476L927.652 605.222L929.739 603.234L931.826 605.098L933.913 606.837L936 606.961L938.087 605.47L942.261 605.222L944.348 604.352L946.435 602.861L948.522 602.24L950.609 602.612L952.696 601.37L954.783 601.618H956.87L958.957 601.121L961.043 601.991L963.13 601.867L965.217 604.103L967.304 604.725L969.391 604.849L971.478 605.595L973.565 605.719L975.652 605.595L977.739 603.855L979.826 604.352L981.913 605.719L984 605.595L986.087 605.719L988.174 606.216L990.261 606.34L992.348 606.216L994.435 605.222L996.522 605.098H998.609L1000.7 605.47L1002.78 605.595L1004.87 604.973L1006.96 607.334L1009.04 604.849L1011.13 604.973L1013.22 604.849L1015.3 606.34L1017.39 606.216L1019.48 606.34L1021.57 606.216L1023.65 606.34L1025.74 605.47L1027.83 604.103L1029.91 605.967L1032 603.731L1034.09 601.618L1036.17 601.743L1038.26 601.494L1040.35 603.606L1042.43 604.973L1044.52 605.098L1046.61 604.973L1048.7 605.098L1050.78 602.737L1052.87 600.624L1054.96 599.382L1057.04 605.098L1059.13 604.601L1061.22 604.725L1063.3 605.222L1065.39 605.346L1067.48 604.352H1069.57L1071.65 604.228L1073.74 604.352L1075.83 605.346L1077.91 605.47L1080 606.837" stroke="#8EB2BF" stroke-linejoin="round"/>
<path d="M174.852 606.1L177.912 602.764C178.248 602.388 178.508 602.068 178.692 601.804C178.884 601.54 178.98 601.256 178.98 600.952C178.98 600.512 178.848 600.16 178.584 599.896C178.32 599.632 177.968 599.5 177.528 599.5C177.088 599.5 176.736 599.632 176.472 599.896C176.208 600.16 176.076 600.512 176.076 600.952H174.972C174.972 600.616 175.036 600.3 175.164 600.004C175.292 599.708 175.468 599.452 175.692 599.236C175.924 599.012 176.196 598.836 176.508 598.708C176.82 598.58 177.16 598.516 177.528 598.516C177.896 598.516 178.236 598.58 178.548 598.708C178.86 598.836 179.128 599.012 179.352 599.236C179.584 599.452 179.764 599.708 179.892 600.004C180.02 600.3 180.084 600.616 180.084 600.952C180.084 601.168 180.044 601.38 179.964 601.588C179.892 601.796 179.792 602.004 179.664 602.212C179.536 602.412 179.384 602.616 179.208 602.824C179.032 603.024 178.848 603.232 178.656 603.448L176.268 606.016H180.084V607H174.852V606.1ZM184.066 607.084C183.642 607.084 183.266 607.02 182.938 606.892C182.61 606.764 182.334 606.552 182.11 606.256C181.886 605.96 181.714 605.572 181.594 605.092C181.482 604.612 181.426 604.016 181.426 603.304V602.104C181.426 601.448 181.482 600.892 181.594 600.436C181.714 599.972 181.886 599.6 182.11 599.32C182.334 599.04 182.61 598.836 182.938 598.708C183.266 598.58 183.642 598.516 184.066 598.516C184.49 598.516 184.866 598.58 185.194 598.708C185.522 598.836 185.798 599.04 186.022 599.32C186.246 599.6 186.414 599.972 186.526 600.436C186.646 600.892 186.706 601.448 186.706 602.104V603.304C186.706 604.016 186.646 604.612 186.526 605.092C186.414 605.572 186.246 605.96 186.022 606.256C185.798 606.552 185.522 606.764 185.194 606.892C184.866 607.02 184.49 607.084 184.066 607.084ZM184.066 606.1C184.306 606.1 184.518 606.06 184.702 605.98C184.886 605.9 185.042 605.756 185.17 605.548C185.306 605.332 185.406 605.044 185.47 604.684C185.542 604.324 185.578 603.864 185.578 603.304V602.104C185.578 601.592 185.542 601.168 185.47 600.832C185.406 600.496 185.306 600.228 185.17 600.028C185.042 599.828 184.886 599.688 184.702 599.608C184.518 599.528 184.306 599.488 184.066 599.488C183.826 599.488 183.614 599.528 183.43 599.608C183.246 599.688 183.086 599.828 182.95 600.028C182.822 600.228 182.722 600.496 182.65 600.832C182.586 601.168 182.554 601.592 182.554 602.104V603.304C182.554 603.864 182.586 604.324 182.65 604.684C182.722 605.044 182.822 605.332 182.95 605.548C183.086 605.756 183.246 605.9 183.43 605.98C183.614 606.06 183.826 606.1 184.066 606.1ZM188.047 606.1L191.107 602.764C191.443 602.388 191.703 602.068 191.887 601.804C192.079 601.54 192.175 601.256 192.175 600.952C192.175 600.512 192.043 600.16 191.779 599.896C191.515 599.632 191.163 599.5 190.723 599.5C190.283 599.5 189.931 599.632 189.667 599.896C189.403 600.16 189.271 600.512 189.271 600.952H188.167C188.167 600.616 188.231 600.3 188.359 600.004C188.487 599.708 188.663 599.452 188.887 599.236C189.119 599.012 189.391 598.836 189.703 598.708C190.015 598.58 190.355 598.516 190.723 598.516C191.091 598.516 191.431 598.58 191.743 598.708C192.055 598.836 192.323 599.012 192.547 599.236C192.779 599.452 192.959 599.708 193.087 600.004C193.215 600.3 193.279 600.616 193.279 600.952C193.279 601.168 193.239 601.38 193.159 601.588C193.087 601.796 192.987 602.004 192.859 602.212C192.731 602.412 192.579 602.616 192.403 602.824C192.227 603.024 192.043 603.232 191.851 603.448L189.463 606.016H193.279V607H188.047V606.1ZM194.645 606.1L197.705 602.764C198.041 602.388 198.301 602.068 198.485 601.804C198.677 601.54 198.773 601.256 198.773 600.952C198.773 600.512 198.641 600.16 198.377 599.896C198.113 599.632 197.761 599.5 197.321 599.5C196.881 599.5 196.529 599.632 196.265 599.896C196.001 600.16 195.869 600.512 195.869 600.952H194.765C194.765 600.616 194.829 600.3 194.957 600.004C195.085 599.708 195.261 599.452 195.485 599.236C195.717 599.012 195.989 598.836 196.301 598.708C196.613 598.58 196.953 598.516 197.321 598.516C197.689 598.516 198.029 598.58 198.341 598.708C198.653 598.836 198.921 599.012 199.145 599.236C199.377 599.452 199.557 599.708 199.685 600.004C199.813 600.3 199.877 600.616 199.877 600.952C199.877 601.168 199.837 601.38 199.757 601.588C199.685 601.796 199.585 602.004 199.457 602.212C199.329 602.412 199.177 602.616 199.001 602.824C198.825 603.024 198.641 603.232 198.449 603.448L196.061 606.016H199.877V607H194.645V606.1ZM201.015 602.668H204.183V603.652H201.015V602.668ZM205.729 606.016H207.745V599.836L205.741 601.288V600.052L207.745 598.6H208.873V606.016H210.529V607H205.729V606.016ZM211.918 606.1L214.978 602.764C215.314 602.388 215.574 602.068 215.758 601.804C215.95 601.54 216.046 601.256 216.046 600.952C216.046 600.512 215.914 600.16 215.65 599.896C215.386 599.632 215.034 599.5 214.594 599.5C214.154 599.5 213.802 599.632 213.538 599.896C213.274 600.16 213.142 600.512 213.142 600.952H212.038C212.038 600.616 212.102 600.3 212.23 600.004C212.358 599.708 212.534 599.452 212.758 599.236C212.99 599.012 213.262 598.836 213.574 598.708C213.886 598.58 214.226 598.516 214.594 598.516C214.962 598.516 215.302 598.58 215.614 598.708C215.926 598.836 216.194 599.012 216.418 599.236C216.65 599.452 216.83 599.708 216.958 600.004C217.086 600.3 217.15 600.616 217.15 600.952C217.15 601.168 217.11 601.38 217.03 601.588C216.958 601.796 216.858 602.004 216.73 602.212C216.602 602.412 216.45 602.616 216.274 602.824C216.098 603.024 215.914 603.232 215.722 603.448L213.334 606.016H217.15V607H211.918V606.1Z" fill="#185A7E"/>
<rect opacity="0.6" width="3" height="24" transform="matrix(-1 0 0 1 229 590)" fill="#185A7E"/>
<rect opacity="0.1" x="229" y="590" width="743" height="24" fill="#185A7E"/>
<rect opacity="0.6" width="3" height="24" transform="matrix(-1 0 0 1 975 590)" fill="#185A7E"/>
<path d="M983.852 606.1L986.912 602.764C987.248 602.388 987.508 602.068 987.692 601.804C987.884 601.54 987.98 601.256 987.98 600.952C987.98 600.512 987.848 600.16 987.584 599.896C987.32 599.632 986.968 599.5 986.528 599.5C986.088 599.5 985.736 599.632 985.472 599.896C985.208 600.16 985.076 600.512 985.076 600.952H983.972C983.972 600.616 984.036 600.3 984.164 600.004C984.292 599.708 984.468 599.452 984.692 599.236C984.924 599.012 985.196 598.836 985.508 598.708C985.82 598.58 986.16 598.516 986.528 598.516C986.896 598.516 987.236 598.58 987.548 598.708C987.86 598.836 988.128 599.012 988.352 599.236C988.584 599.452 988.764 599.708 988.892 600.004C989.02 600.3 989.084 600.616 989.084 600.952C989.084 601.168 989.044 601.38 988.964 601.588C988.892 601.796 988.792 602.004 988.664 602.212C988.536 602.412 988.384 602.616 988.208 602.824C988.032 603.024 987.848 603.232 987.656 603.448L985.268 606.016H989.084V607H983.852V606.1ZM993.066 607.084C992.642 607.084 992.266 607.02 991.938 606.892C991.61 606.764 991.334 606.552 991.11 606.256C990.886 605.96 990.714 605.572 990.594 605.092C990.482 604.612 990.426 604.016 990.426 603.304V602.104C990.426 601.448 990.482 600.892 990.594 600.436C990.714 599.972 990.886 599.6 991.11 599.32C991.334 599.04 991.61 598.836 991.938 598.708C992.266 598.58 992.642 598.516 993.066 598.516C993.49 598.516 993.866 598.58 994.194 598.708C994.522 598.836 994.798 599.04 995.022 599.32C995.246 599.6 995.414 599.972 995.526 600.436C995.646 600.892 995.706 601.448 995.706 602.104V603.304C995.706 604.016 995.646 604.612 995.526 605.092C995.414 605.572 995.246 605.96 995.022 606.256C994.798 606.552 994.522 606.764 994.194 606.892C993.866 607.02 993.49 607.084 993.066 607.084ZM993.066 606.1C993.306 606.1 993.518 606.06 993.702 605.98C993.886 605.9 994.042 605.756 994.17 605.548C994.306 605.332 994.406 605.044 994.47 604.684C994.542 604.324 994.578 603.864 994.578 603.304V602.104C994.578 601.592 994.542 601.168 994.47 600.832C994.406 600.496 994.306 600.228 994.17 600.028C994.042 599.828 993.886 599.688 993.702 599.608C993.518 599.528 993.306 599.488 993.066 599.488C992.826 599.488 992.614 599.528 992.43 599.608C992.246 599.688 992.086 599.828 991.95 600.028C991.822 600.228 991.722 600.496 991.65 600.832C991.586 601.168 991.554 601.592 991.554 602.104V603.304C991.554 603.864 991.586 604.324 991.65 604.684C991.722 605.044 991.822 605.332 991.95 605.548C992.086 605.756 992.246 605.9 992.43 605.98C992.614 606.06 992.826 606.1 993.066 606.1ZM997.047 606.1L1000.11 602.764C1000.44 602.388 1000.7 602.068 1000.89 601.804C1001.08 601.54 1001.18 601.256 1001.18 600.952C1001.18 600.512 1001.04 600.16 1000.78 599.896C1000.52 599.632 1000.16 599.5 999.723 599.5C999.283 599.5 998.931 599.632 998.667 599.896C998.403 600.16 998.271 600.512 998.271 600.952H997.167C997.167 600.616 997.231 600.3 997.359 600.004C997.487 599.708 997.663 599.452 997.887 599.236C998.119 599.012 998.391 598.836 998.703 598.708C999.015 598.58 999.355 598.516 999.723 598.516C1000.09 598.516 1000.43 598.58 1000.74 598.708C1001.06 598.836 1001.32 599.012 1001.55 599.236C1001.78 599.452 1001.96 599.708 1002.09 600.004C1002.22 600.3 1002.28 600.616 1002.28 600.952C1002.28 601.168 1002.24 601.38 1002.16 601.588C1002.09 601.796 1001.99 602.004 1001.86 602.212C1001.73 602.412 1001.58 602.616 1001.4 602.824C1001.23 603.024 1001.04 603.232 1000.85 603.448L998.463 606.016H1002.28V607H997.047V606.1ZM1006.14 607.084C1005.74 607.084 1005.38 607.024 1005.05 606.904C1004.73 606.784 1004.45 606.62 1004.22 606.412C1004 606.196 1003.82 605.948 1003.69 605.668C1003.57 605.388 1003.51 605.084 1003.51 604.756H1004.63C1004.63 605.14 1004.76 605.46 1005.02 605.716C1005.3 605.972 1005.67 606.1 1006.14 606.1C1006.61 606.1 1006.98 605.972 1007.24 605.716C1007.52 605.452 1007.65 605.124 1007.65 604.732C1007.65 604.244 1007.51 603.864 1007.22 603.592C1006.93 603.312 1006.49 603.172 1005.9 603.172H1005.26V602.188H1005.9C1006.46 602.188 1006.87 602.064 1007.14 601.816C1007.4 601.568 1007.53 601.208 1007.53 600.736C1007.53 600.376 1007.41 600.08 1007.16 599.848C1006.92 599.616 1006.58 599.5 1006.14 599.5C1005.7 599.5 1005.36 599.616 1005.11 599.848C1004.87 600.072 1004.75 600.36 1004.75 600.712H1003.63C1003.63 600.408 1003.69 600.124 1003.8 599.86C1003.92 599.588 1004.09 599.356 1004.3 599.164C1004.52 598.964 1004.78 598.808 1005.1 598.696C1005.41 598.576 1005.76 598.516 1006.14 598.516C1006.52 598.516 1006.87 598.576 1007.17 598.696C1007.48 598.808 1007.75 598.964 1007.96 599.164C1008.19 599.364 1008.36 599.6 1008.47 599.872C1008.59 600.136 1008.65 600.424 1008.65 600.736C1008.65 601.216 1008.52 601.62 1008.26 601.948C1008.01 602.276 1007.7 602.508 1007.34 602.644C1007.78 602.772 1008.13 603.02 1008.38 603.388C1008.64 603.756 1008.77 604.208 1008.77 604.744C1008.77 605.072 1008.7 605.38 1008.58 605.668C1008.46 605.948 1008.28 606.196 1008.05 606.412C1007.82 606.62 1007.55 606.784 1007.22 606.904C1006.9 607.024 1006.54 607.084 1006.14 607.084ZM1010.01 602.668H1013.18V603.652H1010.01V602.668ZM1016.94 607.084C1016.51 607.084 1016.14 607.02 1015.81 606.892C1015.48 606.764 1015.2 606.552 1014.98 606.256C1014.76 605.96 1014.58 605.572 1014.46 605.092C1014.35 604.612 1014.3 604.016 1014.3 603.304V602.104C1014.3 601.448 1014.35 600.892 1014.46 600.436C1014.58 599.972 1014.76 599.6 1014.98 599.32C1015.2 599.04 1015.48 598.836 1015.81 598.708C1016.14 598.58 1016.51 598.516 1016.94 598.516C1017.36 598.516 1017.74 598.58 1018.06 598.708C1018.39 598.836 1018.67 599.04 1018.89 599.32C1019.12 599.6 1019.28 599.972 1019.4 600.436C1019.52 600.892 1019.58 601.448 1019.58 602.104V603.304C1019.58 604.016 1019.52 604.612 1019.4 605.092C1019.28 605.572 1019.12 605.96 1018.89 606.256C1018.67 606.552 1018.39 606.764 1018.06 606.892C1017.74 607.02 1017.36 607.084 1016.94 607.084ZM1016.94 606.1C1017.18 606.1 1017.39 606.06 1017.57 605.98C1017.76 605.9 1017.91 605.756 1018.04 605.548C1018.18 605.332 1018.28 605.044 1018.34 604.684C1018.41 604.324 1018.45 603.864 1018.45 603.304V602.104C1018.45 601.592 1018.41 601.168 1018.34 600.832C1018.28 600.496 1018.18 600.228 1018.04 600.028C1017.91 599.828 1017.76 599.688 1017.57 599.608C1017.39 599.528 1017.18 599.488 1016.94 599.488C1016.7 599.488 1016.48 599.528 1016.3 599.608C1016.12 599.688 1015.96 599.828 1015.82 600.028C1015.69 600.228 1015.59 600.496 1015.52 600.832C1015.46 601.168 1015.42 601.592 1015.42 602.104V603.304C1015.42 603.864 1015.46 604.324 1015.52 604.684C1015.59 605.044 1015.69 605.332 1015.82 605.548C1015.96 605.756 1016.12 605.9 1016.3 605.98C1016.48 606.06 1016.7 606.1 1016.94 606.1ZM1024.49 605.092H1020.65V604.252L1024.33 598.6H1025.6V604.108H1026.41V605.092H1025.6V607H1024.49V605.092ZM1024.49 604.108V600.124L1021.89 604.108H1024.49Z" fill="#185A7E"/>
<path d="M0 0.5H1200" stroke="#C4D4DB" stroke-dasharray="2 2"/>
<path d="M0 110.3H1200" stroke="#C4D4DB" stroke-dasharray="2 2"/>
<path d="M0 220.1H1200" stroke="#C4D4DB" stroke-dasharray="2 2"/>
<path d="M0 329.9H1200" stroke="#C4D4DB" stroke-dasharray="2 2"/>
<path d="M0 439.7H1200" stroke="#C4D4DB" stroke-dasharray="2 2"/>
<rect width="1200" height="1" transform="matrix(1 0 0 -1 0 550)" fill="#C4D4DB"/>
<rect y="549" width="1" height="1" fill="#C4D4DB"/>
<rect y="550" width="1" height="3" fill="#C4D4DB"/>
<path d="M178.852 567.1L181.912 563.764C182.248 563.388 182.508 563.068 182.692 562.804C182.884 562.54 182.98 562.256 182.98 561.952C182.98 561.512 182.848 561.16 182.584 560.896C182.32 560.632 181.968 560.5 181.528 560.5C181.088 560.5 180.736 560.632 180.472 560.896C180.208 561.16 180.076 561.512 180.076 561.952H178.972C178.972 561.616 179.036 561.3 179.164 561.004C179.292 560.708 179.468 560.452 179.692 560.236C179.924 560.012 180.196 559.836 180.508 559.708C180.82 559.58 181.16 559.516 181.528 559.516C181.896 559.516 182.236 559.58 182.548 559.708C182.86 559.836 183.128 560.012 183.352 560.236C183.584 560.452 183.764 560.708 183.892 561.004C184.02 561.3 184.084 561.616 184.084 561.952C184.084 562.168 184.044 562.38 183.964 562.588C183.892 562.796 183.792 563.004 183.664 563.212C183.536 563.412 183.384 563.616 183.208 563.824C183.032 564.024 182.848 564.232 182.656 564.448L180.268 567.016H184.084V568H178.852V567.1ZM188.066 568.084C187.642 568.084 187.266 568.02 186.938 567.892C186.61 567.764 186.334 567.552 186.11 567.256C185.886 566.96 185.714 566.572 185.594 566.092C185.482 565.612 185.426 565.016 185.426 564.304V563.104C185.426 562.448 185.482 561.892 185.594 561.436C185.714 560.972 185.886 560.6 186.11 560.32C186.334 560.04 186.61 559.836 186.938 559.708C187.266 559.58 187.642 559.516 188.066 559.516C188.49 559.516 188.866 559.58 189.194 559.708C189.522 559.836 189.798 560.04 190.022 560.32C190.246 560.6 190.414 560.972 190.526 561.436C190.646 561.892 190.706 562.448 190.706 563.104V564.304C190.706 565.016 190.646 565.612 190.526 566.092C190.414 566.572 190.246 566.96 190.022 567.256C189.798 567.552 189.522 567.764 189.194 567.892C188.866 568.02 188.49 568.084 188.066 568.084ZM188.066 567.1C188.306 567.1 188.518 567.06 188.702 566.98C188.886 566.9 189.042 566.756 189.17 566.548C189.306 566.332 189.406 566.044 189.47 565.684C189.542 565.324 189.578 564.864 189.578 564.304V563.104C189.578 562.592 189.542 562.168 189.47 561.832C189.406 561.496 189.306 561.228 189.17 561.028C189.042 560.828 188.886 560.688 188.702 560.608C188.518 560.528 188.306 560.488 188.066 560.488C187.826 560.488 187.614 560.528 187.43 560.608C187.246 560.688 187.086 560.828 186.95 561.028C186.822 561.228 186.722 561.496 186.65 561.832C186.586 562.168 186.554 562.592 186.554 563.104V564.304C186.554 564.864 186.586 565.324 186.65 565.684C186.722 566.044 186.822 566.332 186.95 566.548C187.086 566.756 187.246 566.9 187.43 566.98C187.614 567.06 187.826 567.1 188.066 567.1ZM192.047 567.1L195.107 563.764C195.443 563.388 195.703 563.068 195.887 562.804C196.079 562.54 196.175 562.256 196.175 561.952C196.175 561.512 196.043 561.16 195.779 560.896C195.515 560.632 195.163 560.5 194.723 560.5C194.283 560.5 193.931 560.632 193.667 560.896C193.403 561.16 193.271 561.512 193.271 561.952H192.167C192.167 561.616 192.231 561.3 192.359 561.004C192.487 560.708 192.663 560.452 192.887 560.236C193.119 560.012 193.391 559.836 193.703 559.708C194.015 559.58 194.355 559.516 194.723 559.516C195.091 559.516 195.431 559.58 195.743 559.708C196.055 559.836 196.323 560.012 196.547 560.236C196.779 560.452 196.959 560.708 197.087 561.004C197.215 561.3 197.279 561.616 197.279 561.952C197.279 562.168 197.239 562.38 197.159 562.588C197.087 562.796 196.987 563.004 196.859 563.212C196.731 563.412 196.579 563.616 196.403 563.824C196.227 564.024 196.043 564.232 195.851 564.448L193.463 567.016H197.279V568H192.047V567.1ZM198.645 567.1L201.705 563.764C202.041 563.388 202.301 563.068 202.485 562.804C202.677 562.54 202.773 562.256 202.773 561.952C202.773 561.512 202.641 561.16 202.377 560.896C202.113 560.632 201.761 560.5 201.321 560.5C200.881 560.5 200.529 560.632 200.265 560.896C200.001 561.16 199.869 561.512 199.869 561.952H198.765C198.765 561.616 198.829 561.3 198.957 561.004C199.085 560.708 199.261 560.452 199.485 560.236C199.717 560.012 199.989 559.836 200.301 559.708C200.613 559.58 200.953 559.516 201.321 559.516C201.689 559.516 202.029 559.58 202.341 559.708C202.653 559.836 202.921 560.012 203.145 560.236C203.377 560.452 203.557 560.708 203.685 561.004C203.813 561.3 203.877 561.616 203.877 561.952C203.877 562.168 203.837 562.38 203.757 562.588C203.685 562.796 203.585 563.004 203.457 563.212C203.329 563.412 203.177 563.616 203.001 563.824C202.825 564.024 202.641 564.232 202.449 564.448L200.061 567.016H203.877V568H198.645V567.1ZM205.015 563.668H208.183V564.652H205.015V563.668ZM209.729 567.016H211.745V560.836L209.741 562.288V561.052L211.745 559.6H212.873V567.016H214.529V568H209.729V567.016ZM215.918 567.1L218.978 563.764C219.314 563.388 219.574 563.068 219.758 562.804C219.95 562.54 220.046 562.256 220.046 561.952C220.046 561.512 219.914 561.16 219.65 560.896C219.386 560.632 219.034 560.5 218.594 560.5C218.154 560.5 217.802 560.632 217.538 560.896C217.274 561.16 217.142 561.512 217.142 561.952H216.038C216.038 561.616 216.102 561.3 216.23 561.004C216.358 560.708 216.534 560.452 216.758 560.236C216.99 560.012 217.262 559.836 217.574 559.708C217.886 559.58 218.226 559.516 218.594 559.516C218.962 559.516 219.302 559.58 219.614 559.708C219.926 559.836 220.194 560.012 220.418 560.236C220.65 560.452 220.83 560.708 220.958 561.004C221.086 561.3 221.15 561.616 221.15 561.952C221.15 562.168 221.11 562.38 221.03 562.588C220.958 562.796 220.858 563.004 220.73 563.212C220.602 563.412 220.45 563.616 220.274 563.824C220.098 564.024 219.914 564.232 219.722 564.448L217.334 567.016H221.15V568H215.918V567.1Z" fill="#8EB2BF"/>
<rect x="200" y="549" width="1" height="1" fill="#C4D4DB"/>
<rect x="200" y="550" width="1" height="3" fill="#C4D4DB"/>
<path d="M418.685 567.1L421.745 563.764C422.081 563.388 422.341 563.068 422.525 562.804C422.717 562.54 422.813 562.256 422.813 561.952C422.813 561.512 422.681 561.16 422.417 560.896C422.153 560.632 421.801 560.5 421.361 560.5C420.921 560.5 420.569 560.632 420.305 560.896C420.041 561.16 419.909 561.512 419.909 561.952H418.805C418.805 561.616 418.869 561.3 418.997 561.004C419.125 560.708 419.301 560.452 419.525 560.236C419.757 560.012 420.029 559.836 420.341 559.708C420.653 559.58 420.993 559.516 421.361 559.516C421.729 559.516 422.069 559.58 422.381 559.708C422.693 559.836 422.961 560.012 423.185 560.236C423.417 560.452 423.597 560.708 423.725 561.004C423.853 561.3 423.917 561.616 423.917 561.952C423.917 562.168 423.877 562.38 423.797 562.588C423.725 562.796 423.625 563.004 423.497 563.212C423.369 563.412 423.217 563.616 423.041 563.824C422.865 564.024 422.681 564.232 422.489 564.448L420.101 567.016H423.917V568H418.685V567.1ZM427.899 568.084C427.475 568.084 427.099 568.02 426.771 567.892C426.443 567.764 426.167 567.552 425.943 567.256C425.719 566.96 425.547 566.572 425.427 566.092C425.315 565.612 425.259 565.016 425.259 564.304V563.104C425.259 562.448 425.315 561.892 425.427 561.436C425.547 560.972 425.719 560.6 425.943 560.32C426.167 560.04 426.443 559.836 426.771 559.708C427.099 559.58 427.475 559.516 427.899 559.516C428.323 559.516 428.699 559.58 429.027 559.708C429.355 559.836 429.631 560.04 429.855 560.32C430.079 560.6 430.247 560.972 430.359 561.436C430.479 561.892 430.539 562.448 430.539 563.104V564.304C430.539 565.016 430.479 565.612 430.359 566.092C430.247 566.572 430.079 566.96 429.855 567.256C429.631 567.552 429.355 567.764 429.027 567.892C428.699 568.02 428.323 568.084 427.899 568.084ZM427.899 567.1C428.139 567.1 428.351 567.06 428.535 566.98C428.719 566.9 428.875 566.756 429.003 566.548C429.139 566.332 429.239 566.044 429.303 565.684C429.375 565.324 429.411 564.864 429.411 564.304V563.104C429.411 562.592 429.375 562.168 429.303 561.832C429.239 561.496 429.139 561.228 429.003 561.028C428.875 560.828 428.719 560.688 428.535 560.608C428.351 560.528 428.139 560.488 427.899 560.488C427.659 560.488 427.447 560.528 427.263 560.608C427.079 560.688 426.919 560.828 426.783 561.028C426.655 561.228 426.555 561.496 426.483 561.832C426.419 562.168 426.387 562.592 426.387 563.104V564.304C426.387 564.864 426.419 565.324 426.483 565.684C426.555 566.044 426.655 566.332 426.783 566.548C426.919 566.756 427.079 566.9 427.263 566.98C427.447 567.06 427.659 567.1 427.899 567.1ZM431.881 567.1L434.941 563.764C435.277 563.388 435.537 563.068 435.721 562.804C435.913 562.54 436.009 562.256 436.009 561.952C436.009 561.512 435.877 561.16 435.613 560.896C435.349 560.632 434.997 560.5 434.557 560.5C434.117 560.5 433.765 560.632 433.501 560.896C433.237 561.16 433.105 561.512 433.105 561.952H432.001C432.001 561.616 432.065 561.3 432.193 561.004C432.321 560.708 432.497 560.452 432.721 560.236C432.953 560.012 433.225 559.836 433.537 559.708C433.849 559.58 434.189 559.516 434.557 559.516C434.925 559.516 435.265 559.58 435.577 559.708C435.889 559.836 436.157 560.012 436.381 560.236C436.613 560.452 436.793 560.708 436.921 561.004C437.049 561.3 437.113 561.616 437.113 561.952C437.113 562.168 437.073 562.38 436.993 562.588C436.921 562.796 436.821 563.004 436.693 563.212C436.565 563.412 436.413 563.616 436.237 563.824C436.061 564.024 435.877 564.232 435.685 564.448L433.297 567.016H437.113V568H431.881V567.1ZM440.974 568.084C440.574 568.084 440.21 568.024 439.882 567.904C439.562 567.784 439.286 567.62 439.054 567.412C438.83 567.196 438.654 566.948 438.526 566.668C438.406 566.388 438.346 566.084 438.346 565.756H439.462C439.462 566.14 439.594 566.46 439.858 566.716C440.13 566.972 440.502 567.1 440.974 567.1C441.446 567.1 441.814 566.972 442.078 566.716C442.35 566.452 442.486 566.124 442.486 565.732C442.486 565.244 442.342 564.864 442.054 564.592C441.766 564.312 441.326 564.172 440.734 564.172H440.098V563.188H440.734C441.294 563.188 441.706 563.064 441.97 562.816C442.234 562.568 442.366 562.208 442.366 561.736C442.366 561.376 442.242 561.08 441.994 560.848C441.754 560.616 441.414 560.5 440.974 560.5C440.534 560.5 440.19 560.616 439.942 560.848C439.702 561.072 439.582 561.36 439.582 561.712H438.466C438.466 561.408 438.522 561.124 438.634 560.86C438.754 560.588 438.922 560.356 439.138 560.164C439.354 559.964 439.618 559.808 439.93 559.696C440.242 559.576 440.59 559.516 440.974 559.516C441.358 559.516 441.702 559.576 442.006 559.696C442.318 559.808 442.582 559.964 442.798 560.164C443.022 560.364 443.19 560.6 443.302 560.872C443.422 561.136 443.482 561.424 443.482 561.736C443.482 562.216 443.354 562.62 443.098 562.948C442.842 563.276 442.534 563.508 442.174 563.644C442.614 563.772 442.962 564.02 443.218 564.388C443.474 564.756 443.602 565.208 443.602 565.744C443.602 566.072 443.538 566.38 443.41 566.668C443.29 566.948 443.114 567.196 442.882 567.412C442.658 567.62 442.382 567.784 442.054 567.904C441.734 568.024 441.374 568.084 440.974 568.084ZM444.848 563.668H448.016V564.652H444.848V563.668ZM451.77 568.084C451.346 568.084 450.97 568.02 450.642 567.892C450.314 567.764 450.038 567.552 449.814 567.256C449.59 566.96 449.418 566.572 449.298 566.092C449.186 565.612 449.13 565.016 449.13 564.304V563.104C449.13 562.448 449.186 561.892 449.298 561.436C449.418 560.972 449.59 560.6 449.814 560.32C450.038 560.04 450.314 559.836 450.642 559.708C450.97 559.58 451.346 559.516 451.77 559.516C452.194 559.516 452.57 559.58 452.898 559.708C453.226 559.836 453.502 560.04 453.726 560.32C453.95 560.6 454.118 560.972 454.23 561.436C454.35 561.892 454.41 562.448 454.41 563.104V564.304C454.41 565.016 454.35 565.612 454.23 566.092C454.118 566.572 453.95 566.96 453.726 567.256C453.502 567.552 453.226 567.764 452.898 567.892C452.57 568.02 452.194 568.084 451.77 568.084ZM451.77 567.1C452.01 567.1 452.222 567.06 452.406 566.98C452.59 566.9 452.746 566.756 452.874 566.548C453.01 566.332 453.11 566.044 453.174 565.684C453.246 565.324 453.282 564.864 453.282 564.304V563.104C453.282 562.592 453.246 562.168 453.174 561.832C453.11 561.496 453.01 561.228 452.874 561.028C452.746 560.828 452.59 560.688 452.406 560.608C452.222 560.528 452.01 560.488 451.77 560.488C451.53 560.488 451.318 560.528 451.134 560.608C450.95 560.688 450.79 560.828 450.654 561.028C450.526 561.228 450.426 561.496 450.354 561.832C450.29 562.168 450.258 562.592 450.258 563.104V564.304C450.258 564.864 450.29 565.324 450.354 565.684C450.426 566.044 450.526 566.332 450.654 566.548C450.79 566.756 450.95 566.9 451.134 566.98C451.318 567.06 451.53 567.1 451.77 567.1ZM456.16 567.016H458.176V560.836L456.172 562.288V561.052L458.176 559.6H459.304V567.016H460.96V568H456.16V567.016Z" fill="#8EB2BF"/>
<rect x="439.833" y="549" width="1" height="1" fill="#C4D4DB"/>
<rect x="439.833" y="550" width="1" height="3" fill="#C4D4DB"/>
<path d="M578.519 567.1L581.579 563.764C581.915 563.388 582.175 563.068 582.359 562.804C582.551 562.54 582.647 562.256 582.647 561.952C582.647 561.512 582.515 561.16 582.251 560.896C581.987 560.632 581.635 560.5 581.195 560.5C580.755 560.5 580.403 560.632 580.139 560.896C579.875 561.16 579.743 561.512 579.743 561.952H578.639C578.639 561.616 578.703 561.3 578.831 561.004C578.959 560.708 579.135 560.452 579.359 560.236C579.591 560.012 579.863 559.836 580.175 559.708C580.487 559.58 580.827 559.516 581.195 559.516C581.563 559.516 581.903 559.58 582.215 559.708C582.527 559.836 582.795 560.012 583.019 560.236C583.251 560.452 583.431 560.708 583.559 561.004C583.687 561.3 583.751 561.616 583.751 561.952C583.751 562.168 583.711 562.38 583.631 562.588C583.559 562.796 583.459 563.004 583.331 563.212C583.203 563.412 583.051 563.616 582.875 563.824C582.699 564.024 582.515 564.232 582.323 564.448L579.935 567.016H583.751V568H578.519V567.1ZM587.732 568.084C587.308 568.084 586.932 568.02 586.604 567.892C586.276 567.764 586 567.552 585.776 567.256C585.552 566.96 585.38 566.572 585.26 566.092C585.148 565.612 585.092 565.016 585.092 564.304V563.104C585.092 562.448 585.148 561.892 585.26 561.436C585.38 560.972 585.552 560.6 585.776 560.32C586 560.04 586.276 559.836 586.604 559.708C586.932 559.58 587.308 559.516 587.732 559.516C588.156 559.516 588.532 559.58 588.86 559.708C589.188 559.836 589.464 560.04 589.688 560.32C589.912 560.6 590.08 560.972 590.192 561.436C590.312 561.892 590.372 562.448 590.372 563.104V564.304C590.372 565.016 590.312 565.612 590.192 566.092C590.08 566.572 589.912 566.96 589.688 567.256C589.464 567.552 589.188 567.764 588.86 567.892C588.532 568.02 588.156 568.084 587.732 568.084ZM587.732 567.1C587.972 567.1 588.184 567.06 588.368 566.98C588.552 566.9 588.708 566.756 588.836 566.548C588.972 566.332 589.072 566.044 589.136 565.684C589.208 565.324 589.244 564.864 589.244 564.304V563.104C589.244 562.592 589.208 562.168 589.136 561.832C589.072 561.496 588.972 561.228 588.836 561.028C588.708 560.828 588.552 560.688 588.368 560.608C588.184 560.528 587.972 560.488 587.732 560.488C587.492 560.488 587.28 560.528 587.096 560.608C586.912 560.688 586.752 560.828 586.616 561.028C586.488 561.228 586.388 561.496 586.316 561.832C586.252 562.168 586.22 562.592 586.22 563.104V564.304C586.22 564.864 586.252 565.324 586.316 565.684C586.388 566.044 586.488 566.332 586.616 566.548C586.752 566.756 586.912 566.9 587.096 566.98C587.28 567.06 587.492 567.1 587.732 567.1ZM591.714 567.1L594.774 563.764C595.11 563.388 595.37 563.068 595.554 562.804C595.746 562.54 595.842 562.256 595.842 561.952C595.842 561.512 595.71 561.16 595.446 560.896C595.182 560.632 594.83 560.5 594.39 560.5C593.95 560.5 593.598 560.632 593.334 560.896C593.07 561.16 592.938 561.512 592.938 561.952H591.834C591.834 561.616 591.898 561.3 592.026 561.004C592.154 560.708 592.33 560.452 592.554 560.236C592.786 560.012 593.058 559.836 593.37 559.708C593.682 559.58 594.022 559.516 594.39 559.516C594.758 559.516 595.098 559.58 595.41 559.708C595.722 559.836 595.99 560.012 596.214 560.236C596.446 560.452 596.626 560.708 596.754 561.004C596.882 561.3 596.946 561.616 596.946 561.952C596.946 562.168 596.906 562.38 596.826 562.588C596.754 562.796 596.654 563.004 596.526 563.212C596.398 563.412 596.246 563.616 596.07 563.824C595.894 564.024 595.71 564.232 595.518 564.448L593.13 567.016H596.946V568H591.714V567.1ZM600.808 568.084C600.408 568.084 600.044 568.024 599.716 567.904C599.396 567.784 599.12 567.62 598.888 567.412C598.664 567.196 598.488 566.948 598.36 566.668C598.24 566.388 598.18 566.084 598.18 565.756H599.296C599.296 566.14 599.428 566.46 599.692 566.716C599.964 566.972 600.336 567.1 600.808 567.1C601.28 567.1 601.648 566.972 601.912 566.716C602.184 566.452 602.32 566.124 602.32 565.732C602.32 565.244 602.176 564.864 601.888 564.592C601.6 564.312 601.16 564.172 600.568 564.172H599.932V563.188H600.568C601.128 563.188 601.54 563.064 601.804 562.816C602.068 562.568 602.2 562.208 602.2 561.736C602.2 561.376 602.076 561.08 601.828 560.848C601.588 560.616 601.248 560.5 600.808 560.5C600.368 560.5 600.024 560.616 599.776 560.848C599.536 561.072 599.416 561.36 599.416 561.712H598.3C598.3 561.408 598.356 561.124 598.468 560.86C598.588 560.588 598.756 560.356 598.972 560.164C599.188 559.964 599.452 559.808 599.764 559.696C600.076 559.576 600.424 559.516 600.808 559.516C601.192 559.516 601.536 559.576 601.84 559.696C602.152 559.808 602.416 559.964 602.632 560.164C602.856 560.364 603.024 560.6 603.136 560.872C603.256 561.136 603.316 561.424 603.316 561.736C603.316 562.216 603.188 562.62 602.932 562.948C602.676 563.276 602.368 563.508 602.008 563.644C602.448 563.772 602.796 564.02 603.052 564.388C603.308 564.756 603.436 565.208 603.436 565.744C603.436 566.072 603.372 566.38 603.244 566.668C603.124 566.948 602.948 567.196 602.716 567.412C602.492 567.62 602.216 567.784 601.888 567.904C601.568 568.024 601.208 568.084 600.808 568.084ZM604.681 563.668H607.849V564.652H604.681V563.668ZM611.603 568.084C611.179 568.084 610.803 568.02 610.475 567.892C610.147 567.764 609.871 567.552 609.647 567.256C609.423 566.96 609.251 566.572 609.131 566.092C609.019 565.612 608.963 565.016 608.963 564.304V563.104C608.963 562.448 609.019 561.892 609.131 561.436C609.251 560.972 609.423 560.6 609.647 560.32C609.871 560.04 610.147 559.836 610.475 559.708C610.803 559.58 611.179 559.516 611.603 559.516C612.027 559.516 612.403 559.58 612.731 559.708C613.059 559.836 613.335 560.04 613.559 560.32C613.783 560.6 613.951 560.972 614.063 561.436C614.183 561.892 614.243 562.448 614.243 563.104V564.304C614.243 565.016 614.183 565.612 614.063 566.092C613.951 566.572 613.783 566.96 613.559 567.256C613.335 567.552 613.059 567.764 612.731 567.892C612.403 568.02 612.027 568.084 611.603 568.084ZM611.603 567.1C611.843 567.1 612.055 567.06 612.239 566.98C612.423 566.9 612.579 566.756 612.707 566.548C612.843 566.332 612.943 566.044 613.007 565.684C613.079 565.324 613.115 564.864 613.115 564.304V563.104C613.115 562.592 613.079 562.168 613.007 561.832C612.943 561.496 612.843 561.228 612.707 561.028C612.579 560.828 612.423 560.688 612.239 560.608C612.055 560.528 611.843 560.488 611.603 560.488C611.363 560.488 611.151 560.528 610.967 560.608C610.783 560.688 610.623 560.828 610.487 561.028C610.359 561.228 610.259 561.496 610.187 561.832C610.123 562.168 610.091 562.592 610.091 563.104V564.304C610.091 564.864 610.123 565.324 610.187 565.684C610.259 566.044 610.359 566.332 610.487 566.548C610.623 566.756 610.783 566.9 610.967 566.98C611.151 567.06 611.363 567.1 611.603 567.1ZM615.585 567.1L618.645 563.764C618.981 563.388 619.241 563.068 619.425 562.804C619.617 562.54 619.713 562.256 619.713 561.952C619.713 561.512 619.581 561.16 619.317 560.896C619.053 560.632 618.701 560.5 618.261 560.5C617.821 560.5 617.469 560.632 617.205 560.896C616.941 561.16 616.809 561.512 616.809 561.952H615.705C615.705 561.616 615.769 561.3 615.897 561.004C616.025 560.708 616.201 560.452 616.425 560.236C616.657 560.012 616.929 559.836 617.241 559.708C617.553 559.58 617.893 559.516 618.261 559.516C618.629 559.516 618.969 559.58 619.281 559.708C619.593 559.836 619.861 560.012 620.085 560.236C620.317 560.452 620.497 560.708 620.625 561.004C620.753 561.3 620.817 561.616 620.817 561.952C620.817 562.168 620.777 562.38 620.697 562.588C620.625 562.796 620.525 563.004 620.397 563.212C620.269 563.412 620.117 563.616 619.941 563.824C619.765 564.024 619.581 564.232 619.389 564.448L617.001 567.016H620.817V568H615.585V567.1Z" fill="#8EB2BF"/>
<rect x="599.667" y="549" width="1" height="1" fill="#C4D4DB"/>
<rect x="599.667" y="550" width="1" height="3" fill="#C4D4DB"/>
<path d="M778.352 567.1L781.412 563.764C781.748 563.388 782.008 563.068 782.192 562.804C782.384 562.54 782.48 562.256 782.48 561.952C782.48 561.512 782.348 561.16 782.084 560.896C781.82 560.632 781.468 560.5 781.028 560.5C780.588 560.5 780.236 560.632 779.972 560.896C779.708 561.16 779.576 561.512 779.576 561.952H778.472C778.472 561.616 778.536 561.3 778.664 561.004C778.792 560.708 778.968 560.452 779.192 560.236C779.424 560.012 779.696 559.836 780.008 559.708C780.32 559.58 780.66 559.516 781.028 559.516C781.396 559.516 781.736 559.58 782.048 559.708C782.36 559.836 782.628 560.012 782.852 560.236C783.084 560.452 783.264 560.708 783.392 561.004C783.52 561.3 783.584 561.616 783.584 561.952C783.584 562.168 783.544 562.38 783.464 562.588C783.392 562.796 783.292 563.004 783.164 563.212C783.036 563.412 782.884 563.616 782.708 563.824C782.532 564.024 782.348 564.232 782.156 564.448L779.768 567.016H783.584V568H778.352V567.1ZM787.566 568.084C787.142 568.084 786.766 568.02 786.438 567.892C786.11 567.764 785.834 567.552 785.61 567.256C785.386 566.96 785.214 566.572 785.094 566.092C784.982 565.612 784.926 565.016 784.926 564.304V563.104C784.926 562.448 784.982 561.892 785.094 561.436C785.214 560.972 785.386 560.6 785.61 560.32C785.834 560.04 786.11 559.836 786.438 559.708C786.766 559.58 787.142 559.516 787.566 559.516C787.99 559.516 788.366 559.58 788.694 559.708C789.022 559.836 789.298 560.04 789.522 560.32C789.746 560.6 789.914 560.972 790.026 561.436C790.146 561.892 790.206 562.448 790.206 563.104V564.304C790.206 565.016 790.146 565.612 790.026 566.092C789.914 566.572 789.746 566.96 789.522 567.256C789.298 567.552 789.022 567.764 788.694 567.892C788.366 568.02 787.99 568.084 787.566 568.084ZM787.566 567.1C787.806 567.1 788.018 567.06 788.202 566.98C788.386 566.9 788.542 566.756 788.67 566.548C788.806 566.332 788.906 566.044 788.97 565.684C789.042 565.324 789.078 564.864 789.078 564.304V563.104C789.078 562.592 789.042 562.168 788.97 561.832C788.906 561.496 788.806 561.228 788.67 561.028C788.542 560.828 788.386 560.688 788.202 560.608C788.018 560.528 787.806 560.488 787.566 560.488C787.326 560.488 787.114 560.528 786.93 560.608C786.746 560.688 786.586 560.828 786.45 561.028C786.322 561.228 786.222 561.496 786.15 561.832C786.086 562.168 786.054 562.592 786.054 563.104V564.304C786.054 564.864 786.086 565.324 786.15 565.684C786.222 566.044 786.322 566.332 786.45 566.548C786.586 566.756 786.746 566.9 786.93 566.98C787.114 567.06 787.326 567.1 787.566 567.1ZM791.547 567.1L794.607 563.764C794.943 563.388 795.203 563.068 795.387 562.804C795.579 562.54 795.675 562.256 795.675 561.952C795.675 561.512 795.543 561.16 795.279 560.896C795.015 560.632 794.663 560.5 794.223 560.5C793.783 560.5 793.431 560.632 793.167 560.896C792.903 561.16 792.771 561.512 792.771 561.952H791.667C791.667 561.616 791.731 561.3 791.859 561.004C791.987 560.708 792.163 560.452 792.387 560.236C792.619 560.012 792.891 559.836 793.203 559.708C793.515 559.58 793.855 559.516 794.223 559.516C794.591 559.516 794.931 559.58 795.243 559.708C795.555 559.836 795.823 560.012 796.047 560.236C796.279 560.452 796.459 560.708 796.587 561.004C796.715 561.3 796.779 561.616 796.779 561.952C796.779 562.168 796.739 562.38 796.659 562.588C796.587 562.796 796.487 563.004 796.359 563.212C796.231 563.412 796.079 563.616 795.903 563.824C795.727 564.024 795.543 564.232 795.351 564.448L792.963 567.016H796.779V568H791.547V567.1ZM800.641 568.084C800.241 568.084 799.877 568.024 799.549 567.904C799.229 567.784 798.953 567.62 798.721 567.412C798.497 567.196 798.321 566.948 798.193 566.668C798.073 566.388 798.013 566.084 798.013 565.756H799.129C799.129 566.14 799.261 566.46 799.525 566.716C799.797 566.972 800.169 567.1 800.641 567.1C801.113 567.1 801.481 566.972 801.745 566.716C802.017 566.452 802.153 566.124 802.153 565.732C802.153 565.244 802.009 564.864 801.721 564.592C801.433 564.312 800.993 564.172 800.401 564.172H799.765V563.188H800.401C800.961 563.188 801.373 563.064 801.637 562.816C801.901 562.568 802.033 562.208 802.033 561.736C802.033 561.376 801.909 561.08 801.661 560.848C801.421 560.616 801.081 560.5 800.641 560.5C800.201 560.5 799.857 560.616 799.609 560.848C799.369 561.072 799.249 561.36 799.249 561.712H798.133C798.133 561.408 798.189 561.124 798.301 560.86C798.421 560.588 798.589 560.356 798.805 560.164C799.021 559.964 799.285 559.808 799.597 559.696C799.909 559.576 800.257 559.516 800.641 559.516C801.025 559.516 801.369 559.576 801.673 559.696C801.985 559.808 802.249 559.964 802.465 560.164C802.689 560.364 802.857 560.6 802.969 560.872C803.089 561.136 803.149 561.424 803.149 561.736C803.149 562.216 803.021 562.62 802.765 562.948C802.509 563.276 802.201 563.508 801.841 563.644C802.281 563.772 802.629 564.02 802.885 564.388C803.141 564.756 803.269 565.208 803.269 565.744C803.269 566.072 803.205 566.38 803.077 566.668C802.957 566.948 802.781 567.196 802.549 567.412C802.325 567.62 802.049 567.784 801.721 567.904C801.401 568.024 801.041 568.084 800.641 568.084ZM804.515 563.668H807.683V564.652H804.515V563.668ZM811.437 568.084C811.013 568.084 810.637 568.02 810.309 567.892C809.981 567.764 809.705 567.552 809.481 567.256C809.257 566.96 809.085 566.572 808.965 566.092C808.853 565.612 808.797 565.016 808.797 564.304V563.104C808.797 562.448 808.853 561.892 808.965 561.436C809.085 560.972 809.257 560.6 809.481 560.32C809.705 560.04 809.981 559.836 810.309 559.708C810.637 559.58 811.013 559.516 811.437 559.516C811.861 559.516 812.237 559.58 812.565 559.708C812.893 559.836 813.169 560.04 813.393 560.32C813.617 560.6 813.785 560.972 813.897 561.436C814.017 561.892 814.077 562.448 814.077 563.104V564.304C814.077 565.016 814.017 565.612 813.897 566.092C813.785 566.572 813.617 566.96 813.393 567.256C813.169 567.552 812.893 567.764 812.565 567.892C812.237 568.02 811.861 568.084 811.437 568.084ZM811.437 567.1C811.677 567.1 811.889 567.06 812.073 566.98C812.257 566.9 812.413 566.756 812.541 566.548C812.677 566.332 812.777 566.044 812.841 565.684C812.913 565.324 812.949 564.864 812.949 564.304V563.104C812.949 562.592 812.913 562.168 812.841 561.832C812.777 561.496 812.677 561.228 812.541 561.028C812.413 560.828 812.257 560.688 812.073 560.608C811.889 560.528 811.677 560.488 811.437 560.488C811.197 560.488 810.985 560.528 810.801 560.608C810.617 560.688 810.457 560.828 810.321 561.028C810.193 561.228 810.093 561.496 810.021 561.832C809.957 562.168 809.925 562.592 809.925 563.104V564.304C809.925 564.864 809.957 565.324 810.021 565.684C810.093 566.044 810.193 566.332 810.321 566.548C810.457 566.756 810.617 566.9 810.801 566.98C810.985 567.06 811.197 567.1 811.437 567.1ZM817.914 568.084C817.514 568.084 817.15 568.024 816.822 567.904C816.502 567.784 816.226 567.62 815.994 567.412C815.77 567.196 815.594 566.948 815.466 566.668C815.346 566.388 815.286 566.084 815.286 565.756H816.402C816.402 566.14 816.534 566.46 816.798 566.716C817.07 566.972 817.442 567.1 817.914 567.1C818.386 567.1 818.754 566.972 819.018 566.716C819.29 566.452 819.426 566.124 819.426 565.732C819.426 565.244 819.282 564.864 818.994 564.592C818.706 564.312 818.266 564.172 817.674 564.172H817.038V563.188H817.674C818.234 563.188 818.646 563.064 818.91 562.816C819.174 562.568 819.306 562.208 819.306 561.736C819.306 561.376 819.182 561.08 818.934 560.848C818.694 560.616 818.354 560.5 817.914 560.5C817.474 560.5 817.13 560.616 816.882 560.848C816.642 561.072 816.522 561.36 816.522 561.712H815.406C815.406 561.408 815.462 561.124 815.574 560.86C815.694 560.588 815.862 560.356 816.078 560.164C816.294 559.964 816.558 559.808 816.87 559.696C817.182 559.576 817.53 559.516 817.914 559.516C818.298 559.516 818.642 559.576 818.946 559.696C819.258 559.808 819.522 559.964 819.738 560.164C819.962 560.364 820.13 560.6 820.242 560.872C820.362 561.136 820.422 561.424 820.422 561.736C820.422 562.216 820.294 562.62 820.038 562.948C819.782 563.276 819.474 563.508 819.114 563.644C819.554 563.772 819.902 564.02 820.158 564.388C820.414 564.756 820.542 565.208 820.542 565.744C820.542 566.072 820.478 566.38 820.35 566.668C820.23 566.948 820.054 567.196 819.822 567.412C819.598 567.62 819.322 567.784 818.994 567.904C818.674 568.024 818.314 568.084 817.914 568.084Z" fill="#8EB2BF"/>
<rect x="799.5" y="549" width="1" height="1" fill="#C4D4DB"/>
<rect x="799.5" y="550" width="1" height="3" fill="#C4D4DB"/>
<path d="M978.185 567.1L981.245 563.764C981.581 563.388 981.841 563.068 982.025 562.804C982.217 562.54 982.313 562.256 982.313 561.952C982.313 561.512 982.181 561.16 981.917 560.896C981.653 560.632 981.301 560.5 980.861 560.5C980.421 560.5 980.069 560.632 979.805 560.896C979.541 561.16 979.409 561.512 979.409 561.952H978.305C978.305 561.616 978.369 561.3 978.497 561.004C978.625 560.708 978.801 560.452 979.025 560.236C979.257 560.012 979.529 559.836 979.841 559.708C980.153 559.58 980.493 559.516 980.861 559.516C981.229 559.516 981.569 559.58 981.881 559.708C982.193 559.836 982.461 560.012 982.685 560.236C982.917 560.452 983.097 560.708 983.225 561.004C983.353 561.3 983.417 561.616 983.417 561.952C983.417 562.168 983.377 562.38 983.297 562.588C983.225 562.796 983.125 563.004 982.997 563.212C982.869 563.412 982.717 563.616 982.541 563.824C982.365 564.024 982.181 564.232 981.989 564.448L979.601 567.016H983.417V568H978.185V567.1ZM987.399 568.084C986.975 568.084 986.599 568.02 986.271 567.892C985.943 567.764 985.667 567.552 985.443 567.256C985.219 566.96 985.047 566.572 984.927 566.092C984.815 565.612 984.759 565.016 984.759 564.304V563.104C984.759 562.448 984.815 561.892 984.927 561.436C985.047 560.972 985.219 560.6 985.443 560.32C985.667 560.04 985.943 559.836 986.271 559.708C986.599 559.58 986.975 559.516 987.399 559.516C987.823 559.516 988.199 559.58 988.527 559.708C988.855 559.836 989.131 560.04 989.355 560.32C989.579 560.6 989.747 560.972 989.859 561.436C989.979 561.892 990.039 562.448 990.039 563.104V564.304C990.039 565.016 989.979 565.612 989.859 566.092C989.747 566.572 989.579 566.96 989.355 567.256C989.131 567.552 988.855 567.764 988.527 567.892C988.199 568.02 987.823 568.084 987.399 568.084ZM987.399 567.1C987.639 567.1 987.851 567.06 988.035 566.98C988.219 566.9 988.375 566.756 988.503 566.548C988.639 566.332 988.739 566.044 988.803 565.684C988.875 565.324 988.911 564.864 988.911 564.304V563.104C988.911 562.592 988.875 562.168 988.803 561.832C988.739 561.496 988.639 561.228 988.503 561.028C988.375 560.828 988.219 560.688 988.035 560.608C987.851 560.528 987.639 560.488 987.399 560.488C987.159 560.488 986.947 560.528 986.763 560.608C986.579 560.688 986.419 560.828 986.283 561.028C986.155 561.228 986.055 561.496 985.983 561.832C985.919 562.168 985.887 562.592 985.887 563.104V564.304C985.887 564.864 985.919 565.324 985.983 565.684C986.055 566.044 986.155 566.332 986.283 566.548C986.419 566.756 986.579 566.9 986.763 566.98C986.947 567.06 987.159 567.1 987.399 567.1ZM991.381 567.1L994.441 563.764C994.777 563.388 995.037 563.068 995.221 562.804C995.413 562.54 995.509 562.256 995.509 561.952C995.509 561.512 995.377 561.16 995.113 560.896C994.849 560.632 994.497 560.5 994.057 560.5C993.617 560.5 993.265 560.632 993.001 560.896C992.737 561.16 992.605 561.512 992.605 561.952H991.501C991.501 561.616 991.565 561.3 991.693 561.004C991.821 560.708 991.997 560.452 992.221 560.236C992.453 560.012 992.725 559.836 993.037 559.708C993.349 559.58 993.689 559.516 994.057 559.516C994.425 559.516 994.765 559.58 995.077 559.708C995.389 559.836 995.657 560.012 995.881 560.236C996.113 560.452 996.293 560.708 996.421 561.004C996.549 561.3 996.613 561.616 996.613 561.952C996.613 562.168 996.573 562.38 996.493 562.588C996.421 562.796 996.321 563.004 996.193 563.212C996.065 563.412 995.913 563.616 995.737 563.824C995.561 564.024 995.377 564.232 995.185 564.448L992.797 567.016H996.613V568H991.381V567.1ZM1000.47 568.084C1000.07 568.084 999.71 568.024 999.382 567.904C999.062 567.784 998.786 567.62 998.554 567.412C998.33 567.196 998.154 566.948 998.026 566.668C997.906 566.388 997.846 566.084 997.846 565.756H998.962C998.962 566.14 999.094 566.46 999.358 566.716C999.63 566.972 1000 567.1 1000.47 567.1C1000.95 567.1 1001.31 566.972 1001.58 566.716C1001.85 566.452 1001.99 566.124 1001.99 565.732C1001.99 565.244 1001.84 564.864 1001.55 564.592C1001.27 564.312 1000.83 564.172 1000.23 564.172H999.598V563.188H1000.23C1000.79 563.188 1001.21 563.064 1001.47 562.816C1001.73 562.568 1001.87 562.208 1001.87 561.736C1001.87 561.376 1001.74 561.08 1001.49 560.848C1001.25 560.616 1000.91 560.5 1000.47 560.5C1000.03 560.5 999.69 560.616 999.442 560.848C999.202 561.072 999.082 561.36 999.082 561.712H997.966C997.966 561.408 998.022 561.124 998.134 560.86C998.254 560.588 998.422 560.356 998.638 560.164C998.854 559.964 999.118 559.808 999.43 559.696C999.742 559.576 1000.09 559.516 1000.47 559.516C1000.86 559.516 1001.2 559.576 1001.51 559.696C1001.82 559.808 1002.08 559.964 1002.3 560.164C1002.52 560.364 1002.69 560.6 1002.8 560.872C1002.92 561.136 1002.98 561.424 1002.98 561.736C1002.98 562.216 1002.85 562.62 1002.6 562.948C1002.34 563.276 1002.03 563.508 1001.67 563.644C1002.11 563.772 1002.46 564.02 1002.72 564.388C1002.97 564.756 1003.1 565.208 1003.1 565.744C1003.1 566.072 1003.04 566.38 1002.91 566.668C1002.79 566.948 1002.61 567.196 1002.38 567.412C1002.16 567.62 1001.88 567.784 1001.55 567.904C1001.23 568.024 1000.87 568.084 1000.47 568.084ZM1004.35 563.668H1007.52V564.652H1004.35V563.668ZM1011.27 568.084C1010.85 568.084 1010.47 568.02 1010.14 567.892C1009.81 567.764 1009.54 567.552 1009.31 567.256C1009.09 566.96 1008.92 566.572 1008.8 566.092C1008.69 565.612 1008.63 565.016 1008.63 564.304V563.104C1008.63 562.448 1008.69 561.892 1008.8 561.436C1008.92 560.972 1009.09 560.6 1009.31 560.32C1009.54 560.04 1009.81 559.836 1010.14 559.708C1010.47 559.58 1010.85 559.516 1011.27 559.516C1011.69 559.516 1012.07 559.58 1012.4 559.708C1012.73 559.836 1013 560.04 1013.23 560.32C1013.45 560.6 1013.62 560.972 1013.73 561.436C1013.85 561.892 1013.91 562.448 1013.91 563.104V564.304C1013.91 565.016 1013.85 565.612 1013.73 566.092C1013.62 566.572 1013.45 566.96 1013.23 567.256C1013 567.552 1012.73 567.764 1012.4 567.892C1012.07 568.02 1011.69 568.084 1011.27 568.084ZM1011.27 567.1C1011.51 567.1 1011.72 567.06 1011.91 566.98C1012.09 566.9 1012.25 566.756 1012.37 566.548C1012.51 566.332 1012.61 566.044 1012.67 565.684C1012.75 565.324 1012.78 564.864 1012.78 564.304V563.104C1012.78 562.592 1012.75 562.168 1012.67 561.832C1012.61 561.496 1012.51 561.228 1012.37 561.028C1012.25 560.828 1012.09 560.688 1011.91 560.608C1011.72 560.528 1011.51 560.488 1011.27 560.488C1011.03 560.488 1010.82 560.528 1010.63 560.608C1010.45 560.688 1010.29 560.828 1010.15 561.028C1010.03 561.228 1009.93 561.496 1009.85 561.832C1009.79 562.168 1009.76 562.592 1009.76 563.104V564.304C1009.76 564.864 1009.79 565.324 1009.85 565.684C1009.93 566.044 1010.03 566.332 1010.15 566.548C1010.29 566.756 1010.45 566.9 1010.63 566.98C1010.82 567.06 1011.03 567.1 1011.27 567.1ZM1018.83 566.092H1014.99V565.252L1018.66 559.6H1019.93V565.108H1020.75V566.092H1019.93V568H1018.83V566.092ZM1018.83 565.108V561.124L1016.22 565.108H1018.83Z" fill="#8EB2BF"/>
<rect x="999.333" y="549" width="1" height="1" fill="#C4D4DB"/>
<rect x="999.333" y="550" width="1" height="3" fill="#C4D4DB"/>
<rect x="1199.17" y="549" width="1" height="1" fill="#C4D4DB"/>
<rect x="1199.17" y="550" width="1" height="3" fill="#C4D4DB"/>
<path d="M-42.5384 506.833L-98 508.681L-2.44565 552H1199V193L1194.32 234.885V249.977L1190.31 245.049L1182.96 257.06L1180.29 275.847L1178.95 308.185V322.968L1172.27 313.729L1168.26 343.295L1166.26 378.405L1164.92 385.488L1155.57 383.948L1146.88 395.652L1140.2 378.405L1135.52 396.884L1132.18 392.264L1127.5 401.503L1117.48 346.683L1115.47 337.443L1106.79 338.367L1104.11 326.972L1094.09 329.744L1088.74 325.432L1076.05 311.573L1048.65 315.885L1043.31 307.261L1039.97 320.196L1035.96 314.961L1025.26 320.196L1021.26 313.729L1011.23 322.968L1007.89 278.927L1005.89 282.931L985.172 267.839L978.49 287.858L975.817 279.543L969.135 283.854L955.771 268.763L951.093 280.775L945.748 273.691L939.734 286.626L937.061 284.47L924.365 296.174L915.678 287.858L909.664 291.246L906.991 265.684L898.973 257.984L894.295 264.452L886.277 244.741L878.926 267.839L875.585 254.904H870.24L865.562 251.208L861.553 235.501L858.88 238.273L853.534 224.414L847.52 230.882L841.506 226.878L838.165 237.657V243.817L831.483 246.281L826.806 235.501L824.801 236.425L822.128 230.882L816.783 236.425L813.441 233.654L808.764 238.889L803.418 234.577L797.404 247.821L794.732 265.684L790.054 267.839L782.704 227.494L778.694 242.277L774.017 234.577L768.003 263.836L763.326 303.565L757.312 324.2L752.634 320.196L747.288 337.443L743.947 334.671L733.256 347.299L725.237 334.671L721.896 338.367L717.219 330.052L699.177 337.443L687.818 344.219L671.781 332.823L666.435 302.641L661.089 306.953L658.416 296.174L647.725 286.318L643 278.5L636.365 291.862L627.01 297.714L620.996 292.478L612.978 300.485L611.641 294.634L605.628 298.638L599.614 279.851L593.6 281.699L587.586 276.155L580.904 280.775L574.221 276.155L570.212 281.083L560.857 275.231L557.516 261.372L551.502 265.068L546.825 260.14L542.147 293.71L538.806 289.706L536.133 294.634L532.792 287.858L526.778 294.634L524.106 287.858L514.751 301.101L507.4 290.322L500.05 267.839L497.377 270.919L495.372 265.068L484.681 283.854L473.99 297.714L463.298 294.634L460.625 287.858L449.266 302.641L431.892 270.919L428.551 306.953L417.192 311.265V295.558L406.5 301.101L405.832 286.934L396.477 291.862V298.946L383.781 306.953L379.104 295.558L371.753 300.485L365.071 287.858L351.039 315.577L347.029 367.009L338.343 359.002L330.992 373.169L325.647 368.857L322.974 373.169L317.628 368.857L314.955 347.915L306.268 357.462L300.254 353.15L282.213 367.933L275.531 357.462L264.839 371.937L244.125 367.009L235.438 434.149L220.737 440.617V457.556L208.709 465.255V481.578L179.308 496.669L171.958 487.738L159.262 504.985H130.529L125.851 513.916L91.1041 506.833L76.4034 516.996L62.3709 511.145L8.91396 521L-2.44565 515.456L-17.1463 518.844L-42.5384 506.833Z" fill="url(#paint0_linear_117_2760)" fill-opacity="0.2"/>
<path d="M-98 508.681L-42.5384 506.833L-17.1463 518.844L-2.44565 515.456L8.91396 521L62.3709 511.145L76.4034 516.996L91.1041 506.833L125.851 513.916L130.529 504.985H159.262L171.958 487.738L179.308 496.669L208.709 481.578V465.255L220.737 457.556V440.617L235.438 434.149L244.125 367.009L264.839 371.937L275.531 357.462L282.213 367.933L300.254 353.15L306.268 357.462L314.955 347.915L317.628 368.857L322.974 373.169L325.647 368.857L330.992 373.169L338.343 359.002L347.029 367.009L351.039 315.577L365.071 287.858L371.753 300.485L379.104 295.558L383.781 306.953L396.477 298.946V291.862L405.832 286.934L406.5 301.101L417.192 295.558V311.265L428.551 306.953L431.892 270.919L449.266 302.641L460.625 287.858L463.298 294.634L473.99 297.714L484.681 283.854L495.372 265.068L497.377 270.919L500.05 267.839L507.4 290.322L514.751 301.101L524.106 287.858L526.778 294.634L532.792 287.858L536.133 294.634L538.806 289.706L542.147 293.71L546.825 260.14L551.502 265.068L557.516 261.372L560.857 275.231L570.212 281.083L574.221 276.155L580.904 280.775L587.586 276.155L593.6 281.699L599.614 279.851L605.628 298.638L611.641 294.634L612.978 300.485L620.996 292.478L627.01 297.714L636.365 291.862L643.056 278.5L647.725 286.318L658.416 296.174L661.089 306.953L666.435 302.641L671.781 332.823L687.818 344.219L699.177 337.443L717.219 330.052L721.896 338.367L725.237 334.671L733.256 347.299L743.947 334.671L747.288 337.443L752.634 320.196L757.312 324.2L763.326 303.565L768.003 263.836L774.017 234.577L778.694 242.277L782.704 227.494L790.054 267.839L794.732 265.684L797.404 247.821L803.418 234.577L808.764 238.889L813.441 233.654L816.783 236.425L822.128 230.882L824.801 236.425L826.806 235.501L831.483 246.281L838.165 243.817V237.657L841.506 226.878L847.52 230.882L853.534 224.414L858.88 238.273L861.553 235.501L865.562 251.208L870.24 254.904H875.585L878.926 267.839L886.277 244.741L894.295 264.452L898.973 257.984L906.991 265.684L909.664 291.246L915.678 287.858L924.365 296.174L937.061 284.47L939.734 286.626L945.748 273.691L951.093 280.775L955.771 268.763L969.135 283.854L975.817 279.543L978.49 287.858L985.172 267.839L1005.89 282.931L1007.89 278.927L1011.23 322.968L1021.26 313.729L1025.26 320.196L1035.96 314.961L1039.97 320.196L1043.31 307.261L1048.65 315.885L1076.05 311.573L1088.74 325.432L1094.09 329.744L1104.11 326.972L1106.79 338.367L1115.47 337.443L1117.48 346.683L1127.5 401.503L1132.18 392.264L1135.52 396.884L1140.2 378.405L1146.88 395.652L1155.57 383.948L1164.92 385.488L1166.26 378.405L1168.26 343.295L1172.27 313.729L1178.95 322.968V308.185L1180.29 275.847L1182.96 257.06L1190.31 245.049L1194.32 249.977V234.885L1199 193" stroke="#73C1BE"/>
<line x1="132.09" y1="505.299" x2="434.299" y2="271.91" stroke="#73C1BE" stroke-linecap="round" stroke-dasharray="4 4"/>
<line x1="245.143" y1="368.307" x2="364.307" y2="289.857" stroke="#73C1BE" stroke-linecap="round" stroke-dasharray="4 4"/>
<line x1="734.909" y1="346.299" x2="824.299" y2="230.091" stroke="#73C1BE" stroke-linecap="round" stroke-dasharray="4 4"/>
<line x1="1150.63" y1="391.395" x2="1199.39" y2="193.366" stroke="#73C1BE" stroke-linecap="round" stroke-dasharray="4 4"/>
<line x1="1009.32" y1="320.187" x2="896.187" y2="255.682" stroke="#F0BDBD" stroke-linecap="round" stroke-dasharray="4 4"/>
<line x1="1130.31" y1="399.84" x2="1077.84" y2="315.689" stroke="#F0BDBD" stroke-linecap="round" stroke-dasharray="4 4"/>
<line x1="160.119" y1="503.303" x2="496.303" y2="264.881" stroke="#73C1BE" stroke-linecap="round" stroke-dasharray="4 4"/>
<line x1="204.153" y1="483.31" x2="547.31" y2="264.847" stroke="#73C1BE" stroke-linecap="round" stroke-dasharray="4 4"/>
<line x1="451.336" y1="309.757" x2="438.757" y2="282.664" stroke="#F0BDBD" stroke-linecap="round" stroke-dasharray="4 4"/>
<line x1="519.293" y1="304.986" x2="495.986" y2="280.707" stroke="#F0BDBD" stroke-linecap="round" stroke-dasharray="4 4"/>
<line x1="687.32" y1="341.195" x2="560.195" y2="270.68" stroke="#F0BDBD" stroke-linecap="round" stroke-dasharray="4 4"/>
<g filter="url(#filter0_b_117_2760)">
<circle cx="160" cy="504" r="8" fill="#73C1BE" fill-opacity="0.2"/>
</g>
<circle cx="160" cy="504" r="4" fill="#185A7E"/>
<g filter="url(#filter1_b_117_2760)">
<circle cx="202" cy="487" r="8" fill="#73C1BE" fill-opacity="0.2"/>
</g>
<circle cx="202" cy="487" r="4" fill="#185A7E"/>
<g filter="url(#filter2_b_117_2760)">
<circle cx="130" cy="509" r="8" fill="#73C1BE" fill-opacity="0.2"/>
</g>
<circle cx="130" cy="509" r="4" fill="#185A7E"/>
<g filter="url(#filter3_b_117_2760)">
<circle cx="245" cy="369" r="8" fill="#73C1BE" fill-opacity="0.2"/>
</g>
<circle cx="245" cy="369" r="4" fill="#185A7E"/>
<g filter="url(#filter4_b_117_2760)">
<circle cx="365" cy="290" r="8" fill="#73C1BE" fill-opacity="0.2"/>
</g>
<circle cx="365" cy="290" r="4" fill="#185A7E"/>
<g filter="url(#filter5_b_117_2760)">
<circle cx="548" cy="265" r="8" fill="#73C1BE" fill-opacity="0.2"/>
</g>
<circle cx="548" cy="265" r="4" fill="#185A7E"/>
<g filter="url(#filter6_b_117_2760)">
<circle cx="735" cy="347" r="8" fill="#73C1BE" fill-opacity="0.2"/>
</g>
<circle cx="735" cy="347" r="4" fill="#185A7E"/>
<g filter="url(#filter7_b_117_2760)">
<circle cx="825" cy="230" r="8" fill="#73C1BE" fill-opacity="0.2"/>
</g>
<circle cx="825" cy="230" r="4" fill="#185A7E"/>
<g filter="url(#filter8_b_117_2760)">
<circle cx="1151" cy="392" r="8" fill="#73C1BE" fill-opacity="0.2"/>
</g>
<circle cx="1151" cy="392" r="4" fill="#185A7E"/>
<g filter="url(#filter9_b_117_2760)">
<circle cx="1078" cy="315" r="8" fill="#73C1BE" fill-opacity="0.2"/>
</g>
<circle cx="1078" cy="315" r="4" fill="#EB5757"/>
<g filter="url(#filter10_b_117_2760)">
<circle cx="1010" cy="320" r="8" fill="#73C1BE" fill-opacity="0.2"/>
</g>
<circle cx="1010" cy="320" r="4" fill="#EB5757"/>
<g filter="url(#filter11_b_117_2760)">
<circle cx="496" cy="279" r="8" fill="#73C1BE" fill-opacity="0.2"/>
</g>
<circle cx="496" cy="279" r="4" fill="#EB5757"/>
<g filter="url(#filter12_b_117_2760)">
<circle cx="439" cy="282" r="8" fill="#73C1BE" fill-opacity="0.2"/>
</g>
<circle cx="439" cy="282" r="4" fill="#EB5757"/>
<g filter="url(#filter13_b_117_2760)">
<circle cx="452" cy="310" r="8" fill="#73C1BE" fill-opacity="0.2"/>
</g>
<circle cx="452" cy="310" r="4" fill="#EB5757"/>
<g filter="url(#filter14_b_117_2760)">
<circle cx="520" cy="305" r="8" fill="#73C1BE" fill-opacity="0.2"/>
</g>
<circle cx="520" cy="305" r="4" fill="#EB5757"/>
<g filter="url(#filter15_b_117_2760)">
<circle cx="560" cy="270" r="8" fill="#73C1BE" fill-opacity="0.2"/>
</g>
<circle cx="560" cy="270" r="4" fill="#EB5757"/>
<g filter="url(#filter16_b_117_2760)">
<circle cx="688" cy="341" r="8" fill="#73C1BE" fill-opacity="0.2"/>
</g>
<circle cx="688" cy="341" r="4" fill="#EB5757"/>
<g filter="url(#filter17_b_117_2760)">
<circle cx="1131" cy="400" r="8" fill="#73C1BE" fill-opacity="0.2"/>
</g>
<circle cx="1131" cy="400" r="4" fill="#EB5757"/>
<g filter="url(#filter18_b_117_2760)">
<circle cx="896" cy="255" r="8" fill="#73C1BE" fill-opacity="0.2"/>
</g>
<circle cx="896" cy="255" r="4" fill="#EB5757"/>
<g filter="url(#filter19_b_117_2760)">
<circle cx="435" cy="272" r="8" fill="#73C1BE" fill-opacity="0.2"/>
</g>
<circle cx="435" cy="272" r="4" fill="#185A7E"/>
<g filter="url(#filter20_b_117_2760)">
<circle cx="497" cy="265" r="8" fill="#73C1BE" fill-opacity="0.2"/>
</g>
<circle cx="497" cy="265" r="4" fill="#185A7E"/>
<defs>
<filter id="filter0_b_117_2760" x="52" y="396" width="216" height="216" filterUnits="userSpaceOnUse" color-interpolation-filters="sRGB">
<feFlood flood-opacity="0" result="BackgroundImageFix"/>
<feGaussianBlur in="BackgroundImageFix" stdDeviation="50"/>
<feComposite in2="SourceAlpha" operator="in" result="effect1_backgroundBlur_117_2760"/>
<feBlend mode="normal" in="SourceGraphic" in2="effect1_backgroundBlur_117_2760" result="shape"/>
</filter>
<filter id="filter1_b_117_2760" x="94" y="379" width="216" height="216" filterUnits="userSpaceOnUse" color-interpolation-filters="sRGB">
<feFlood flood-opacity="0" result="BackgroundImageFix"/>
<feGaussianBlur in="BackgroundImageFix" stdDeviation="50"/>
<feComposite in2="SourceAlpha" operator="in" result="effect1_backgroundBlur_117_2760"/>
<feBlend mode="normal" in="SourceGraphic" in2="effect1_backgroundBlur_117_2760" result="shape"/>
</filter>
<filter id="filter2_b_117_2760" x="22" y="401" width="216" height="216" filterUnits="userSpaceOnUse" color-interpolation-filters="sRGB">
<feFlood flood-opacity="0" result="BackgroundImageFix"/>
<feGaussianBlur in="BackgroundImageFix" stdDeviation="50"/>
<feComposite in2="SourceAlpha" operator="in" result="effect1_backgroundBlur_117_2760"/>
<feBlend mode="normal" in="SourceGraphic" in2="effect1_backgroundBlur_117_2760" result="shape"/>
</filter>
<filter id="filter3_b_117_2760" x="137" y="261" width="216" height="216" filterUnits="userSpaceOnUse" color-interpolation-filters="sRGB">
<feFlood flood-opacity="0" result="BackgroundImageFix"/>
<feGaussianBlur in="BackgroundImageFix" stdDeviation="50"/>
<feComposite in2="SourceAlpha" operator="in" result="effect1_backgroundBlur_117_2760"/>
<feBlend mode="normal" in="SourceGraphic" in2="effect1_backgroundBlur_117_2760" result="shape"/>
</filter>
<filter id="filter4_b_117_2760" x="257" y="182" width="216" height="216" filterUnits="userSpaceOnUse" color-interpolation-filters="sRGB">
<feFlood flood-opacity="0" result="BackgroundImageFix"/>
<feGaussianBlur in="BackgroundImageFix" stdDeviation="50"/>
<feComposite in2="SourceAlpha" operator="in" result="effect1_backgroundBlur_117_2760"/>
<feBlend mode="normal" in="SourceGraphic" in2="effect1_backgroundBlur_117_2760" result="shape"/>
</filter>
<filter id="filter5_b_117_2760" x="440" y="157" width="216" height="216" filterUnits="userSpaceOnUse" color-interpolation-filters="sRGB">
<feFlood flood-opacity="0" result="BackgroundImageFix"/>
<feGaussianBlur in="BackgroundImageFix" stdDeviation="50"/>
<feComposite in2="SourceAlpha" operator="in" result="effect1_backgroundBlur_117_2760"/>
<feBlend mode="normal" in="SourceGraphic" in2="effect1_backgroundBlur_117_2760" result="shape"/>
</filter>
<filter id="filter6_b_117_2760" x="627" y="239" width="216" height="216" filterUnits="userSpaceOnUse" color-interpolation-filters="sRGB">
<feFlood flood-opacity="0" result="BackgroundImageFix"/>
<feGaussianBlur in="BackgroundImageFix" stdDeviation="50"/>
<feComposite in2="SourceAlpha" operator="in" result="effect1_backgroundBlur_117_2760"/>
<feBlend mode="normal" in="SourceGraphic" in2="effect1_backgroundBlur_117_2760" result="shape"/>
</filter>
<filter id="filter7_b_117_2760" x="717" y="122" width="216" height="216" filterUnits="userSpaceOnUse" color-interpolation-filters="sRGB">
<feFlood flood-opacity="0" result="BackgroundImageFix"/>
<feGaussianBlur in="BackgroundImageFix" stdDeviation="50"/>
<feComposite in2="SourceAlpha" operator="in" result="effect1_backgroundBlur_117_2760"/>
<feBlend mode="normal" in="SourceGraphic" in2="effect1_backgroundBlur_117_2760" result="shape"/>
</filter>
<filter id="filter8_b_117_2760" x="1043" y="284" width="216" height="216" filterUnits="userSpaceOnUse" color-interpolation-filters="sRGB">
<feFlood flood-opacity="0" result="BackgroundImageFix"/>
<feGaussianBlur in="BackgroundImageFix" stdDeviation="50"/>
<feComposite in2="SourceAlpha" operator="in" result="effect1_backgroundBlur_117_2760"/>
<feBlend mode="normal" in="SourceGraphic" in2="effect1_backgroundBlur_117_2760" result="shape"/>
</filter>
<filter id="filter9_b_117_2760" x="970" y="207" width="216" height="216" filterUnits="userSpaceOnUse" color-interpolation-filters="sRGB">
<feFlood flood-opacity="0" result="BackgroundImageFix"/>
<feGaussianBlur in="BackgroundImageFix" stdDeviation="50"/>
<feComposite in2="SourceAlpha" operator="in" result="effect1_backgroundBlur_117_2760"/>
<feBlend mode="normal" in="SourceGraphic" in2="effect1_backgroundBlur_117_2760" result="shape"/>
</filter>
<filter id="filter10_b_117_2760" x="902" y="212" width="216" height="216" filterUnits="userSpaceOnUse" color-interpolation-filters="sRGB">
<feFlood flood-opacity="0" result="BackgroundImageFix"/>
<feGaussianBlur in="BackgroundImageFix" stdDeviation="50"/>
<feComposite in2="SourceAlpha" operator="in" result="effect1_backgroundBlur_117_2760"/>
<feBlend mode="normal" in="SourceGraphic" in2="effect1_backgroundBlur_117_2760" result="shape"/>
</filter>
<filter id="filter11_b_117_2760" x="388" y="171" width="216" height="216" filterUnits="userSpaceOnUse" color-interpolation-filters="sRGB">
<feFlood flood-opacity="0" result="BackgroundImageFix"/>
<feGaussianBlur in="BackgroundImageFix" stdDeviation="50"/>
<feComposite in2="SourceAlpha" operator="in" result="effect1_backgroundBlur_117_2760"/>
<feBlend mode="normal" in="SourceGraphic" in2="effect1_backgroundBlur_117_2760" result="shape"/>
</filter>
<filter id="filter12_b_117_2760" x="331" y="174" width="216" height="216" filterUnits="userSpaceOnUse" color-interpolation-filters="sRGB">
<feFlood flood-opacity="0" result="BackgroundImageFix"/>
<feGaussianBlur in="BackgroundImageFix" stdDeviation="50"/>
<feComposite in2="SourceAlpha" operator="in" result="effect1_backgroundBlur_117_2760"/>
<feBlend mode="normal" in="SourceGraphic" in2="effect1_backgroundBlur_117_2760" result="shape"/>
</filter>
<filter id="filter13_b_117_2760" x="344" y="202" width="216" height="216" filterUnits="userSpaceOnUse" color-interpolation-filters="sRGB">
<feFlood flood-opacity="0" result="BackgroundImageFix"/>
<feGaussianBlur in="BackgroundImageFix" stdDeviation="50"/>
<feComposite in2="SourceAlpha" operator="in" result="effect1_backgroundBlur_117_2760"/>
<feBlend mode="normal" in="SourceGraphic" in2="effect1_backgroundBlur_117_2760" result="shape"/>
</filter>
<filter id="filter14_b_117_2760" x="412" y="197" width="216" height="216" filterUnits="userSpaceOnUse" color-interpolation-filters="sRGB">
<feFlood flood-opacity="0" result="BackgroundImageFix"/>
<feGaussianBlur in="BackgroundImageFix" stdDeviation="50"/>
<feComposite in2="SourceAlpha" operator="in" result="effect1_backgroundBlur_117_2760"/>
<feBlend mode="normal" in="SourceGraphic" in2="effect1_backgroundBlur_117_2760" result="shape"/>
</filter>
<filter id="filter15_b_117_2760" x="452" y="162" width="216" height="216" filterUnits="userSpaceOnUse" color-interpolation-filters="sRGB">
<feFlood flood-opacity="0" result="BackgroundImageFix"/>
<feGaussianBlur in="BackgroundImageFix" stdDeviation="50"/>
<feComposite in2="SourceAlpha" operator="in" result="effect1_backgroundBlur_117_2760"/>
<feBlend mode="normal" in="SourceGraphic" in2="effect1_backgroundBlur_117_2760" result="shape"/>
</filter>
<filter id="filter16_b_117_2760" x="580" y="233" width="216" height="216" filterUnits="userSpaceOnUse" color-interpolation-filters="sRGB">
<feFlood flood-opacity="0" result="BackgroundImageFix"/>
<feGaussianBlur in="BackgroundImageFix" stdDeviation="50"/>
<feComposite in2="SourceAlpha" operator="in" result="effect1_backgroundBlur_117_2760"/>
<feBlend mode="normal" in="SourceGraphic" in2="effect1_backgroundBlur_117_2760" result="shape"/>
</filter>
<filter id="filter17_b_117_2760" x="1023" y="292" width="216" height="216" filterUnits="userSpaceOnUse" color-interpolation-filters="sRGB">
<feFlood flood-opacity="0" result="BackgroundImageFix"/>
<feGaussianBlur in="BackgroundImageFix" stdDeviation="50"/>
<feComposite in2="SourceAlpha" operator="in" result="effect1_backgroundBlur_117_2760"/>
<feBlend mode="normal" in="SourceGraphic" in2="effect1_backgroundBlur_117_2760" result="shape"/>
</filter>
<filter id="filter18_b_117_2760" x="788" y="147" width="216" height="216" filterUnits="userSpaceOnUse" color-interpolation-filters="sRGB">
<feFlood flood-opacity="0" result="BackgroundImageFix"/>
<feGaussianBlur in="BackgroundImageFix" stdDeviation="50"/>
<feComposite in2="SourceAlpha" operator="in" result="effect1_backgroundBlur_117_2760"/>
<feBlend mode="normal" in="SourceGraphic" in2="effect1_backgroundBlur_117_2760" result="shape"/>
</filter>
<filter id="filter19_b_117_2760" x="327" y="164" width="216" height="216" filterUnits="userSpaceOnUse" color-interpolation-filters="sRGB">
<feFlood flood-opacity="0" result="BackgroundImageFix"/>
<feGaussianBlur in="BackgroundImageFix" stdDeviation="50"/>
<feComposite in2="SourceAlpha" operator="in" result="effect1_backgroundBlur_117_2760"/>
<feBlend mode="normal" in="SourceGraphic" in2="effect1_backgroundBlur_117_2760" result="shape"/>
</filter>
<filter id="filter20_b_117_2760" x="389" y="157" width="216" height="216" filterUnits="userSpaceOnUse" color-interpolation-filters="sRGB">
<feFlood flood-opacity="0" result="BackgroundImageFix"/>
<feGaussianBlur in="BackgroundImageFix" stdDeviation="50"/>
<feComposite in2="SourceAlpha" operator="in" result="effect1_backgroundBlur_117_2760"/>
<feBlend mode="normal" in="SourceGraphic" in2="effect1_backgroundBlur_117_2760" result="shape"/>
</filter>
<linearGradient id="paint0_linear_117_2760" x1="550.5" y1="193" x2="550.5" y2="552" gradientUnits="userSpaceOnUse">
<stop stop-color="#73C1BE"/>
<stop offset="1" stop-color="#73C1BE" stop-opacity="0.2"/>
</linearGradient>
</defs>
</svg>
