<svg width="1199" height="421" viewBox="0 0 1199 421" fill="none" xmlns="http://www.w3.org/2000/svg">
<g clip-path="url(#clip0_369_3114)">
<rect width="960" height="24" transform="translate(120 397)" fill="#0085FF" fill-opacity="0.04"/>
<path d="M120 408.444L122.087 408.568L124.174 407.698L126.261 407.822L128.348 408.941L130.435 409.065L132.522 405.586L134.609 405.213L136.696 405.089L138.783 405.213L142.957 404.964L145.043 405.337L147.13 403.97L149.217 403.722L151.304 403.846L153.391 402.231L155.478 400.74L157.565 403.722L159.652 404.467L161.739 402.976L163.826 403.722L165.913 406.456L168 407.947L170.087 407.822L172.174 408.444L174.261 406.953L176.348 409.065L178.435 407.822L180.522 409.065L182.609 408.941L184.696 407.947L186.783 407.822L188.87 406.083L190.957 403.225L193.043 402.852L195.13 402.728L197.217 402.852L199.304 401.734L201.391 401.858L203.478 401.112L205.565 403.101L207.652 401.237L209.739 399.497L211.826 399.373L213.913 400.864L218.087 401.112L220.174 401.982L222.261 403.473L224.348 404.095L226.435 403.722L228.522 404.964L230.609 404.716H232.696L234.783 405.213L236.87 404.343L238.957 404.467L241.043 402.231L243.13 401.609L245.217 401.485L247.304 400.74L249.391 400.615L251.478 400.74L253.565 402.479L255.652 401.982L257.739 400.615L259.826 400.74L261.913 400.615L264 400.118L266.087 399.994L268.174 400.118L270.261 401.112L272.348 401.237H274.435L276.522 400.864L278.609 400.74L280.696 401.361L282.783 399L284.87 401.485L286.957 401.361L289.043 401.485L291.13 399.994L293.217 400.118L295.304 399.994L297.391 400.118L299.478 399.994L301.565 400.864L303.652 402.231L305.739 400.367L307.826 402.604L309.913 404.716L312 404.592L314.087 404.84L316.174 402.728L318.261 401.361L320.348 401.237L322.435 401.361L324.522 401.237L326.609 403.598L328.696 405.71L330.783 406.953L332.87 401.237L334.957 401.734L337.043 401.609L339.13 401.112L341.217 400.988L343.304 401.982H345.391L347.478 402.106L349.565 401.982L351.652 400.988L353.739 400.864L355.826 399.497L357.913 400.367L360 400.491L362.087 399.249L364.174 399.497L366.261 401.982L368.348 402.106L370.435 401.982L372.522 401.113L374.609 401.982L376.696 401.858L378.783 400.74L380.87 400.615L382.957 404.095L385.043 404.468L387.13 404.592L389.217 404.468L393.391 404.716L395.478 404.343L397.565 405.71L399.652 405.959L401.739 405.834L403.826 407.45L405.913 408.941L408 405.959L410.087 405.213L412.174 406.704L414.261 405.959L416.348 403.225L418.435 401.734L420.522 401.858L422.609 401.237L424.696 402.728L426.783 400.615L428.87 401.858L430.957 400.615L433.043 400.74L435.13 401.734L437.217 401.858L439.304 403.598L441.391 406.456L443.478 406.828L445.565 406.953L447.652 406.828L449.739 407.947L451.826 407.823L453.913 408.568L456 406.58L458.087 408.444L460.174 410.183L462.261 410.308L464.348 408.817L468.522 408.568L470.609 407.698L472.696 406.207L474.783 405.586L476.87 405.959L478.957 404.716L481.043 404.965H483.13L485.217 404.468L487.304 405.337L489.391 405.213L491.478 407.45L493.565 408.071L495.652 408.195L497.739 408.941L499.826 409.065L501.913 408.941L504 407.201L506.087 407.698L508.174 409.065L510.261 408.941L512.348 409.065L514.435 409.562L516.522 409.686L518.609 409.562L520.696 408.568L522.783 408.444H524.87L526.957 408.817L529.043 408.941L531.13 408.32L533.217 410.681L535.304 408.195L537.391 408.32L539.478 408.195L541.565 409.686L543.652 409.562L545.739 409.686L547.826 409.562L549.913 409.686L552 408.817L554.087 407.45L556.174 409.314L558.261 407.077L560.348 404.965L562.435 405.089L564.522 404.84L566.609 406.953L568.696 408.32L570.783 408.444L572.87 408.32L574.957 408.444L577.043 406.083L579.13 403.97L581.217 402.728L583.304 408.444L585.391 407.947L587.478 408.071L589.565 408.568L591.652 408.692L593.739 407.698H595.826L597.913 407.574L600 407.698L602.087 408.692L604.174 408.817L606.261 410.183L608.348 409.314L610.435 409.189L612.522 410.432L614.609 410.183L616.696 407.698L618.783 407.574L620.87 407.698H622.957L625.043 407.823L627.13 407.698L629.217 407.823L631.304 409.562L633.391 409.686L635.478 409.562L637.565 409.686L639.652 409.562L641.739 409.686L643.826 409.562L645.913 409.686L648 407.823L650.087 408.071H652.174L654.261 408.195L656.348 408.071L658.435 408.195L660.522 409.562L662.609 409.686L664.696 409.562L666.783 409.686L668.87 408.32L670.957 408.444L673.043 408.32L675.13 412.42L677.217 412.296L679.304 412.42L681.391 412.669L683.478 413.538L685.565 412.296L687.652 412.42L689.739 413.663L691.826 409.065L693.913 409.562L696 407.698L698.087 407.574L700.174 407.698L702.261 406.083L704.348 406.207L706.435 406.083L708.522 403.349L710.609 404.468L712.696 405.213L714.783 407.823L716.87 407.947L718.956 407.45L721.043 407.574L723.13 408.32L725.217 408.568L727.304 408.32L729.391 407.45L731.478 408.568L733.565 408.692L735.652 407.45L737.739 408.195L739.826 408.071L741.913 409.562L744 409.189L746.087 407.698L748.174 407.45L750.261 407.574L752.348 408.692L754.435 408.817L756.522 408.692L758.609 410.681L760.696 410.556L762.783 410.681L764.87 410.556L766.957 408.692L769.043 408.568L771.13 408.32L773.217 408.195L775.304 408.32L777.391 407.574H779.478L781.565 407.325L783.652 407.823L785.739 407.698L787.826 407.325L789.913 407.698L792 407.823L794.087 408.568L796.174 408.692L798.261 407.698L800.348 407.823L802.435 408.568L804.522 407.947L806.609 408.692L808.696 408.817L810.783 408.692L812.87 407.45L814.957 407.077L817.044 409.935L819.13 408.444L821.217 408.817L823.304 407.077L825.391 407.201L827.478 408.195L829.565 416.136L831.652 414.396H833.739L835.826 412.533L837.913 414.024L840 414.645L842.087 413.278L844.174 414.645H846.261L848.348 414.272L850.435 415.266L852.522 414.769L854.609 417.13L856.696 417.006L858.783 418L860.87 415.018L862.957 415.763L865.043 414.894L867.13 415.888L871.304 415.391L873.391 409.612L875.478 409.488L877.565 411.103L879.652 412.595L881.739 409.612L883.826 408.867L885.913 410.358L888 409.612L890.087 406.879L892.174 405.388L894.261 405.512L896.348 404.89L898.435 406.382L900.522 404.269L902.609 405.512L904.696 404.269L906.783 404.393L908.87 405.388L910.957 405.512L913.043 407.251L915.13 410.109L917.217 410.482L919.304 410.606L921.391 410.482L923.478 411.601L925.565 411.476L927.652 412.222L929.739 410.234L931.826 412.098L933.913 413.837L936 413.961L938.087 412.47L942.261 412.222L944.348 411.352L946.435 409.861L948.522 409.24L950.609 409.612L952.696 408.37L954.783 408.618H956.87L958.957 408.121L961.043 408.991L963.13 408.867L965.217 411.103L967.304 411.725L969.391 411.849L971.478 412.595L973.565 412.719L975.652 412.595L977.739 410.855L979.826 411.352L981.913 412.719L984 412.595L986.087 412.719L988.174 413.216L990.261 413.34L992.348 413.216L994.435 412.222L996.522 412.098H998.609L1000.7 412.47L1002.78 412.595L1004.87 411.973L1006.96 414.334L1009.04 411.849L1011.13 411.973L1013.22 411.849L1015.3 413.34L1017.39 413.216L1019.48 413.34L1021.57 413.216L1023.65 413.34L1025.74 412.47L1027.83 411.103L1029.91 412.967L1032 410.731L1034.09 408.618L1036.17 408.743L1038.26 408.494L1040.35 410.606L1042.43 411.973L1044.52 412.098L1046.61 411.973L1048.7 412.098L1050.78 409.737L1052.87 407.624L1054.96 406.382L1057.04 412.098L1059.13 411.601L1061.22 411.725L1063.3 412.222L1065.39 412.346L1067.48 411.352H1069.57L1071.65 411.228L1073.74 411.352L1075.83 412.346L1077.91 412.47L1080 413.837" stroke="#8EB2BF" stroke-linejoin="round"/>
<path d="M174.852 413.1L177.912 409.764C178.248 409.388 178.508 409.068 178.692 408.804C178.884 408.54 178.98 408.256 178.98 407.952C178.98 407.512 178.848 407.16 178.584 406.896C178.32 406.632 177.968 406.5 177.528 406.5C177.088 406.5 176.736 406.632 176.472 406.896C176.208 407.16 176.076 407.512 176.076 407.952H174.972C174.972 407.616 175.036 407.3 175.164 407.004C175.292 406.708 175.468 406.452 175.692 406.236C175.924 406.012 176.196 405.836 176.508 405.708C176.82 405.58 177.16 405.516 177.528 405.516C177.896 405.516 178.236 405.58 178.548 405.708C178.86 405.836 179.128 406.012 179.352 406.236C179.584 406.452 179.764 406.708 179.892 407.004C180.02 407.3 180.084 407.616 180.084 407.952C180.084 408.168 180.044 408.38 179.964 408.588C179.892 408.796 179.792 409.004 179.664 409.212C179.536 409.412 179.384 409.616 179.208 409.824C179.032 410.024 178.848 410.232 178.656 410.448L176.268 413.016H180.084V414H174.852V413.1ZM184.066 414.084C183.642 414.084 183.266 414.02 182.938 413.892C182.61 413.764 182.334 413.552 182.11 413.256C181.886 412.96 181.714 412.572 181.594 412.092C181.482 411.612 181.426 411.016 181.426 410.304V409.104C181.426 408.448 181.482 407.892 181.594 407.436C181.714 406.972 181.886 406.6 182.11 406.32C182.334 406.04 182.61 405.836 182.938 405.708C183.266 405.58 183.642 405.516 184.066 405.516C184.49 405.516 184.866 405.58 185.194 405.708C185.522 405.836 185.798 406.04 186.022 406.32C186.246 406.6 186.414 406.972 186.526 407.436C186.646 407.892 186.706 408.448 186.706 409.104V410.304C186.706 411.016 186.646 411.612 186.526 412.092C186.414 412.572 186.246 412.96 186.022 413.256C185.798 413.552 185.522 413.764 185.194 413.892C184.866 414.02 184.49 414.084 184.066 414.084ZM184.066 413.1C184.306 413.1 184.518 413.06 184.702 412.98C184.886 412.9 185.042 412.756 185.17 412.548C185.306 412.332 185.406 412.044 185.47 411.684C185.542 411.324 185.578 410.864 185.578 410.304V409.104C185.578 408.592 185.542 408.168 185.47 407.832C185.406 407.496 185.306 407.228 185.17 407.028C185.042 406.828 184.886 406.688 184.702 406.608C184.518 406.528 184.306 406.488 184.066 406.488C183.826 406.488 183.614 406.528 183.43 406.608C183.246 406.688 183.086 406.828 182.95 407.028C182.822 407.228 182.722 407.496 182.65 407.832C182.586 408.168 182.554 408.592 182.554 409.104V410.304C182.554 410.864 182.586 411.324 182.65 411.684C182.722 412.044 182.822 412.332 182.95 412.548C183.086 412.756 183.246 412.9 183.43 412.98C183.614 413.06 183.826 413.1 184.066 413.1ZM188.047 413.1L191.107 409.764C191.443 409.388 191.703 409.068 191.887 408.804C192.079 408.54 192.175 408.256 192.175 407.952C192.175 407.512 192.043 407.16 191.779 406.896C191.515 406.632 191.163 406.5 190.723 406.5C190.283 406.5 189.931 406.632 189.667 406.896C189.403 407.16 189.271 407.512 189.271 407.952H188.167C188.167 407.616 188.231 407.3 188.359 407.004C188.487 406.708 188.663 406.452 188.887 406.236C189.119 406.012 189.391 405.836 189.703 405.708C190.015 405.58 190.355 405.516 190.723 405.516C191.091 405.516 191.431 405.58 191.743 405.708C192.055 405.836 192.323 406.012 192.547 406.236C192.779 406.452 192.959 406.708 193.087 407.004C193.215 407.3 193.279 407.616 193.279 407.952C193.279 408.168 193.239 408.38 193.159 408.588C193.087 408.796 192.987 409.004 192.859 409.212C192.731 409.412 192.579 409.616 192.403 409.824C192.227 410.024 192.043 410.232 191.851 410.448L189.463 413.016H193.279V414H188.047V413.1ZM194.645 413.1L197.705 409.764C198.041 409.388 198.301 409.068 198.485 408.804C198.677 408.54 198.773 408.256 198.773 407.952C198.773 407.512 198.641 407.16 198.377 406.896C198.113 406.632 197.761 406.5 197.321 406.5C196.881 406.5 196.529 406.632 196.265 406.896C196.001 407.16 195.869 407.512 195.869 407.952H194.765C194.765 407.616 194.829 407.3 194.957 407.004C195.085 406.708 195.261 406.452 195.485 406.236C195.717 406.012 195.989 405.836 196.301 405.708C196.613 405.58 196.953 405.516 197.321 405.516C197.689 405.516 198.029 405.58 198.341 405.708C198.653 405.836 198.921 406.012 199.145 406.236C199.377 406.452 199.557 406.708 199.685 407.004C199.813 407.3 199.877 407.616 199.877 407.952C199.877 408.168 199.837 408.38 199.757 408.588C199.685 408.796 199.585 409.004 199.457 409.212C199.329 409.412 199.177 409.616 199.001 409.824C198.825 410.024 198.641 410.232 198.449 410.448L196.061 413.016H199.877V414H194.645V413.1ZM201.015 409.668H204.183V410.652H201.015V409.668ZM205.729 413.016H207.745V406.836L205.741 408.288V407.052L207.745 405.6H208.873V413.016H210.529V414H205.729V413.016ZM211.918 413.1L214.978 409.764C215.314 409.388 215.574 409.068 215.758 408.804C215.95 408.54 216.046 408.256 216.046 407.952C216.046 407.512 215.914 407.16 215.65 406.896C215.386 406.632 215.034 406.5 214.594 406.5C214.154 406.5 213.802 406.632 213.538 406.896C213.274 407.16 213.142 407.512 213.142 407.952H212.038C212.038 407.616 212.102 407.3 212.23 407.004C212.358 406.708 212.534 406.452 212.758 406.236C212.99 406.012 213.262 405.836 213.574 405.708C213.886 405.58 214.226 405.516 214.594 405.516C214.962 405.516 215.302 405.58 215.614 405.708C215.926 405.836 216.194 406.012 216.418 406.236C216.65 406.452 216.83 406.708 216.958 407.004C217.086 407.3 217.15 407.616 217.15 407.952C217.15 408.168 217.11 408.38 217.03 408.588C216.958 408.796 216.858 409.004 216.73 409.212C216.602 409.412 216.45 409.616 216.274 409.824C216.098 410.024 215.914 410.232 215.722 410.448L213.334 413.016H217.15V414H211.918V413.1Z" fill="#185A7E"/>
<rect opacity="0.6" width="3" height="24" transform="matrix(-1 0 0 1 229 397)" fill="#185A7E"/>
<rect opacity="0.1" x="229" y="397" width="743" height="24" fill="#185A7E"/>
<rect opacity="0.6" width="3" height="24" transform="matrix(-1 0 0 1 975 397)" fill="#185A7E"/>
<path d="M983.852 413.1L986.912 409.764C987.248 409.388 987.508 409.068 987.692 408.804C987.884 408.54 987.98 408.256 987.98 407.952C987.98 407.512 987.848 407.16 987.584 406.896C987.32 406.632 986.968 406.5 986.528 406.5C986.088 406.5 985.736 406.632 985.472 406.896C985.208 407.16 985.076 407.512 985.076 407.952H983.972C983.972 407.616 984.036 407.3 984.164 407.004C984.292 406.708 984.468 406.452 984.692 406.236C984.924 406.012 985.196 405.836 985.508 405.708C985.82 405.58 986.16 405.516 986.528 405.516C986.896 405.516 987.236 405.58 987.548 405.708C987.86 405.836 988.128 406.012 988.352 406.236C988.584 406.452 988.764 406.708 988.892 407.004C989.02 407.3 989.084 407.616 989.084 407.952C989.084 408.168 989.044 408.38 988.964 408.588C988.892 408.796 988.792 409.004 988.664 409.212C988.536 409.412 988.384 409.616 988.208 409.824C988.032 410.024 987.848 410.232 987.656 410.448L985.268 413.016H989.084V414H983.852V413.1ZM993.066 414.084C992.642 414.084 992.266 414.02 991.938 413.892C991.61 413.764 991.334 413.552 991.11 413.256C990.886 412.96 990.714 412.572 990.594 412.092C990.482 411.612 990.426 411.016 990.426 410.304V409.104C990.426 408.448 990.482 407.892 990.594 407.436C990.714 406.972 990.886 406.6 991.11 406.32C991.334 406.04 991.61 405.836 991.938 405.708C992.266 405.58 992.642 405.516 993.066 405.516C993.49 405.516 993.866 405.58 994.194 405.708C994.522 405.836 994.798 406.04 995.022 406.32C995.246 406.6 995.414 406.972 995.526 407.436C995.646 407.892 995.706 408.448 995.706 409.104V410.304C995.706 411.016 995.646 411.612 995.526 412.092C995.414 412.572 995.246 412.96 995.022 413.256C994.798 413.552 994.522 413.764 994.194 413.892C993.866 414.02 993.49 414.084 993.066 414.084ZM993.066 413.1C993.306 413.1 993.518 413.06 993.702 412.98C993.886 412.9 994.042 412.756 994.17 412.548C994.306 412.332 994.406 412.044 994.47 411.684C994.542 411.324 994.578 410.864 994.578 410.304V409.104C994.578 408.592 994.542 408.168 994.47 407.832C994.406 407.496 994.306 407.228 994.17 407.028C994.042 406.828 993.886 406.688 993.702 406.608C993.518 406.528 993.306 406.488 993.066 406.488C992.826 406.488 992.614 406.528 992.43 406.608C992.246 406.688 992.086 406.828 991.95 407.028C991.822 407.228 991.722 407.496 991.65 407.832C991.586 408.168 991.554 408.592 991.554 409.104V410.304C991.554 410.864 991.586 411.324 991.65 411.684C991.722 412.044 991.822 412.332 991.95 412.548C992.086 412.756 992.246 412.9 992.43 412.98C992.614 413.06 992.826 413.1 993.066 413.1ZM997.047 413.1L1000.11 409.764C1000.44 409.388 1000.7 409.068 1000.89 408.804C1001.08 408.54 1001.18 408.256 1001.18 407.952C1001.18 407.512 1001.04 407.16 1000.78 406.896C1000.52 406.632 1000.16 406.5 999.723 406.5C999.283 406.5 998.931 406.632 998.667 406.896C998.403 407.16 998.271 407.512 998.271 407.952H997.167C997.167 407.616 997.231 407.3 997.359 407.004C997.487 406.708 997.663 406.452 997.887 406.236C998.119 406.012 998.391 405.836 998.703 405.708C999.015 405.58 999.355 405.516 999.723 405.516C1000.09 405.516 1000.43 405.58 1000.74 405.708C1001.06 405.836 1001.32 406.012 1001.55 406.236C1001.78 406.452 1001.96 406.708 1002.09 407.004C1002.22 407.3 1002.28 407.616 1002.28 407.952C1002.28 408.168 1002.24 408.38 1002.16 408.588C1002.09 408.796 1001.99 409.004 1001.86 409.212C1001.73 409.412 1001.58 409.616 1001.4 409.824C1001.23 410.024 1001.04 410.232 1000.85 410.448L998.463 413.016H1002.28V414H997.047V413.1ZM1006.14 414.084C1005.74 414.084 1005.38 414.024 1005.05 413.904C1004.73 413.784 1004.45 413.62 1004.22 413.412C1004 413.196 1003.82 412.948 1003.69 412.668C1003.57 412.388 1003.51 412.084 1003.51 411.756H1004.63C1004.63 412.14 1004.76 412.46 1005.02 412.716C1005.3 412.972 1005.67 413.1 1006.14 413.1C1006.61 413.1 1006.98 412.972 1007.24 412.716C1007.52 412.452 1007.65 412.124 1007.65 411.732C1007.65 411.244 1007.51 410.864 1007.22 410.592C1006.93 410.312 1006.49 410.172 1005.9 410.172H1005.26V409.188H1005.9C1006.46 409.188 1006.87 409.064 1007.14 408.816C1007.4 408.568 1007.53 408.208 1007.53 407.736C1007.53 407.376 1007.41 407.08 1007.16 406.848C1006.92 406.616 1006.58 406.5 1006.14 406.5C1005.7 406.5 1005.36 406.616 1005.11 406.848C1004.87 407.072 1004.75 407.36 1004.75 407.712H1003.63C1003.63 407.408 1003.69 407.124 1003.8 406.86C1003.92 406.588 1004.09 406.356 1004.3 406.164C1004.52 405.964 1004.78 405.808 1005.1 405.696C1005.41 405.576 1005.76 405.516 1006.14 405.516C1006.52 405.516 1006.87 405.576 1007.17 405.696C1007.48 405.808 1007.75 405.964 1007.96 406.164C1008.19 406.364 1008.36 406.6 1008.47 406.872C1008.59 407.136 1008.65 407.424 1008.65 407.736C1008.65 408.216 1008.52 408.62 1008.26 408.948C1008.01 409.276 1007.7 409.508 1007.34 409.644C1007.78 409.772 1008.13 410.02 1008.38 410.388C1008.64 410.756 1008.77 411.208 1008.77 411.744C1008.77 412.072 1008.7 412.38 1008.58 412.668C1008.46 412.948 1008.28 413.196 1008.05 413.412C1007.82 413.62 1007.55 413.784 1007.22 413.904C1006.9 414.024 1006.54 414.084 1006.14 414.084ZM1010.01 409.668H1013.18V410.652H1010.01V409.668ZM1016.94 414.084C1016.51 414.084 1016.14 414.02 1015.81 413.892C1015.48 413.764 1015.2 413.552 1014.98 413.256C1014.76 412.96 1014.58 412.572 1014.46 412.092C1014.35 411.612 1014.3 411.016 1014.3 410.304V409.104C1014.3 408.448 1014.35 407.892 1014.46 407.436C1014.58 406.972 1014.76 406.6 1014.98 406.32C1015.2 406.04 1015.48 405.836 1015.81 405.708C1016.14 405.58 1016.51 405.516 1016.94 405.516C1017.36 405.516 1017.74 405.58 1018.06 405.708C1018.39 405.836 1018.67 406.04 1018.89 406.32C1019.12 406.6 1019.28 406.972 1019.4 407.436C1019.52 407.892 1019.58 408.448 1019.58 409.104V410.304C1019.58 411.016 1019.52 411.612 1019.4 412.092C1019.28 412.572 1019.12 412.96 1018.89 413.256C1018.67 413.552 1018.39 413.764 1018.06 413.892C1017.74 414.02 1017.36 414.084 1016.94 414.084ZM1016.94 413.1C1017.18 413.1 1017.39 413.06 1017.57 412.98C1017.76 412.9 1017.91 412.756 1018.04 412.548C1018.18 412.332 1018.28 412.044 1018.34 411.684C1018.41 411.324 1018.45 410.864 1018.45 410.304V409.104C1018.45 408.592 1018.41 408.168 1018.34 407.832C1018.28 407.496 1018.18 407.228 1018.04 407.028C1017.91 406.828 1017.76 406.688 1017.57 406.608C1017.39 406.528 1017.18 406.488 1016.94 406.488C1016.7 406.488 1016.48 406.528 1016.3 406.608C1016.12 406.688 1015.96 406.828 1015.82 407.028C1015.69 407.228 1015.59 407.496 1015.52 407.832C1015.46 408.168 1015.42 408.592 1015.42 409.104V410.304C1015.42 410.864 1015.46 411.324 1015.52 411.684C1015.59 412.044 1015.69 412.332 1015.82 412.548C1015.96 412.756 1016.12 412.9 1016.3 412.98C1016.48 413.06 1016.7 413.1 1016.94 413.1ZM1024.49 412.092H1020.65V411.252L1024.33 405.6H1025.6V411.108H1026.41V412.092H1025.6V414H1024.49V412.092ZM1024.49 411.108V407.124L1021.89 411.108H1024.49Z" fill="#185A7E"/>
<path d="M-42.5384 313.833L-98 315.681L-2.44565 359H1199V0L1194.32 41.8854V56.9765L1190.31 52.0488L1182.96 64.0601L1180.29 82.8469L1178.95 115.185V129.968L1172.27 120.729L1168.26 150.295L1166.26 185.405L1164.92 192.488L1155.57 190.948L1146.88 202.652L1140.2 185.405L1135.52 203.884L1132.18 199.264L1127.5 208.503L1117.48 153.683L1115.47 144.443L1106.79 145.367L1104.11 133.972L1094.09 136.744L1088.74 132.432L1076.05 118.573L1048.65 122.885L1043.31 114.261L1039.97 127.196L1035.96 121.961L1025.26 127.196L1021.26 120.729L1011.23 129.968L1007.89 85.9268L1005.89 89.9305L985.172 74.8394L978.49 94.8582L975.817 86.5427L969.135 90.8545L955.771 75.7634L951.093 87.7747L945.748 80.6911L939.734 93.6263L937.061 91.4704L924.365 103.174L915.678 94.8582L909.664 98.246L906.991 72.6836L898.973 64.984L894.295 71.4516L886.277 51.7408L878.926 74.8394L875.585 61.9042H870.24L865.562 58.2085L861.553 42.5014L858.88 45.2732L853.534 31.4141L847.52 37.8817L841.506 33.8779L838.165 44.6573V50.8169L831.483 53.2808L826.806 42.5014L824.801 43.4254L822.128 37.8817L816.783 43.4254L813.441 40.6535L808.764 45.8892L803.418 41.5775L797.404 54.8207L794.732 72.6836L790.054 74.8394L782.704 34.4939L778.694 49.277L774.017 41.5775L768.003 70.8357L763.326 110.565L757.312 131.2L752.634 127.196L747.288 144.443L743.947 141.671L733.256 154.299L725.237 141.671L721.896 145.367L717.219 137.052L699.177 144.443L687.818 151.219L671.781 139.823L666.435 109.641L661.089 113.953L658.416 103.174L647.725 93.3183L643 85.5L636.365 98.862L627.01 104.714L620.996 99.4779L612.978 107.485L611.641 101.634L605.628 105.638L599.614 86.8507L593.6 88.6986L587.586 83.1549L580.904 87.7747L574.221 83.1549L570.212 88.0826L560.857 82.231L557.516 68.3718L551.502 72.0676L546.825 67.1399L542.147 100.71L538.806 96.7061L536.133 101.634L532.792 94.8582L526.778 101.634L524.106 94.8582L514.751 108.101L507.4 97.3221L500.05 74.8394L497.377 77.9193L495.372 72.0676L484.681 90.8545L473.99 104.714L463.298 101.634L460.625 94.8582L449.266 109.641L431.892 77.9193L428.551 113.953L417.192 118.265V102.558L406.5 108.101L405.832 93.9343L396.477 98.862V105.946L383.781 113.953L379.104 102.558L371.753 107.485L365.071 94.8582L351.039 122.577L347.029 174.009L338.343 166.002L330.992 180.169L325.647 175.857L322.974 180.169L317.628 175.857L314.955 154.915L306.268 164.462L300.254 160.15L282.213 174.933L275.531 164.462L264.839 178.937L244.125 174.009L235.438 241.149L220.737 247.617V264.556L208.709 272.255V288.578L179.308 303.669L171.958 294.738L159.262 311.985H130.529L125.851 320.916L91.1041 313.833L76.4034 323.996L62.3709 318.145L8.91396 328L-2.44565 322.456L-17.1463 325.844L-42.5384 313.833Z" fill="url(#paint0_linear_369_3114)" fill-opacity="0.2"/>
<path d="M-98 315.681L-42.5384 313.833L-17.1463 325.844L-2.44565 322.456L8.91396 328L62.3709 318.145L76.4034 323.996L91.1041 313.833L125.851 320.916L130.529 311.985H159.262L171.958 294.738L179.308 303.669L208.709 288.578V272.255L220.737 264.556V247.617L235.438 241.149L244.125 174.009L264.839 178.937L275.531 164.462L282.213 174.933L300.254 160.15L306.268 164.462L314.955 154.915L317.628 175.857L322.974 180.169L325.647 175.857L330.992 180.169L338.343 166.002L347.029 174.009L351.039 122.577L365.071 94.8582L371.753 107.485L379.104 102.558L383.781 113.953L396.477 105.946V98.862L405.832 93.9343L406.5 108.101L417.192 102.558V118.265L428.551 113.953L431.892 77.9193L449.266 109.641L460.625 94.8582L463.298 101.634L473.99 104.714L484.681 90.8545L495.372 72.0676L497.377 77.9193L500.05 74.8394L507.4 97.3221L514.751 108.101L524.106 94.8582L526.778 101.634L532.792 94.8582L536.133 101.634L538.806 96.7061L542.147 100.71L546.825 67.1399L551.502 72.0676L557.516 68.3718L560.857 82.231L570.212 88.0826L574.221 83.1549L580.904 87.7747L587.586 83.1549L593.6 88.6986L599.614 86.8507L605.628 105.638L611.641 101.634L612.978 107.485L620.996 99.4779L627.01 104.714L636.365 98.862L643.056 85.5L647.725 93.3183L658.416 103.174L661.089 113.953L666.435 109.641L671.781 139.823L687.818 151.219L699.177 144.443L717.219 137.052L721.896 145.367L725.237 141.671L733.256 154.299L743.947 141.671L747.288 144.443L752.634 127.196L757.312 131.2L763.326 110.565L768.003 70.8357L774.017 41.5775L778.694 49.277L782.704 34.4939L790.054 74.8394L794.732 72.6836L797.404 54.8207L803.418 41.5775L808.764 45.8892L813.441 40.6535L816.783 43.4254L822.128 37.8817L824.801 43.4254L826.806 42.5014L831.483 53.2808L838.165 50.8169V44.6573L841.506 33.8779L847.52 37.8817L853.534 31.4141L858.88 45.2732L861.553 42.5014L865.562 58.2085L870.24 61.9042H875.585L878.926 74.8394L886.277 51.7408L894.295 71.4516L898.973 64.984L906.991 72.6836L909.664 98.246L915.678 94.8582L924.365 103.174L937.061 91.4704L939.734 93.6263L945.748 80.6911L951.093 87.7747L955.771 75.7634L969.135 90.8545L975.817 86.5427L978.49 94.8582L985.172 74.8394L1005.89 89.9305L1007.89 85.9268L1011.23 129.968L1021.26 120.729L1025.26 127.196L1035.96 121.961L1039.97 127.196L1043.31 114.261L1048.65 122.885L1076.05 118.573L1088.74 132.432L1094.09 136.744L1104.11 133.972L1106.79 145.367L1115.47 144.443L1117.48 153.683L1127.5 208.503L1132.18 199.264L1135.52 203.884L1140.2 185.405L1146.88 202.652L1155.57 190.948L1164.92 192.488L1166.26 185.405L1168.26 150.295L1172.27 120.729L1178.95 129.968V115.185L1180.29 82.8469L1182.96 64.0601L1190.31 52.0488L1194.32 56.9765V41.8854L1199 0" stroke="#73C1BE"/>
<line x1="132.09" y1="312.299" x2="434.299" y2="78.9099" stroke="#73C1BE" stroke-linecap="round" stroke-dasharray="4 4"/>
<line x1="245.143" y1="175.307" x2="364.307" y2="96.8573" stroke="#73C1BE" stroke-linecap="round" stroke-dasharray="4 4"/>
<line x1="734.909" y1="153.299" x2="824.299" y2="37.0915" stroke="#73C1BE" stroke-linecap="round" stroke-dasharray="4 4"/>
<line x1="1150.63" y1="198.395" x2="1199.39" y2="0.365955" stroke="#73C1BE" stroke-linecap="round" stroke-dasharray="4 4"/>
<line x1="1009.32" y1="127.187" x2="896.187" y2="62.682" stroke="#F0BDBD" stroke-linecap="round" stroke-dasharray="4 4"/>
<line x1="1130.31" y1="206.84" x2="1077.84" y2="122.689" stroke="#F0BDBD" stroke-linecap="round" stroke-dasharray="4 4"/>
<line x1="160.119" y1="310.303" x2="496.303" y2="71.8814" stroke="#73C1BE" stroke-linecap="round" stroke-dasharray="4 4"/>
<line x1="204.153" y1="290.31" x2="547.31" y2="71.8467" stroke="#73C1BE" stroke-linecap="round" stroke-dasharray="4 4"/>
<line x1="451.336" y1="116.757" x2="438.757" y2="89.6641" stroke="#F0BDBD" stroke-linecap="round" stroke-dasharray="4 4"/>
<line x1="519.293" y1="111.986" x2="495.986" y2="87.707" stroke="#F0BDBD" stroke-linecap="round" stroke-dasharray="4 4"/>
<line x1="687.32" y1="148.195" x2="560.195" y2="77.6798" stroke="#F0BDBD" stroke-linecap="round" stroke-dasharray="4 4"/>
<g filter="url(#filter0_b_369_3114)">
<circle cx="160" cy="311" r="8" fill="#73C1BE" fill-opacity="0.2"/>
</g>
<circle cx="160" cy="311" r="4" fill="#185A7E"/>
<g filter="url(#filter1_b_369_3114)">
<circle cx="202" cy="294" r="8" fill="#73C1BE" fill-opacity="0.2"/>
</g>
<circle cx="202" cy="294" r="4" fill="#185A7E"/>
<g filter="url(#filter2_b_369_3114)">
<circle cx="130" cy="316" r="8" fill="#73C1BE" fill-opacity="0.2"/>
</g>
<circle cx="130" cy="316" r="4" fill="#185A7E"/>
<g filter="url(#filter3_b_369_3114)">
<circle cx="245" cy="176" r="8" fill="#73C1BE" fill-opacity="0.2"/>
</g>
<circle cx="245" cy="176" r="4" fill="#185A7E"/>
<g filter="url(#filter4_b_369_3114)">
<circle cx="365" cy="97" r="8" fill="#73C1BE" fill-opacity="0.2"/>
</g>
<circle cx="365" cy="97" r="4" fill="#185A7E"/>
<g filter="url(#filter5_b_369_3114)">
<circle cx="548" cy="72" r="8" fill="#73C1BE" fill-opacity="0.2"/>
</g>
<circle cx="548" cy="72" r="4" fill="#185A7E"/>
<g filter="url(#filter6_b_369_3114)">
<circle cx="735" cy="154" r="8" fill="#73C1BE" fill-opacity="0.2"/>
</g>
<circle cx="735" cy="154" r="4" fill="#185A7E"/>
<g filter="url(#filter7_b_369_3114)">
<circle cx="825" cy="37" r="8" fill="#73C1BE" fill-opacity="0.2"/>
</g>
<circle cx="825" cy="37" r="4" fill="#185A7E"/>
<g filter="url(#filter8_b_369_3114)">
<circle cx="1151" cy="199" r="8" fill="#73C1BE" fill-opacity="0.2"/>
</g>
<circle cx="1151" cy="199" r="4" fill="#185A7E"/>
<g filter="url(#filter9_b_369_3114)">
<circle cx="1078" cy="122" r="8" fill="#73C1BE" fill-opacity="0.2"/>
</g>
<circle cx="1078" cy="122" r="4" fill="#EB5757"/>
<g filter="url(#filter10_b_369_3114)">
<circle cx="1010" cy="127" r="8" fill="#73C1BE" fill-opacity="0.2"/>
</g>
<circle cx="1010" cy="127" r="4" fill="#EB5757"/>
<g filter="url(#filter11_b_369_3114)">
<circle cx="496" cy="86" r="8" fill="#73C1BE" fill-opacity="0.2"/>
</g>
<circle cx="496" cy="86" r="4" fill="#EB5757"/>
<g filter="url(#filter12_b_369_3114)">
<circle cx="439" cy="89" r="8" fill="#73C1BE" fill-opacity="0.2"/>
</g>
<circle cx="439" cy="89" r="4" fill="#EB5757"/>
<g filter="url(#filter13_b_369_3114)">
<circle cx="452" cy="117" r="8" fill="#73C1BE" fill-opacity="0.2"/>
</g>
<circle cx="452" cy="117" r="4" fill="#EB5757"/>
<g filter="url(#filter14_b_369_3114)">
<circle cx="520" cy="112" r="8" fill="#73C1BE" fill-opacity="0.2"/>
</g>
<circle cx="520" cy="112" r="4" fill="#EB5757"/>
<g filter="url(#filter15_b_369_3114)">
<circle cx="560" cy="77" r="8" fill="#73C1BE" fill-opacity="0.2"/>
</g>
<circle cx="560" cy="77" r="4" fill="#EB5757"/>
<g filter="url(#filter16_b_369_3114)">
<circle cx="688" cy="148" r="8" fill="#73C1BE" fill-opacity="0.2"/>
</g>
<circle cx="688" cy="148" r="4" fill="#EB5757"/>
<g filter="url(#filter17_b_369_3114)">
<circle cx="1131" cy="207" r="8" fill="#73C1BE" fill-opacity="0.2"/>
</g>
<circle cx="1131" cy="207" r="4" fill="#EB5757"/>
<g filter="url(#filter18_b_369_3114)">
<circle cx="896" cy="62" r="8" fill="#73C1BE" fill-opacity="0.2"/>
</g>
<circle cx="896" cy="62" r="4" fill="#EB5757"/>
<g filter="url(#filter19_b_369_3114)">
<circle cx="435" cy="79" r="8" fill="#73C1BE" fill-opacity="0.2"/>
</g>
<circle cx="435" cy="79" r="4" fill="#185A7E"/>
<g filter="url(#filter20_b_369_3114)">
<circle cx="497" cy="72" r="8" fill="#73C1BE" fill-opacity="0.2"/>
</g>
<circle cx="497" cy="72" r="4" fill="#185A7E"/>
</g>
<defs>
<filter id="filter0_b_369_3114" x="52" y="203" width="216" height="216" filterUnits="userSpaceOnUse" color-interpolation-filters="sRGB">
<feFlood flood-opacity="0" result="BackgroundImageFix"/>
<feGaussianBlur in="BackgroundImageFix" stdDeviation="50"/>
<feComposite in2="SourceAlpha" operator="in" result="effect1_backgroundBlur_369_3114"/>
<feBlend mode="normal" in="SourceGraphic" in2="effect1_backgroundBlur_369_3114" result="shape"/>
</filter>
<filter id="filter1_b_369_3114" x="94" y="186" width="216" height="216" filterUnits="userSpaceOnUse" color-interpolation-filters="sRGB">
<feFlood flood-opacity="0" result="BackgroundImageFix"/>
<feGaussianBlur in="BackgroundImageFix" stdDeviation="50"/>
<feComposite in2="SourceAlpha" operator="in" result="effect1_backgroundBlur_369_3114"/>
<feBlend mode="normal" in="SourceGraphic" in2="effect1_backgroundBlur_369_3114" result="shape"/>
</filter>
<filter id="filter2_b_369_3114" x="22" y="208" width="216" height="216" filterUnits="userSpaceOnUse" color-interpolation-filters="sRGB">
<feFlood flood-opacity="0" result="BackgroundImageFix"/>
<feGaussianBlur in="BackgroundImageFix" stdDeviation="50"/>
<feComposite in2="SourceAlpha" operator="in" result="effect1_backgroundBlur_369_3114"/>
<feBlend mode="normal" in="SourceGraphic" in2="effect1_backgroundBlur_369_3114" result="shape"/>
</filter>
<filter id="filter3_b_369_3114" x="137" y="68" width="216" height="216" filterUnits="userSpaceOnUse" color-interpolation-filters="sRGB">
<feFlood flood-opacity="0" result="BackgroundImageFix"/>
<feGaussianBlur in="BackgroundImageFix" stdDeviation="50"/>
<feComposite in2="SourceAlpha" operator="in" result="effect1_backgroundBlur_369_3114"/>
<feBlend mode="normal" in="SourceGraphic" in2="effect1_backgroundBlur_369_3114" result="shape"/>
</filter>
<filter id="filter4_b_369_3114" x="257" y="-11" width="216" height="216" filterUnits="userSpaceOnUse" color-interpolation-filters="sRGB">
<feFlood flood-opacity="0" result="BackgroundImageFix"/>
<feGaussianBlur in="BackgroundImageFix" stdDeviation="50"/>
<feComposite in2="SourceAlpha" operator="in" result="effect1_backgroundBlur_369_3114"/>
<feBlend mode="normal" in="SourceGraphic" in2="effect1_backgroundBlur_369_3114" result="shape"/>
</filter>
<filter id="filter5_b_369_3114" x="440" y="-36" width="216" height="216" filterUnits="userSpaceOnUse" color-interpolation-filters="sRGB">
<feFlood flood-opacity="0" result="BackgroundImageFix"/>
<feGaussianBlur in="BackgroundImageFix" stdDeviation="50"/>
<feComposite in2="SourceAlpha" operator="in" result="effect1_backgroundBlur_369_3114"/>
<feBlend mode="normal" in="SourceGraphic" in2="effect1_backgroundBlur_369_3114" result="shape"/>
</filter>
<filter id="filter6_b_369_3114" x="627" y="46" width="216" height="216" filterUnits="userSpaceOnUse" color-interpolation-filters="sRGB">
<feFlood flood-opacity="0" result="BackgroundImageFix"/>
<feGaussianBlur in="BackgroundImageFix" stdDeviation="50"/>
<feComposite in2="SourceAlpha" operator="in" result="effect1_backgroundBlur_369_3114"/>
<feBlend mode="normal" in="SourceGraphic" in2="effect1_backgroundBlur_369_3114" result="shape"/>
</filter>
<filter id="filter7_b_369_3114" x="717" y="-71" width="216" height="216" filterUnits="userSpaceOnUse" color-interpolation-filters="sRGB">
<feFlood flood-opacity="0" result="BackgroundImageFix"/>
<feGaussianBlur in="BackgroundImageFix" stdDeviation="50"/>
<feComposite in2="SourceAlpha" operator="in" result="effect1_backgroundBlur_369_3114"/>
<feBlend mode="normal" in="SourceGraphic" in2="effect1_backgroundBlur_369_3114" result="shape"/>
</filter>
<filter id="filter8_b_369_3114" x="1043" y="91" width="216" height="216" filterUnits="userSpaceOnUse" color-interpolation-filters="sRGB">
<feFlood flood-opacity="0" result="BackgroundImageFix"/>
<feGaussianBlur in="BackgroundImageFix" stdDeviation="50"/>
<feComposite in2="SourceAlpha" operator="in" result="effect1_backgroundBlur_369_3114"/>
<feBlend mode="normal" in="SourceGraphic" in2="effect1_backgroundBlur_369_3114" result="shape"/>
</filter>
<filter id="filter9_b_369_3114" x="970" y="14" width="216" height="216" filterUnits="userSpaceOnUse" color-interpolation-filters="sRGB">
<feFlood flood-opacity="0" result="BackgroundImageFix"/>
<feGaussianBlur in="BackgroundImageFix" stdDeviation="50"/>
<feComposite in2="SourceAlpha" operator="in" result="effect1_backgroundBlur_369_3114"/>
<feBlend mode="normal" in="SourceGraphic" in2="effect1_backgroundBlur_369_3114" result="shape"/>
</filter>
<filter id="filter10_b_369_3114" x="902" y="19" width="216" height="216" filterUnits="userSpaceOnUse" color-interpolation-filters="sRGB">
<feFlood flood-opacity="0" result="BackgroundImageFix"/>
<feGaussianBlur in="BackgroundImageFix" stdDeviation="50"/>
<feComposite in2="SourceAlpha" operator="in" result="effect1_backgroundBlur_369_3114"/>
<feBlend mode="normal" in="SourceGraphic" in2="effect1_backgroundBlur_369_3114" result="shape"/>
</filter>
<filter id="filter11_b_369_3114" x="388" y="-22" width="216" height="216" filterUnits="userSpaceOnUse" color-interpolation-filters="sRGB">
<feFlood flood-opacity="0" result="BackgroundImageFix"/>
<feGaussianBlur in="BackgroundImageFix" stdDeviation="50"/>
<feComposite in2="SourceAlpha" operator="in" result="effect1_backgroundBlur_369_3114"/>
<feBlend mode="normal" in="SourceGraphic" in2="effect1_backgroundBlur_369_3114" result="shape"/>
</filter>
<filter id="filter12_b_369_3114" x="331" y="-19" width="216" height="216" filterUnits="userSpaceOnUse" color-interpolation-filters="sRGB">
<feFlood flood-opacity="0" result="BackgroundImageFix"/>
<feGaussianBlur in="BackgroundImageFix" stdDeviation="50"/>
<feComposite in2="SourceAlpha" operator="in" result="effect1_backgroundBlur_369_3114"/>
<feBlend mode="normal" in="SourceGraphic" in2="effect1_backgroundBlur_369_3114" result="shape"/>
</filter>
<filter id="filter13_b_369_3114" x="344" y="9" width="216" height="216" filterUnits="userSpaceOnUse" color-interpolation-filters="sRGB">
<feFlood flood-opacity="0" result="BackgroundImageFix"/>
<feGaussianBlur in="BackgroundImageFix" stdDeviation="50"/>
<feComposite in2="SourceAlpha" operator="in" result="effect1_backgroundBlur_369_3114"/>
<feBlend mode="normal" in="SourceGraphic" in2="effect1_backgroundBlur_369_3114" result="shape"/>
</filter>
<filter id="filter14_b_369_3114" x="412" y="4" width="216" height="216" filterUnits="userSpaceOnUse" color-interpolation-filters="sRGB">
<feFlood flood-opacity="0" result="BackgroundImageFix"/>
<feGaussianBlur in="BackgroundImageFix" stdDeviation="50"/>
<feComposite in2="SourceAlpha" operator="in" result="effect1_backgroundBlur_369_3114"/>
<feBlend mode="normal" in="SourceGraphic" in2="effect1_backgroundBlur_369_3114" result="shape"/>
</filter>
<filter id="filter15_b_369_3114" x="452" y="-31" width="216" height="216" filterUnits="userSpaceOnUse" color-interpolation-filters="sRGB">
<feFlood flood-opacity="0" result="BackgroundImageFix"/>
<feGaussianBlur in="BackgroundImageFix" stdDeviation="50"/>
<feComposite in2="SourceAlpha" operator="in" result="effect1_backgroundBlur_369_3114"/>
<feBlend mode="normal" in="SourceGraphic" in2="effect1_backgroundBlur_369_3114" result="shape"/>
</filter>
<filter id="filter16_b_369_3114" x="580" y="40" width="216" height="216" filterUnits="userSpaceOnUse" color-interpolation-filters="sRGB">
<feFlood flood-opacity="0" result="BackgroundImageFix"/>
<feGaussianBlur in="BackgroundImageFix" stdDeviation="50"/>
<feComposite in2="SourceAlpha" operator="in" result="effect1_backgroundBlur_369_3114"/>
<feBlend mode="normal" in="SourceGraphic" in2="effect1_backgroundBlur_369_3114" result="shape"/>
</filter>
<filter id="filter17_b_369_3114" x="1023" y="99" width="216" height="216" filterUnits="userSpaceOnUse" color-interpolation-filters="sRGB">
<feFlood flood-opacity="0" result="BackgroundImageFix"/>
<feGaussianBlur in="BackgroundImageFix" stdDeviation="50"/>
<feComposite in2="SourceAlpha" operator="in" result="effect1_backgroundBlur_369_3114"/>
<feBlend mode="normal" in="SourceGraphic" in2="effect1_backgroundBlur_369_3114" result="shape"/>
</filter>
<filter id="filter18_b_369_3114" x="788" y="-46" width="216" height="216" filterUnits="userSpaceOnUse" color-interpolation-filters="sRGB">
<feFlood flood-opacity="0" result="BackgroundImageFix"/>
<feGaussianBlur in="BackgroundImageFix" stdDeviation="50"/>
<feComposite in2="SourceAlpha" operator="in" result="effect1_backgroundBlur_369_3114"/>
<feBlend mode="normal" in="SourceGraphic" in2="effect1_backgroundBlur_369_3114" result="shape"/>
</filter>
<filter id="filter19_b_369_3114" x="327" y="-29" width="216" height="216" filterUnits="userSpaceOnUse" color-interpolation-filters="sRGB">
<feFlood flood-opacity="0" result="BackgroundImageFix"/>
<feGaussianBlur in="BackgroundImageFix" stdDeviation="50"/>
<feComposite in2="SourceAlpha" operator="in" result="effect1_backgroundBlur_369_3114"/>
<feBlend mode="normal" in="SourceGraphic" in2="effect1_backgroundBlur_369_3114" result="shape"/>
</filter>
<filter id="filter20_b_369_3114" x="389" y="-36" width="216" height="216" filterUnits="userSpaceOnUse" color-interpolation-filters="sRGB">
<feFlood flood-opacity="0" result="BackgroundImageFix"/>
<feGaussianBlur in="BackgroundImageFix" stdDeviation="50"/>
<feComposite in2="SourceAlpha" operator="in" result="effect1_backgroundBlur_369_3114"/>
<feBlend mode="normal" in="SourceGraphic" in2="effect1_backgroundBlur_369_3114" result="shape"/>
</filter>
<linearGradient id="paint0_linear_369_3114" x1="550.5" y1="0" x2="550.5" y2="359" gradientUnits="userSpaceOnUse">
<stop stop-color="#73C1BE"/>
<stop offset="1" stop-color="#73C1BE" stop-opacity="0.2"/>
</linearGradient>
<clipPath id="clip0_369_3114">
<rect width="1199" height="421" fill="white"/>
</clipPath>
</defs>
</svg>
