<svg width="80" height="80" viewBox="0 0 80 80" fill="none" xmlns="http://www.w3.org/2000/svg">
<g opacity="0.2">
<path d="M78.4001 72.7667L78.4001 62.743C78.4001 59.6501 75.9429 57.1427 72.9117 57.1427L63.0885 57.1427C60.0573 57.1427 57.6001 59.6501 57.6001 62.743L57.6001 72.7667C57.6001 75.8598 60.0573 78.3672 63.0885 78.3672L72.9117 78.3672C75.9429 78.3672 78.4001 75.8598 78.4001 72.7667Z" fill="#101619"/>
<path d="M78.4001 72.7667L78.4001 62.743C78.4001 59.6501 75.9429 57.1427 72.9117 57.1427L63.0885 57.1427C60.0573 57.1427 57.6001 59.6501 57.6001 62.743L57.6001 72.7667C57.6001 75.8598 60.0573 78.3672 63.0885 78.3672L72.9117 78.3672C75.9429 78.3672 78.4001 75.8598 78.4001 72.7667Z" fill="url(#paint0_linear_226_1504)" fill-opacity="0.2"/>
<path d="M57.0146 33.5132L57.0146 42.3153C56.8117 45.9576 55.4055 49.4224 53.025 52.1443L52.6655 52.4745C50.0058 54.9161 46.6058 56.353 43.033 56.5453L34.4429 56.5453C32.9465 56.5453 31.5111 57.152 30.4529 58.2318C29.3946 59.3117 28.8001 60.7763 28.8001 62.3035L28.8001 72.6093C28.8001 74.1363 29.3946 75.601 30.4529 76.6808C31.5111 77.7607 32.9465 78.3674 34.4429 78.3674L44.5426 78.3674C46.0393 78.3674 47.4745 77.7607 48.5327 76.6808C49.5909 75.601 50.1855 74.1363 50.1855 72.6093L50.1855 63.8438C50.3741 60.1982 51.7823 56.7288 54.1751 54.0147L54.4986 53.648C57.1631 51.2141 60.5602 49.7783 64.1311 49.577L72.7572 49.577C74.2537 49.577 75.689 48.9705 76.7473 47.8906C77.8055 46.8106 78.4001 45.3461 78.4001 43.819L78.4001 33.5132C78.4001 31.986 77.8055 30.5215 76.7473 29.4417C75.689 28.3618 74.2537 27.7551 72.7572 27.7551L62.6573 27.7551C61.1609 27.7551 59.7257 28.3618 58.6674 29.4417C57.6092 30.5215 57.0146 31.986 57.0146 33.5132Z" fill="#101619"/>
<path d="M57.0146 33.5132L57.0146 42.3153C56.8117 45.9576 55.4055 49.4224 53.025 52.1443L52.6655 52.4745C50.0058 54.9161 46.6058 56.353 43.033 56.5453L34.4429 56.5453C32.9465 56.5453 31.5111 57.152 30.4529 58.2318C29.3946 59.3117 28.8001 60.7763 28.8001 62.3035L28.8001 72.6093C28.8001 74.1363 29.3946 75.601 30.4529 76.6808C31.5111 77.7607 32.9465 78.3674 34.4429 78.3674L44.5426 78.3674C46.0393 78.3674 47.4745 77.7607 48.5327 76.6808C49.5909 75.601 50.1855 74.1363 50.1855 72.6093L50.1855 63.8438C50.3741 60.1982 51.7823 56.7288 54.1751 54.0147L54.4986 53.648C57.1631 51.2141 60.5602 49.7783 64.1311 49.577L72.7572 49.577C74.2537 49.577 75.689 48.9705 76.7473 47.8906C77.8055 46.8106 78.4001 45.3461 78.4001 43.819L78.4001 33.5132C78.4001 31.986 77.8055 30.5215 76.7473 29.4417C75.689 28.3618 74.2537 27.7551 72.7572 27.7551L62.6573 27.7551C61.1609 27.7551 59.7257 28.3618 58.6674 29.4417C57.6092 30.5215 57.0146 31.986 57.0146 33.5132Z" fill="url(#paint1_linear_226_1504)" fill-opacity="0.5"/>
<path d="M21.653 74.2597L21.653 65.5404C21.8838 61.9108 23.3595 58.4718 25.831 55.8037L26.8118 54.8229C29.5005 52.4042 32.9373 50.9807 36.5486 50.7902L45.268 50.7902C46.7778 50.7806 48.223 50.1766 49.2907 49.1091C50.3584 48.0413 50.9624 46.5961 50.9718 45.0862L50.9718 36.3669C51.1234 32.7672 52.5088 29.3293 54.8955 26.6304L55.8765 25.6495C58.565 23.2307 62.0018 21.8073 65.6131 21.6167L74.296 21.6167C75.8088 21.6167 77.2597 21.0157 78.3294 19.9461C79.399 18.8764 80 17.4256 80 15.9128L80 5.70384C80 4.19118 79.399 2.74025 78.3294 1.67069C77.2597 0.60098 75.8088 -1.83203e-07 74.296 -2.4933e-07L64.0872 -6.95571e-07C62.5744 -7.61697e-07 61.1235 0.600979 60.0539 1.67069C58.9842 2.74024 58.3832 4.19118 58.3832 5.70383L58.3832 14.3869C58.2155 18.0534 56.777 21.5473 54.3142 24.2689L53.3333 25.2498C50.64 27.6609 47.2061 29.0831 43.5968 29.2824L34.8773 29.2824C33.3675 29.2919 31.9222 29.896 30.8547 30.9636C29.787 32.0312 29.183 33.4766 29.1734 34.9863L29.1734 43.7056C28.9499 47.277 27.5293 50.6687 25.1408 53.3334L24.1598 54.3143C21.4666 56.7254 18.0325 58.1476 14.4232 58.3469L5.70384 58.3469C4.19392 58.3564 2.74879 58.9605 1.68111 60.0281C0.613431 61.0957 0.00959504 62.5411 -2.79975e-06 64.0508L-3.24758e-06 74.296C0.00959446 75.8059 0.61343 77.2512 1.68111 78.3188C2.74879 79.3864 4.19392 79.9905 5.70384 80L15.9491 80C17.4651 79.9904 18.916 79.3814 19.9846 78.306C21.0533 77.2305 21.6531 75.7758 21.653 74.2597Z" fill="#414042"/>
<path d="M21.653 74.2597L21.653 65.5404C21.8838 61.9108 23.3595 58.4718 25.831 55.8037L26.8118 54.8229C29.5005 52.4042 32.9373 50.9807 36.5486 50.7902L45.268 50.7902C46.7778 50.7806 48.223 50.1766 49.2907 49.1091C50.3584 48.0413 50.9624 46.5961 50.9718 45.0862L50.9718 36.3669C51.1234 32.7672 52.5088 29.3293 54.8955 26.6304L55.8765 25.6495C58.565 23.2307 62.0018 21.8073 65.6131 21.6167L74.296 21.6167C75.8088 21.6167 77.2597 21.0157 78.3294 19.9461C79.399 18.8764 80 17.4256 80 15.9128L80 5.70384C80 4.19118 79.399 2.74025 78.3294 1.67069C77.2597 0.60098 75.8088 -1.83203e-07 74.296 -2.4933e-07L64.0872 -6.95571e-07C62.5744 -7.61697e-07 61.1235 0.600979 60.0539 1.67069C58.9842 2.74024 58.3832 4.19118 58.3832 5.70383L58.3832 14.3869C58.2155 18.0534 56.777 21.5473 54.3142 24.2689L53.3333 25.2498C50.64 27.6609 47.2061 29.0831 43.5968 29.2824L34.8773 29.2824C33.3675 29.2919 31.9222 29.896 30.8547 30.9636C29.787 32.0312 29.183 33.4766 29.1734 34.9863L29.1734 43.7056C28.9499 47.277 27.5293 50.6687 25.1408 53.3334L24.1598 54.3143C21.4666 56.7254 18.0325 58.1476 14.4232 58.3469L5.70384 58.3469C4.19392 58.3564 2.74879 58.9605 1.68111 60.0281C0.613431 61.0957 0.00959504 62.5411 -2.79975e-06 64.0508L-3.24758e-06 74.296C0.00959446 75.8059 0.61343 77.2512 1.68111 78.3188C2.74879 79.3864 4.19392 79.9905 5.70384 80L15.9491 80C17.4651 79.9904 18.916 79.3814 19.9846 78.306C21.0533 77.2305 21.6531 75.7758 21.653 74.2597Z" fill="url(#paint2_linear_226_1504)"/>
<path d="M22.9856 44.8542L22.9856 36.0886C23.1743 32.4431 24.5823 28.9737 26.9751 26.2596L27.2986 25.8929C29.982 23.4434 33.4071 22.0067 37.0029 21.8219L45.629 21.8219C47.0824 21.8038 48.473 21.214 49.5109 20.1755C50.5487 19.137 51.1538 17.7298 51.2 16.2472L51.2 5.75804C51.2 4.23085 50.6055 2.76636 49.5472 1.68653C48.489 0.606689 47.0538 -1.81238e-07 45.5572 -2.46658e-07L35.4575 -6.88129e-07C33.9608 -7.53549e-07 32.5256 0.606688 31.4672 1.68652C30.409 2.76636 29.8146 4.23085 29.8146 5.75804L29.8146 14.5602C29.6117 18.2024 28.2055 21.6673 25.825 24.3892L25.4656 24.7193C22.8058 27.161 19.4058 28.5979 15.8332 28.7902L7.24308 28.7902C6.49892 28.7902 5.76227 28.9404 5.07539 29.232C4.38835 29.5237 3.76468 29.9512 3.2402 30.4898C2.71572 31.0282 2.30084 31.6674 2.0194 32.3703C1.73796 33.0731 1.5954 33.8258 1.6002 34.585L1.60019 44.8542C1.60019 46.3812 2.19459 47.8459 3.25283 48.9257C4.31107 50.0055 5.74644 50.6122 7.24308 50.6122L17.3428 50.6122C18.8392 50.6122 20.2746 50.0055 21.3328 48.9257C22.3911 47.8459 22.9856 46.3812 22.9856 44.8542Z" fill="#101619"/>
<path d="M22.9856 44.8542L22.9856 36.0886C23.1743 32.4431 24.5823 28.9737 26.9751 26.2596L27.2986 25.8929C29.982 23.4434 33.4071 22.0067 37.0029 21.8219L45.629 21.8219C47.0824 21.8038 48.473 21.214 49.5109 20.1755C50.5487 19.137 51.1538 17.7298 51.2 16.2472L51.2 5.75804C51.2 4.23085 50.6055 2.76636 49.5472 1.68653C48.489 0.606689 47.0538 -1.81238e-07 45.5572 -2.46658e-07L35.4575 -6.88129e-07C33.9608 -7.53549e-07 32.5256 0.606688 31.4672 1.68652C30.409 2.76636 29.8146 4.23085 29.8146 5.75804L29.8146 14.5602C29.6117 18.2024 28.2055 21.6673 25.825 24.3892L25.4656 24.7193C22.8058 27.161 19.4058 28.5979 15.8332 28.7902L7.24308 28.7902C6.49892 28.7902 5.76227 28.9404 5.07539 29.232C4.38835 29.5237 3.76468 29.9512 3.2402 30.4898C2.71572 31.0282 2.30084 31.6674 2.0194 32.3703C1.73796 33.0731 1.5954 33.8258 1.6002 34.585L1.60019 44.8542C1.60019 46.3812 2.19459 47.8459 3.25283 48.9257C4.31107 50.0055 5.74644 50.6122 7.24308 50.6122L17.3428 50.6122C18.8392 50.6122 20.2746 50.0055 21.3328 48.9257C22.3911 47.8459 22.9856 46.3812 22.9856 44.8542Z" fill="url(#paint3_linear_226_1504)" fill-opacity="0.5"/>
<path d="M22.4 16.826L22.4 6.03118C22.4 2.70024 19.9427 -1.07411e-07 16.9115 -2.39909e-07L7.08831 -6.69295e-07C4.05711 -8.01793e-07 1.59999 2.70024 1.59999 6.03118L1.59999 16.826C1.59999 20.1569 4.05711 22.8571 7.08831 22.8571L16.9115 22.8571C19.9427 22.8571 22.4 20.1569 22.4 16.826Z" fill="#101619"/>
<path d="M22.4 16.826L22.4 6.03118C22.4 2.70024 19.9427 -1.07411e-07 16.9115 -2.39909e-07L7.08831 -6.69295e-07C4.05711 -8.01793e-07 1.59999 2.70024 1.59999 6.03118L1.59999 16.826C1.59999 20.1569 4.05711 22.8571 7.08831 22.8571L16.9115 22.8571C19.9427 22.8571 22.4 20.1569 22.4 16.826Z" fill="url(#paint4_linear_226_1504)" fill-opacity="0.2"/>
</g>
<defs>
<linearGradient id="paint0_linear_226_1504" x1="57.6" y1="78.3672" x2="78.1426" y2="57.9" gradientUnits="userSpaceOnUse">
<stop stop-color="#13547A"/>
<stop offset="1" stop-color="#80D0C7"/>
</linearGradient>
<linearGradient id="paint1_linear_226_1504" x1="28.8001" y1="78.3674" x2="77.786" y2="29.561" gradientUnits="userSpaceOnUse">
<stop stop-color="#13547A"/>
<stop offset="1" stop-color="#80D0C7"/>
</linearGradient>
<linearGradient id="paint2_linear_226_1504" x1="-8.03456e-06" y1="80" x2="77.4194" y2="1.29033" gradientUnits="userSpaceOnUse">
<stop stop-color="#13547A"/>
<stop offset="1" stop-color="#80D0C7"/>
</linearGradient>
<linearGradient id="paint3_linear_226_1504" x1="1.60008" y1="50.6122" x2="50.586" y2="1.80595" gradientUnits="userSpaceOnUse">
<stop stop-color="#13547A"/>
<stop offset="1" stop-color="#80D0C7"/>
</linearGradient>
<linearGradient id="paint4_linear_226_1504" x1="1.59999" y1="22.8571" x2="23.6561" y2="2.45159" gradientUnits="userSpaceOnUse">
<stop stop-color="#13547A"/>
<stop offset="1" stop-color="#80D0C7"/>
</linearGradient>
</defs>
</svg>
