<svg width="1200" height="421" viewBox="0 0 1200 421" fill="none" xmlns="http://www.w3.org/2000/svg">
<g clip-path="url(#clip0_117_2760)">
<rect y="357" width="1" height="1" fill="#C4D4DB"/>
<rect y="358" width="1" height="3" fill="#C4D4DB"/>
<path d="M178.852 375.1L181.912 371.764C182.248 371.388 182.508 371.068 182.692 370.804C182.884 370.54 182.98 370.256 182.98 369.952C182.98 369.512 182.848 369.16 182.584 368.896C182.32 368.632 181.968 368.5 181.528 368.5C181.088 368.5 180.736 368.632 180.472 368.896C180.208 369.16 180.076 369.512 180.076 369.952H178.972C178.972 369.616 179.036 369.3 179.164 369.004C179.292 368.708 179.468 368.452 179.692 368.236C179.924 368.012 180.196 367.836 180.508 367.708C180.82 367.58 181.16 367.516 181.528 367.516C181.896 367.516 182.236 367.58 182.548 367.708C182.86 367.836 183.128 368.012 183.352 368.236C183.584 368.452 183.764 368.708 183.892 369.004C184.02 369.3 184.084 369.616 184.084 369.952C184.084 370.168 184.044 370.38 183.964 370.588C183.892 370.796 183.792 371.004 183.664 371.212C183.536 371.412 183.384 371.616 183.208 371.824C183.032 372.024 182.848 372.232 182.656 372.448L180.268 375.016H184.084V376H178.852V375.1ZM188.066 376.084C187.642 376.084 187.266 376.02 186.938 375.892C186.61 375.764 186.334 375.552 186.11 375.256C185.886 374.96 185.714 374.572 185.594 374.092C185.482 373.612 185.426 373.016 185.426 372.304V371.104C185.426 370.448 185.482 369.892 185.594 369.436C185.714 368.972 185.886 368.6 186.11 368.32C186.334 368.04 186.61 367.836 186.938 367.708C187.266 367.58 187.642 367.516 188.066 367.516C188.49 367.516 188.866 367.58 189.194 367.708C189.522 367.836 189.798 368.04 190.022 368.32C190.246 368.6 190.414 368.972 190.526 369.436C190.646 369.892 190.706 370.448 190.706 371.104V372.304C190.706 373.016 190.646 373.612 190.526 374.092C190.414 374.572 190.246 374.96 190.022 375.256C189.798 375.552 189.522 375.764 189.194 375.892C188.866 376.02 188.49 376.084 188.066 376.084ZM188.066 375.1C188.306 375.1 188.518 375.06 188.702 374.98C188.886 374.9 189.042 374.756 189.17 374.548C189.306 374.332 189.406 374.044 189.47 373.684C189.542 373.324 189.578 372.864 189.578 372.304V371.104C189.578 370.592 189.542 370.168 189.47 369.832C189.406 369.496 189.306 369.228 189.17 369.028C189.042 368.828 188.886 368.688 188.702 368.608C188.518 368.528 188.306 368.488 188.066 368.488C187.826 368.488 187.614 368.528 187.43 368.608C187.246 368.688 187.086 368.828 186.95 369.028C186.822 369.228 186.722 369.496 186.65 369.832C186.586 370.168 186.554 370.592 186.554 371.104V372.304C186.554 372.864 186.586 373.324 186.65 373.684C186.722 374.044 186.822 374.332 186.95 374.548C187.086 374.756 187.246 374.9 187.43 374.98C187.614 375.06 187.826 375.1 188.066 375.1ZM192.047 375.1L195.107 371.764C195.443 371.388 195.703 371.068 195.887 370.804C196.079 370.54 196.175 370.256 196.175 369.952C196.175 369.512 196.043 369.16 195.779 368.896C195.515 368.632 195.163 368.5 194.723 368.5C194.283 368.5 193.931 368.632 193.667 368.896C193.403 369.16 193.271 369.512 193.271 369.952H192.167C192.167 369.616 192.231 369.3 192.359 369.004C192.487 368.708 192.663 368.452 192.887 368.236C193.119 368.012 193.391 367.836 193.703 367.708C194.015 367.58 194.355 367.516 194.723 367.516C195.091 367.516 195.431 367.58 195.743 367.708C196.055 367.836 196.323 368.012 196.547 368.236C196.779 368.452 196.959 368.708 197.087 369.004C197.215 369.3 197.279 369.616 197.279 369.952C197.279 370.168 197.239 370.38 197.159 370.588C197.087 370.796 196.987 371.004 196.859 371.212C196.731 371.412 196.579 371.616 196.403 371.824C196.227 372.024 196.043 372.232 195.851 372.448L193.463 375.016H197.279V376H192.047V375.1ZM198.645 375.1L201.705 371.764C202.041 371.388 202.301 371.068 202.485 370.804C202.677 370.54 202.773 370.256 202.773 369.952C202.773 369.512 202.641 369.16 202.377 368.896C202.113 368.632 201.761 368.5 201.321 368.5C200.881 368.5 200.529 368.632 200.265 368.896C200.001 369.16 199.869 369.512 199.869 369.952H198.765C198.765 369.616 198.829 369.3 198.957 369.004C199.085 368.708 199.261 368.452 199.485 368.236C199.717 368.012 199.989 367.836 200.301 367.708C200.613 367.58 200.953 367.516 201.321 367.516C201.689 367.516 202.029 367.58 202.341 367.708C202.653 367.836 202.921 368.012 203.145 368.236C203.377 368.452 203.557 368.708 203.685 369.004C203.813 369.3 203.877 369.616 203.877 369.952C203.877 370.168 203.837 370.38 203.757 370.588C203.685 370.796 203.585 371.004 203.457 371.212C203.329 371.412 203.177 371.616 203.001 371.824C202.825 372.024 202.641 372.232 202.449 372.448L200.061 375.016H203.877V376H198.645V375.1ZM205.015 371.668H208.183V372.652H205.015V371.668ZM209.729 375.016H211.745V368.836L209.741 370.288V369.052L211.745 367.6H212.873V375.016H214.529V376H209.729V375.016ZM215.918 375.1L218.978 371.764C219.314 371.388 219.574 371.068 219.758 370.804C219.95 370.54 220.046 370.256 220.046 369.952C220.046 369.512 219.914 369.16 219.65 368.896C219.386 368.632 219.034 368.5 218.594 368.5C218.154 368.5 217.802 368.632 217.538 368.896C217.274 369.16 217.142 369.512 217.142 369.952H216.038C216.038 369.616 216.102 369.3 216.23 369.004C216.358 368.708 216.534 368.452 216.758 368.236C216.99 368.012 217.262 367.836 217.574 367.708C217.886 367.58 218.226 367.516 218.594 367.516C218.962 367.516 219.302 367.58 219.614 367.708C219.926 367.836 220.194 368.012 220.418 368.236C220.65 368.452 220.83 368.708 220.958 369.004C221.086 369.3 221.15 369.616 221.15 369.952C221.15 370.168 221.11 370.38 221.03 370.588C220.958 370.796 220.858 371.004 220.73 371.212C220.602 371.412 220.45 371.616 220.274 371.824C220.098 372.024 219.914 372.232 219.722 372.448L217.334 375.016H221.15V376H215.918V375.1Z" fill="#8EB2BF"/>
<rect x="200" y="357" width="1" height="1" fill="#C4D4DB"/>
<rect x="200" y="358" width="1" height="3" fill="#C4D4DB"/>
<path d="M418.685 375.1L421.745 371.764C422.081 371.388 422.341 371.068 422.525 370.804C422.717 370.54 422.813 370.256 422.813 369.952C422.813 369.512 422.681 369.16 422.417 368.896C422.153 368.632 421.801 368.5 421.361 368.5C420.921 368.5 420.569 368.632 420.305 368.896C420.041 369.16 419.909 369.512 419.909 369.952H418.805C418.805 369.616 418.869 369.3 418.997 369.004C419.125 368.708 419.301 368.452 419.525 368.236C419.757 368.012 420.029 367.836 420.341 367.708C420.653 367.58 420.993 367.516 421.361 367.516C421.729 367.516 422.069 367.58 422.381 367.708C422.693 367.836 422.961 368.012 423.185 368.236C423.417 368.452 423.597 368.708 423.725 369.004C423.853 369.3 423.917 369.616 423.917 369.952C423.917 370.168 423.877 370.38 423.797 370.588C423.725 370.796 423.625 371.004 423.497 371.212C423.369 371.412 423.217 371.616 423.041 371.824C422.865 372.024 422.681 372.232 422.489 372.448L420.101 375.016H423.917V376H418.685V375.1ZM427.899 376.084C427.475 376.084 427.099 376.02 426.771 375.892C426.443 375.764 426.167 375.552 425.943 375.256C425.719 374.96 425.547 374.572 425.427 374.092C425.315 373.612 425.259 373.016 425.259 372.304V371.104C425.259 370.448 425.315 369.892 425.427 369.436C425.547 368.972 425.719 368.6 425.943 368.32C426.167 368.04 426.443 367.836 426.771 367.708C427.099 367.58 427.475 367.516 427.899 367.516C428.323 367.516 428.699 367.58 429.027 367.708C429.355 367.836 429.631 368.04 429.855 368.32C430.079 368.6 430.247 368.972 430.359 369.436C430.479 369.892 430.539 370.448 430.539 371.104V372.304C430.539 373.016 430.479 373.612 430.359 374.092C430.247 374.572 430.079 374.96 429.855 375.256C429.631 375.552 429.355 375.764 429.027 375.892C428.699 376.02 428.323 376.084 427.899 376.084ZM427.899 375.1C428.139 375.1 428.351 375.06 428.535 374.98C428.719 374.9 428.875 374.756 429.003 374.548C429.139 374.332 429.239 374.044 429.303 373.684C429.375 373.324 429.411 372.864 429.411 372.304V371.104C429.411 370.592 429.375 370.168 429.303 369.832C429.239 369.496 429.139 369.228 429.003 369.028C428.875 368.828 428.719 368.688 428.535 368.608C428.351 368.528 428.139 368.488 427.899 368.488C427.659 368.488 427.447 368.528 427.263 368.608C427.079 368.688 426.919 368.828 426.783 369.028C426.655 369.228 426.555 369.496 426.483 369.832C426.419 370.168 426.387 370.592 426.387 371.104V372.304C426.387 372.864 426.419 373.324 426.483 373.684C426.555 374.044 426.655 374.332 426.783 374.548C426.919 374.756 427.079 374.9 427.263 374.98C427.447 375.06 427.659 375.1 427.899 375.1ZM431.881 375.1L434.941 371.764C435.277 371.388 435.537 371.068 435.721 370.804C435.913 370.54 436.009 370.256 436.009 369.952C436.009 369.512 435.877 369.16 435.613 368.896C435.349 368.632 434.997 368.5 434.557 368.5C434.117 368.5 433.765 368.632 433.501 368.896C433.237 369.16 433.105 369.512 433.105 369.952H432.001C432.001 369.616 432.065 369.3 432.193 369.004C432.321 368.708 432.497 368.452 432.721 368.236C432.953 368.012 433.225 367.836 433.537 367.708C433.849 367.58 434.189 367.516 434.557 367.516C434.925 367.516 435.265 367.58 435.577 367.708C435.889 367.836 436.157 368.012 436.381 368.236C436.613 368.452 436.793 368.708 436.921 369.004C437.049 369.3 437.113 369.616 437.113 369.952C437.113 370.168 437.073 370.38 436.993 370.588C436.921 370.796 436.821 371.004 436.693 371.212C436.565 371.412 436.413 371.616 436.237 371.824C436.061 372.024 435.877 372.232 435.685 372.448L433.297 375.016H437.113V376H431.881V375.1ZM440.974 376.084C440.574 376.084 440.21 376.024 439.882 375.904C439.562 375.784 439.286 375.62 439.054 375.412C438.83 375.196 438.654 374.948 438.526 374.668C438.406 374.388 438.346 374.084 438.346 373.756H439.462C439.462 374.14 439.594 374.46 439.858 374.716C440.13 374.972 440.502 375.1 440.974 375.1C441.446 375.1 441.814 374.972 442.078 374.716C442.35 374.452 442.486 374.124 442.486 373.732C442.486 373.244 442.342 372.864 442.054 372.592C441.766 372.312 441.326 372.172 440.734 372.172H440.098V371.188H440.734C441.294 371.188 441.706 371.064 441.97 370.816C442.234 370.568 442.366 370.208 442.366 369.736C442.366 369.376 442.242 369.08 441.994 368.848C441.754 368.616 441.414 368.5 440.974 368.5C440.534 368.5 440.19 368.616 439.942 368.848C439.702 369.072 439.582 369.36 439.582 369.712H438.466C438.466 369.408 438.522 369.124 438.634 368.86C438.754 368.588 438.922 368.356 439.138 368.164C439.354 367.964 439.618 367.808 439.93 367.696C440.242 367.576 440.59 367.516 440.974 367.516C441.358 367.516 441.702 367.576 442.006 367.696C442.318 367.808 442.582 367.964 442.798 368.164C443.022 368.364 443.19 368.6 443.302 368.872C443.422 369.136 443.482 369.424 443.482 369.736C443.482 370.216 443.354 370.62 443.098 370.948C442.842 371.276 442.534 371.508 442.174 371.644C442.614 371.772 442.962 372.02 443.218 372.388C443.474 372.756 443.602 373.208 443.602 373.744C443.602 374.072 443.538 374.38 443.41 374.668C443.29 374.948 443.114 375.196 442.882 375.412C442.658 375.62 442.382 375.784 442.054 375.904C441.734 376.024 441.374 376.084 440.974 376.084ZM444.848 371.668H448.016V372.652H444.848V371.668ZM451.77 376.084C451.346 376.084 450.97 376.02 450.642 375.892C450.314 375.764 450.038 375.552 449.814 375.256C449.59 374.96 449.418 374.572 449.298 374.092C449.186 373.612 449.13 373.016 449.13 372.304V371.104C449.13 370.448 449.186 369.892 449.298 369.436C449.418 368.972 449.59 368.6 449.814 368.32C450.038 368.04 450.314 367.836 450.642 367.708C450.97 367.58 451.346 367.516 451.77 367.516C452.194 367.516 452.57 367.58 452.898 367.708C453.226 367.836 453.502 368.04 453.726 368.32C453.95 368.6 454.118 368.972 454.23 369.436C454.35 369.892 454.41 370.448 454.41 371.104V372.304C454.41 373.016 454.35 373.612 454.23 374.092C454.118 374.572 453.95 374.96 453.726 375.256C453.502 375.552 453.226 375.764 452.898 375.892C452.57 376.02 452.194 376.084 451.77 376.084ZM451.77 375.1C452.01 375.1 452.222 375.06 452.406 374.98C452.59 374.9 452.746 374.756 452.874 374.548C453.01 374.332 453.11 374.044 453.174 373.684C453.246 373.324 453.282 372.864 453.282 372.304V371.104C453.282 370.592 453.246 370.168 453.174 369.832C453.11 369.496 453.01 369.228 452.874 369.028C452.746 368.828 452.59 368.688 452.406 368.608C452.222 368.528 452.01 368.488 451.77 368.488C451.53 368.488 451.318 368.528 451.134 368.608C450.95 368.688 450.79 368.828 450.654 369.028C450.526 369.228 450.426 369.496 450.354 369.832C450.29 370.168 450.258 370.592 450.258 371.104V372.304C450.258 372.864 450.29 373.324 450.354 373.684C450.426 374.044 450.526 374.332 450.654 374.548C450.79 374.756 450.95 374.9 451.134 374.98C451.318 375.06 451.53 375.1 451.77 375.1ZM456.16 375.016H458.176V368.836L456.172 370.288V369.052L458.176 367.6H459.304V375.016H460.96V376H456.16V375.016Z" fill="#8EB2BF"/>
<rect x="439.833" y="357" width="1" height="1" fill="#C4D4DB"/>
<rect x="439.833" y="358" width="1" height="3" fill="#C4D4DB"/>
<path d="M578.519 375.1L581.579 371.764C581.915 371.388 582.175 371.068 582.359 370.804C582.551 370.54 582.647 370.256 582.647 369.952C582.647 369.512 582.515 369.16 582.251 368.896C581.987 368.632 581.635 368.5 581.195 368.5C580.755 368.5 580.403 368.632 580.139 368.896C579.875 369.16 579.743 369.512 579.743 369.952H578.639C578.639 369.616 578.703 369.3 578.831 369.004C578.959 368.708 579.135 368.452 579.359 368.236C579.591 368.012 579.863 367.836 580.175 367.708C580.487 367.58 580.827 367.516 581.195 367.516C581.563 367.516 581.903 367.58 582.215 367.708C582.527 367.836 582.795 368.012 583.019 368.236C583.251 368.452 583.431 368.708 583.559 369.004C583.687 369.3 583.751 369.616 583.751 369.952C583.751 370.168 583.711 370.38 583.631 370.588C583.559 370.796 583.459 371.004 583.331 371.212C583.203 371.412 583.051 371.616 582.875 371.824C582.699 372.024 582.515 372.232 582.323 372.448L579.935 375.016H583.751V376H578.519V375.1ZM587.732 376.084C587.308 376.084 586.932 376.02 586.604 375.892C586.276 375.764 586 375.552 585.776 375.256C585.552 374.96 585.38 374.572 585.26 374.092C585.148 373.612 585.092 373.016 585.092 372.304V371.104C585.092 370.448 585.148 369.892 585.26 369.436C585.38 368.972 585.552 368.6 585.776 368.32C586 368.04 586.276 367.836 586.604 367.708C586.932 367.58 587.308 367.516 587.732 367.516C588.156 367.516 588.532 367.58 588.86 367.708C589.188 367.836 589.464 368.04 589.688 368.32C589.912 368.6 590.08 368.972 590.192 369.436C590.312 369.892 590.372 370.448 590.372 371.104V372.304C590.372 373.016 590.312 373.612 590.192 374.092C590.08 374.572 589.912 374.96 589.688 375.256C589.464 375.552 589.188 375.764 588.86 375.892C588.532 376.02 588.156 376.084 587.732 376.084ZM587.732 375.1C587.972 375.1 588.184 375.06 588.368 374.98C588.552 374.9 588.708 374.756 588.836 374.548C588.972 374.332 589.072 374.044 589.136 373.684C589.208 373.324 589.244 372.864 589.244 372.304V371.104C589.244 370.592 589.208 370.168 589.136 369.832C589.072 369.496 588.972 369.228 588.836 369.028C588.708 368.828 588.552 368.688 588.368 368.608C588.184 368.528 587.972 368.488 587.732 368.488C587.492 368.488 587.28 368.528 587.096 368.608C586.912 368.688 586.752 368.828 586.616 369.028C586.488 369.228 586.388 369.496 586.316 369.832C586.252 370.168 586.22 370.592 586.22 371.104V372.304C586.22 372.864 586.252 373.324 586.316 373.684C586.388 374.044 586.488 374.332 586.616 374.548C586.752 374.756 586.912 374.9 587.096 374.98C587.28 375.06 587.492 375.1 587.732 375.1ZM591.714 375.1L594.774 371.764C595.11 371.388 595.37 371.068 595.554 370.804C595.746 370.54 595.842 370.256 595.842 369.952C595.842 369.512 595.71 369.16 595.446 368.896C595.182 368.632 594.83 368.5 594.39 368.5C593.95 368.5 593.598 368.632 593.334 368.896C593.07 369.16 592.938 369.512 592.938 369.952H591.834C591.834 369.616 591.898 369.3 592.026 369.004C592.154 368.708 592.33 368.452 592.554 368.236C592.786 368.012 593.058 367.836 593.37 367.708C593.682 367.58 594.022 367.516 594.39 367.516C594.758 367.516 595.098 367.58 595.41 367.708C595.722 367.836 595.99 368.012 596.214 368.236C596.446 368.452 596.626 368.708 596.754 369.004C596.882 369.3 596.946 369.616 596.946 369.952C596.946 370.168 596.906 370.38 596.826 370.588C596.754 370.796 596.654 371.004 596.526 371.212C596.398 371.412 596.246 371.616 596.07 371.824C595.894 372.024 595.71 372.232 595.518 372.448L593.13 375.016H596.946V376H591.714V375.1ZM600.808 376.084C600.408 376.084 600.044 376.024 599.716 375.904C599.396 375.784 599.12 375.62 598.888 375.412C598.664 375.196 598.488 374.948 598.36 374.668C598.24 374.388 598.18 374.084 598.18 373.756H599.296C599.296 374.14 599.428 374.46 599.692 374.716C599.964 374.972 600.336 375.1 600.808 375.1C601.28 375.1 601.648 374.972 601.912 374.716C602.184 374.452 602.32 374.124 602.32 373.732C602.32 373.244 602.176 372.864 601.888 372.592C601.6 372.312 601.16 372.172 600.568 372.172H599.932V371.188H600.568C601.128 371.188 601.54 371.064 601.804 370.816C602.068 370.568 602.2 370.208 602.2 369.736C602.2 369.376 602.076 369.08 601.828 368.848C601.588 368.616 601.248 368.5 600.808 368.5C600.368 368.5 600.024 368.616 599.776 368.848C599.536 369.072 599.416 369.36 599.416 369.712H598.3C598.3 369.408 598.356 369.124 598.468 368.86C598.588 368.588 598.756 368.356 598.972 368.164C599.188 367.964 599.452 367.808 599.764 367.696C600.076 367.576 600.424 367.516 600.808 367.516C601.192 367.516 601.536 367.576 601.84 367.696C602.152 367.808 602.416 367.964 602.632 368.164C602.856 368.364 603.024 368.6 603.136 368.872C603.256 369.136 603.316 369.424 603.316 369.736C603.316 370.216 603.188 370.62 602.932 370.948C602.676 371.276 602.368 371.508 602.008 371.644C602.448 371.772 602.796 372.02 603.052 372.388C603.308 372.756 603.436 373.208 603.436 373.744C603.436 374.072 603.372 374.38 603.244 374.668C603.124 374.948 602.948 375.196 602.716 375.412C602.492 375.62 602.216 375.784 601.888 375.904C601.568 376.024 601.208 376.084 600.808 376.084ZM604.681 371.668H607.849V372.652H604.681V371.668ZM611.603 376.084C611.179 376.084 610.803 376.02 610.475 375.892C610.147 375.764 609.871 375.552 609.647 375.256C609.423 374.96 609.251 374.572 609.131 374.092C609.019 373.612 608.963 373.016 608.963 372.304V371.104C608.963 370.448 609.019 369.892 609.131 369.436C609.251 368.972 609.423 368.6 609.647 368.32C609.871 368.04 610.147 367.836 610.475 367.708C610.803 367.58 611.179 367.516 611.603 367.516C612.027 367.516 612.403 367.58 612.731 367.708C613.059 367.836 613.335 368.04 613.559 368.32C613.783 368.6 613.951 368.972 614.063 369.436C614.183 369.892 614.243 370.448 614.243 371.104V372.304C614.243 373.016 614.183 373.612 614.063 374.092C613.951 374.572 613.783 374.96 613.559 375.256C613.335 375.552 613.059 375.764 612.731 375.892C612.403 376.02 612.027 376.084 611.603 376.084ZM611.603 375.1C611.843 375.1 612.055 375.06 612.239 374.98C612.423 374.9 612.579 374.756 612.707 374.548C612.843 374.332 612.943 374.044 613.007 373.684C613.079 373.324 613.115 372.864 613.115 372.304V371.104C613.115 370.592 613.079 370.168 613.007 369.832C612.943 369.496 612.843 369.228 612.707 369.028C612.579 368.828 612.423 368.688 612.239 368.608C612.055 368.528 611.843 368.488 611.603 368.488C611.363 368.488 611.151 368.528 610.967 368.608C610.783 368.688 610.623 368.828 610.487 369.028C610.359 369.228 610.259 369.496 610.187 369.832C610.123 370.168 610.091 370.592 610.091 371.104V372.304C610.091 372.864 610.123 373.324 610.187 373.684C610.259 374.044 610.359 374.332 610.487 374.548C610.623 374.756 610.783 374.9 610.967 374.98C611.151 375.06 611.363 375.1 611.603 375.1ZM615.585 375.1L618.645 371.764C618.981 371.388 619.241 371.068 619.425 370.804C619.617 370.54 619.713 370.256 619.713 369.952C619.713 369.512 619.581 369.16 619.317 368.896C619.053 368.632 618.701 368.5 618.261 368.5C617.821 368.5 617.469 368.632 617.205 368.896C616.941 369.16 616.809 369.512 616.809 369.952H615.705C615.705 369.616 615.769 369.3 615.897 369.004C616.025 368.708 616.201 368.452 616.425 368.236C616.657 368.012 616.929 367.836 617.241 367.708C617.553 367.58 617.893 367.516 618.261 367.516C618.629 367.516 618.969 367.58 619.281 367.708C619.593 367.836 619.861 368.012 620.085 368.236C620.317 368.452 620.497 368.708 620.625 369.004C620.753 369.3 620.817 369.616 620.817 369.952C620.817 370.168 620.777 370.38 620.697 370.588C620.625 370.796 620.525 371.004 620.397 371.212C620.269 371.412 620.117 371.616 619.941 371.824C619.765 372.024 619.581 372.232 619.389 372.448L617.001 375.016H620.817V376H615.585V375.1Z" fill="#8EB2BF"/>
<rect x="599.667" y="357" width="1" height="1" fill="#C4D4DB"/>
<rect x="599.667" y="358" width="1" height="3" fill="#C4D4DB"/>
<path d="M778.352 375.1L781.412 371.764C781.748 371.388 782.008 371.068 782.192 370.804C782.384 370.54 782.48 370.256 782.48 369.952C782.48 369.512 782.348 369.16 782.084 368.896C781.82 368.632 781.468 368.5 781.028 368.5C780.588 368.5 780.236 368.632 779.972 368.896C779.708 369.16 779.576 369.512 779.576 369.952H778.472C778.472 369.616 778.536 369.3 778.664 369.004C778.792 368.708 778.968 368.452 779.192 368.236C779.424 368.012 779.696 367.836 780.008 367.708C780.32 367.58 780.66 367.516 781.028 367.516C781.396 367.516 781.736 367.58 782.048 367.708C782.36 367.836 782.628 368.012 782.852 368.236C783.084 368.452 783.264 368.708 783.392 369.004C783.52 369.3 783.584 369.616 783.584 369.952C783.584 370.168 783.544 370.38 783.464 370.588C783.392 370.796 783.292 371.004 783.164 371.212C783.036 371.412 782.884 371.616 782.708 371.824C782.532 372.024 782.348 372.232 782.156 372.448L779.768 375.016H783.584V376H778.352V375.1ZM787.566 376.084C787.142 376.084 786.766 376.02 786.438 375.892C786.11 375.764 785.834 375.552 785.61 375.256C785.386 374.96 785.214 374.572 785.094 374.092C784.982 373.612 784.926 373.016 784.926 372.304V371.104C784.926 370.448 784.982 369.892 785.094 369.436C785.214 368.972 785.386 368.6 785.61 368.32C785.834 368.04 786.11 367.836 786.438 367.708C786.766 367.58 787.142 367.516 787.566 367.516C787.99 367.516 788.366 367.58 788.694 367.708C789.022 367.836 789.298 368.04 789.522 368.32C789.746 368.6 789.914 368.972 790.026 369.436C790.146 369.892 790.206 370.448 790.206 371.104V372.304C790.206 373.016 790.146 373.612 790.026 374.092C789.914 374.572 789.746 374.96 789.522 375.256C789.298 375.552 789.022 375.764 788.694 375.892C788.366 376.02 787.99 376.084 787.566 376.084ZM787.566 375.1C787.806 375.1 788.018 375.06 788.202 374.98C788.386 374.9 788.542 374.756 788.67 374.548C788.806 374.332 788.906 374.044 788.97 373.684C789.042 373.324 789.078 372.864 789.078 372.304V371.104C789.078 370.592 789.042 370.168 788.97 369.832C788.906 369.496 788.806 369.228 788.67 369.028C788.542 368.828 788.386 368.688 788.202 368.608C788.018 368.528 787.806 368.488 787.566 368.488C787.326 368.488 787.114 368.528 786.93 368.608C786.746 368.688 786.586 368.828 786.45 369.028C786.322 369.228 786.222 369.496 786.15 369.832C786.086 370.168 786.054 370.592 786.054 371.104V372.304C786.054 372.864 786.086 373.324 786.15 373.684C786.222 374.044 786.322 374.332 786.45 374.548C786.586 374.756 786.746 374.9 786.93 374.98C787.114 375.06 787.326 375.1 787.566 375.1ZM791.547 375.1L794.607 371.764C794.943 371.388 795.203 371.068 795.387 370.804C795.579 370.54 795.675 370.256 795.675 369.952C795.675 369.512 795.543 369.16 795.279 368.896C795.015 368.632 794.663 368.5 794.223 368.5C793.783 368.5 793.431 368.632 793.167 368.896C792.903 369.16 792.771 369.512 792.771 369.952H791.667C791.667 369.616 791.731 369.3 791.859 369.004C791.987 368.708 792.163 368.452 792.387 368.236C792.619 368.012 792.891 367.836 793.203 367.708C793.515 367.58 793.855 367.516 794.223 367.516C794.591 367.516 794.931 367.58 795.243 367.708C795.555 367.836 795.823 368.012 796.047 368.236C796.279 368.452 796.459 368.708 796.587 369.004C796.715 369.3 796.779 369.616 796.779 369.952C796.779 370.168 796.739 370.38 796.659 370.588C796.587 370.796 796.487 371.004 796.359 371.212C796.231 371.412 796.079 371.616 795.903 371.824C795.727 372.024 795.543 372.232 795.351 372.448L792.963 375.016H796.779V376H791.547V375.1ZM800.641 376.084C800.241 376.084 799.877 376.024 799.549 375.904C799.229 375.784 798.953 375.62 798.721 375.412C798.497 375.196 798.321 374.948 798.193 374.668C798.073 374.388 798.013 374.084 798.013 373.756H799.129C799.129 374.14 799.261 374.46 799.525 374.716C799.797 374.972 800.169 375.1 800.641 375.1C801.113 375.1 801.481 374.972 801.745 374.716C802.017 374.452 802.153 374.124 802.153 373.732C802.153 373.244 802.009 372.864 801.721 372.592C801.433 372.312 800.993 372.172 800.401 372.172H799.765V371.188H800.401C800.961 371.188 801.373 371.064 801.637 370.816C801.901 370.568 802.033 370.208 802.033 369.736C802.033 369.376 801.909 369.08 801.661 368.848C801.421 368.616 801.081 368.5 800.641 368.5C800.201 368.5 799.857 368.616 799.609 368.848C799.369 369.072 799.249 369.36 799.249 369.712H798.133C798.133 369.408 798.189 369.124 798.301 368.86C798.421 368.588 798.589 368.356 798.805 368.164C799.021 367.964 799.285 367.808 799.597 367.696C799.909 367.576 800.257 367.516 800.641 367.516C801.025 367.516 801.369 367.576 801.673 367.696C801.985 367.808 802.249 367.964 802.465 368.164C802.689 368.364 802.857 368.6 802.969 368.872C803.089 369.136 803.149 369.424 803.149 369.736C803.149 370.216 803.021 370.62 802.765 370.948C802.509 371.276 802.201 371.508 801.841 371.644C802.281 371.772 802.629 372.02 802.885 372.388C803.141 372.756 803.269 373.208 803.269 373.744C803.269 374.072 803.205 374.38 803.077 374.668C802.957 374.948 802.781 375.196 802.549 375.412C802.325 375.62 802.049 375.784 801.721 375.904C801.401 376.024 801.041 376.084 800.641 376.084ZM804.515 371.668H807.683V372.652H804.515V371.668ZM811.437 376.084C811.013 376.084 810.637 376.02 810.309 375.892C809.981 375.764 809.705 375.552 809.481 375.256C809.257 374.96 809.085 374.572 808.965 374.092C808.853 373.612 808.797 373.016 808.797 372.304V371.104C808.797 370.448 808.853 369.892 808.965 369.436C809.085 368.972 809.257 368.6 809.481 368.32C809.705 368.04 809.981 367.836 810.309 367.708C810.637 367.58 811.013 367.516 811.437 367.516C811.861 367.516 812.237 367.58 812.565 367.708C812.893 367.836 813.169 368.04 813.393 368.32C813.617 368.6 813.785 368.972 813.897 369.436C814.017 369.892 814.077 370.448 814.077 371.104V372.304C814.077 373.016 814.017 373.612 813.897 374.092C813.785 374.572 813.617 374.96 813.393 375.256C813.169 375.552 812.893 375.764 812.565 375.892C812.237 376.02 811.861 376.084 811.437 376.084ZM811.437 375.1C811.677 375.1 811.889 375.06 812.073 374.98C812.257 374.9 812.413 374.756 812.541 374.548C812.677 374.332 812.777 374.044 812.841 373.684C812.913 373.324 812.949 372.864 812.949 372.304V371.104C812.949 370.592 812.913 370.168 812.841 369.832C812.777 369.496 812.677 369.228 812.541 369.028C812.413 368.828 812.257 368.688 812.073 368.608C811.889 368.528 811.677 368.488 811.437 368.488C811.197 368.488 810.985 368.528 810.801 368.608C810.617 368.688 810.457 368.828 810.321 369.028C810.193 369.228 810.093 369.496 810.021 369.832C809.957 370.168 809.925 370.592 809.925 371.104V372.304C809.925 372.864 809.957 373.324 810.021 373.684C810.093 374.044 810.193 374.332 810.321 374.548C810.457 374.756 810.617 374.9 810.801 374.98C810.985 375.06 811.197 375.1 811.437 375.1ZM817.914 376.084C817.514 376.084 817.15 376.024 816.822 375.904C816.502 375.784 816.226 375.62 815.994 375.412C815.77 375.196 815.594 374.948 815.466 374.668C815.346 374.388 815.286 374.084 815.286 373.756H816.402C816.402 374.14 816.534 374.46 816.798 374.716C817.07 374.972 817.442 375.1 817.914 375.1C818.386 375.1 818.754 374.972 819.018 374.716C819.29 374.452 819.426 374.124 819.426 373.732C819.426 373.244 819.282 372.864 818.994 372.592C818.706 372.312 818.266 372.172 817.674 372.172H817.038V371.188H817.674C818.234 371.188 818.646 371.064 818.91 370.816C819.174 370.568 819.306 370.208 819.306 369.736C819.306 369.376 819.182 369.08 818.934 368.848C818.694 368.616 818.354 368.5 817.914 368.5C817.474 368.5 817.13 368.616 816.882 368.848C816.642 369.072 816.522 369.36 816.522 369.712H815.406C815.406 369.408 815.462 369.124 815.574 368.86C815.694 368.588 815.862 368.356 816.078 368.164C816.294 367.964 816.558 367.808 816.87 367.696C817.182 367.576 817.53 367.516 817.914 367.516C818.298 367.516 818.642 367.576 818.946 367.696C819.258 367.808 819.522 367.964 819.738 368.164C819.962 368.364 820.13 368.6 820.242 368.872C820.362 369.136 820.422 369.424 820.422 369.736C820.422 370.216 820.294 370.62 820.038 370.948C819.782 371.276 819.474 371.508 819.114 371.644C819.554 371.772 819.902 372.02 820.158 372.388C820.414 372.756 820.542 373.208 820.542 373.744C820.542 374.072 820.478 374.38 820.35 374.668C820.23 374.948 820.054 375.196 819.822 375.412C819.598 375.62 819.322 375.784 818.994 375.904C818.674 376.024 818.314 376.084 817.914 376.084Z" fill="#8EB2BF"/>
<rect x="799.5" y="357" width="1" height="1" fill="#C4D4DB"/>
<rect x="799.5" y="358" width="1" height="3" fill="#C4D4DB"/>
<path d="M978.185 375.1L981.245 371.764C981.581 371.388 981.841 371.068 982.025 370.804C982.217 370.54 982.313 370.256 982.313 369.952C982.313 369.512 982.181 369.16 981.917 368.896C981.653 368.632 981.301 368.5 980.861 368.5C980.421 368.5 980.069 368.632 979.805 368.896C979.541 369.16 979.409 369.512 979.409 369.952H978.305C978.305 369.616 978.369 369.3 978.497 369.004C978.625 368.708 978.801 368.452 979.025 368.236C979.257 368.012 979.529 367.836 979.841 367.708C980.153 367.58 980.493 367.516 980.861 367.516C981.229 367.516 981.569 367.58 981.881 367.708C982.193 367.836 982.461 368.012 982.685 368.236C982.917 368.452 983.097 368.708 983.225 369.004C983.353 369.3 983.417 369.616 983.417 369.952C983.417 370.168 983.377 370.38 983.297 370.588C983.225 370.796 983.125 371.004 982.997 371.212C982.869 371.412 982.717 371.616 982.541 371.824C982.365 372.024 982.181 372.232 981.989 372.448L979.601 375.016H983.417V376H978.185V375.1ZM987.399 376.084C986.975 376.084 986.599 376.02 986.271 375.892C985.943 375.764 985.667 375.552 985.443 375.256C985.219 374.96 985.047 374.572 984.927 374.092C984.815 373.612 984.759 373.016 984.759 372.304V371.104C984.759 370.448 984.815 369.892 984.927 369.436C985.047 368.972 985.219 368.6 985.443 368.32C985.667 368.04 985.943 367.836 986.271 367.708C986.599 367.58 986.975 367.516 987.399 367.516C987.823 367.516 988.199 367.58 988.527 367.708C988.855 367.836 989.131 368.04 989.355 368.32C989.579 368.6 989.747 368.972 989.859 369.436C989.979 369.892 990.039 370.448 990.039 371.104V372.304C990.039 373.016 989.979 373.612 989.859 374.092C989.747 374.572 989.579 374.96 989.355 375.256C989.131 375.552 988.855 375.764 988.527 375.892C988.199 376.02 987.823 376.084 987.399 376.084ZM987.399 375.1C987.639 375.1 987.851 375.06 988.035 374.98C988.219 374.9 988.375 374.756 988.503 374.548C988.639 374.332 988.739 374.044 988.803 373.684C988.875 373.324 988.911 372.864 988.911 372.304V371.104C988.911 370.592 988.875 370.168 988.803 369.832C988.739 369.496 988.639 369.228 988.503 369.028C988.375 368.828 988.219 368.688 988.035 368.608C987.851 368.528 987.639 368.488 987.399 368.488C987.159 368.488 986.947 368.528 986.763 368.608C986.579 368.688 986.419 368.828 986.283 369.028C986.155 369.228 986.055 369.496 985.983 369.832C985.919 370.168 985.887 370.592 985.887 371.104V372.304C985.887 372.864 985.919 373.324 985.983 373.684C986.055 374.044 986.155 374.332 986.283 374.548C986.419 374.756 986.579 374.9 986.763 374.98C986.947 375.06 987.159 375.1 987.399 375.1ZM991.381 375.1L994.441 371.764C994.777 371.388 995.037 371.068 995.221 370.804C995.413 370.54 995.509 370.256 995.509 369.952C995.509 369.512 995.377 369.16 995.113 368.896C994.849 368.632 994.497 368.5 994.057 368.5C993.617 368.5 993.265 368.632 993.001 368.896C992.737 369.16 992.605 369.512 992.605 369.952H991.501C991.501 369.616 991.565 369.3 991.693 369.004C991.821 368.708 991.997 368.452 992.221 368.236C992.453 368.012 992.725 367.836 993.037 367.708C993.349 367.58 993.689 367.516 994.057 367.516C994.425 367.516 994.765 367.58 995.077 367.708C995.389 367.836 995.657 368.012 995.881 368.236C996.113 368.452 996.293 368.708 996.421 369.004C996.549 369.3 996.613 369.616 996.613 369.952C996.613 370.168 996.573 370.38 996.493 370.588C996.421 370.796 996.321 371.004 996.193 371.212C996.065 371.412 995.913 371.616 995.737 371.824C995.561 372.024 995.377 372.232 995.185 372.448L992.797 375.016H996.613V376H991.381V375.1ZM1000.47 376.084C1000.07 376.084 999.71 376.024 999.382 375.904C999.062 375.784 998.786 375.62 998.554 375.412C998.33 375.196 998.154 374.948 998.026 374.668C997.906 374.388 997.846 374.084 997.846 373.756H998.962C998.962 374.14 999.094 374.46 999.358 374.716C999.63 374.972 1000 375.1 1000.47 375.1C1000.95 375.1 1001.31 374.972 1001.58 374.716C1001.85 374.452 1001.99 374.124 1001.99 373.732C1001.99 373.244 1001.84 372.864 1001.55 372.592C1001.27 372.312 1000.83 372.172 1000.23 372.172H999.598V371.188H1000.23C1000.79 371.188 1001.21 371.064 1001.47 370.816C1001.73 370.568 1001.87 370.208 1001.87 369.736C1001.87 369.376 1001.74 369.08 1001.49 368.848C1001.25 368.616 1000.91 368.5 1000.47 368.5C1000.03 368.5 999.69 368.616 999.442 368.848C999.202 369.072 999.082 369.36 999.082 369.712H997.966C997.966 369.408 998.022 369.124 998.134 368.86C998.254 368.588 998.422 368.356 998.638 368.164C998.854 367.964 999.118 367.808 999.43 367.696C999.742 367.576 1000.09 367.516 1000.47 367.516C1000.86 367.516 1001.2 367.576 1001.51 367.696C1001.82 367.808 1002.08 367.964 1002.3 368.164C1002.52 368.364 1002.69 368.6 1002.8 368.872C1002.92 369.136 1002.98 369.424 1002.98 369.736C1002.98 370.216 1002.85 370.62 1002.6 370.948C1002.34 371.276 1002.03 371.508 1001.67 371.644C1002.11 371.772 1002.46 372.02 1002.72 372.388C1002.97 372.756 1003.1 373.208 1003.1 373.744C1003.1 374.072 1003.04 374.38 1002.91 374.668C1002.79 374.948 1002.61 375.196 1002.38 375.412C1002.16 375.62 1001.88 375.784 1001.55 375.904C1001.23 376.024 1000.87 376.084 1000.47 376.084ZM1004.35 371.668H1007.52V372.652H1004.35V371.668ZM1011.27 376.084C1010.85 376.084 1010.47 376.02 1010.14 375.892C1009.81 375.764 1009.54 375.552 1009.31 375.256C1009.09 374.96 1008.92 374.572 1008.8 374.092C1008.69 373.612 1008.63 373.016 1008.63 372.304V371.104C1008.63 370.448 1008.69 369.892 1008.8 369.436C1008.92 368.972 1009.09 368.6 1009.31 368.32C1009.54 368.04 1009.81 367.836 1010.14 367.708C1010.47 367.58 1010.85 367.516 1011.27 367.516C1011.69 367.516 1012.07 367.58 1012.4 367.708C1012.73 367.836 1013 368.04 1013.23 368.32C1013.45 368.6 1013.62 368.972 1013.73 369.436C1013.85 369.892 1013.91 370.448 1013.91 371.104V372.304C1013.91 373.016 1013.85 373.612 1013.73 374.092C1013.62 374.572 1013.45 374.96 1013.23 375.256C1013 375.552 1012.73 375.764 1012.4 375.892C1012.07 376.02 1011.69 376.084 1011.27 376.084ZM1011.27 375.1C1011.51 375.1 1011.72 375.06 1011.91 374.98C1012.09 374.9 1012.25 374.756 1012.37 374.548C1012.51 374.332 1012.61 374.044 1012.67 373.684C1012.75 373.324 1012.78 372.864 1012.78 372.304V371.104C1012.78 370.592 1012.75 370.168 1012.67 369.832C1012.61 369.496 1012.51 369.228 1012.37 369.028C1012.25 368.828 1012.09 368.688 1011.91 368.608C1011.72 368.528 1011.51 368.488 1011.27 368.488C1011.03 368.488 1010.82 368.528 1010.63 368.608C1010.45 368.688 1010.29 368.828 1010.15 369.028C1010.03 369.228 1009.93 369.496 1009.85 369.832C1009.79 370.168 1009.76 370.592 1009.76 371.104V372.304C1009.76 372.864 1009.79 373.324 1009.85 373.684C1009.93 374.044 1010.03 374.332 1010.15 374.548C1010.29 374.756 1010.45 374.9 1010.63 374.98C1010.82 375.06 1011.03 375.1 1011.27 375.1ZM1018.83 374.092H1014.99V373.252L1018.66 367.6H1019.93V373.108H1020.75V374.092H1019.93V376H1018.83V374.092ZM1018.83 373.108V369.124L1016.22 373.108H1018.83Z" fill="#8EB2BF"/>
<rect x="999.333" y="357" width="1" height="1" fill="#C4D4DB"/>
<rect x="999.333" y="358" width="1" height="3" fill="#C4D4DB"/>
<rect x="1199.17" y="357" width="1" height="1" fill="#C4D4DB"/>
<rect x="1199.17" y="358" width="1" height="3" fill="#C4D4DB"/>
<path d="M0 27H1200" stroke="#C4D4DB" stroke-dasharray="2 2"/>
<path d="M0 137H1200" stroke="#C4D4DB" stroke-dasharray="2 2"/>
<path d="M0 247H1200" stroke="#C4D4DB" stroke-dasharray="2 2"/>
<path d="M0 357H1200" stroke="#C4D4DB"/>
</g>
<g clip-path="url(#clip1_117_2760)">
<rect width="960" height="24" transform="translate(120 397)" fill="#0085FF" fill-opacity="0.04"/>
<path d="M120 408.444L122.087 408.568L124.174 407.698L126.261 407.822L128.348 408.941L130.435 409.065L132.522 405.586L134.609 405.213L136.696 405.089L138.783 405.213L142.957 404.964L145.043 405.337L147.13 403.97L149.217 403.722L151.304 403.846L153.391 402.231L155.478 400.74L157.565 403.722L159.652 404.467L161.739 402.976L163.826 403.722L165.913 406.456L168 407.947L170.087 407.822L172.174 408.444L174.261 406.953L176.348 409.065L178.435 407.822L180.522 409.065L182.609 408.941L184.696 407.947L186.783 407.822L188.87 406.083L190.957 403.225L193.043 402.852L195.13 402.728L197.217 402.852L199.304 401.734L201.391 401.858L203.478 401.112L205.565 403.101L207.652 401.237L209.739 399.497L211.826 399.373L213.913 400.864L218.087 401.112L220.174 401.982L222.261 403.473L224.348 404.095L226.435 403.722L228.522 404.964L230.609 404.716H232.696L234.783 405.213L236.87 404.343L238.957 404.467L241.043 402.231L243.13 401.609L245.217 401.485L247.304 400.74L249.391 400.615L251.478 400.74L253.565 402.479L255.652 401.982L257.739 400.615L259.826 400.74L261.913 400.615L264 400.118L266.087 399.994L268.174 400.118L270.261 401.112L272.348 401.237H274.435L276.522 400.864L278.609 400.74L280.696 401.361L282.783 399L284.87 401.485L286.957 401.361L289.043 401.485L291.13 399.994L293.217 400.118L295.304 399.994L297.391 400.118L299.478 399.994L301.565 400.864L303.652 402.231L305.739 400.367L307.826 402.604L309.913 404.716L312 404.592L314.087 404.84L316.174 402.728L318.261 401.361L320.348 401.237L322.435 401.361L324.522 401.237L326.609 403.598L328.696 405.71L330.783 406.953L332.87 401.237L334.957 401.734L337.043 401.609L339.13 401.112L341.217 400.988L343.304 401.982H345.391L347.478 402.106L349.565 401.982L351.652 400.988L353.739 400.864L355.826 399.497L357.913 400.367L360 400.491L362.087 399.249L364.174 399.497L366.261 401.982L368.348 402.106L370.435 401.982L372.522 401.113L374.609 401.982L376.696 401.858L378.783 400.74L380.87 400.615L382.957 404.095L385.043 404.468L387.13 404.592L389.217 404.468L393.391 404.716L395.478 404.343L397.565 405.71L399.652 405.959L401.739 405.834L403.826 407.45L405.913 408.941L408 405.959L410.087 405.213L412.174 406.704L414.261 405.959L416.348 403.225L418.435 401.734L420.522 401.858L422.609 401.237L424.696 402.728L426.783 400.615L428.87 401.858L430.957 400.615L433.043 400.74L435.13 401.734L437.217 401.858L439.304 403.598L441.391 406.456L443.478 406.828L445.565 406.953L447.652 406.828L449.739 407.947L451.826 407.823L453.913 408.568L456 406.58L458.087 408.444L460.174 410.183L462.261 410.308L464.348 408.817L468.522 408.568L470.609 407.698L472.696 406.207L474.783 405.586L476.87 405.959L478.957 404.716L481.043 404.965H483.13L485.217 404.468L487.304 405.337L489.391 405.213L491.478 407.45L493.565 408.071L495.652 408.195L497.739 408.941L499.826 409.065L501.913 408.941L504 407.201L506.087 407.698L508.174 409.065L510.261 408.941L512.348 409.065L514.435 409.562L516.522 409.686L518.609 409.562L520.696 408.568L522.783 408.444H524.87L526.957 408.817L529.043 408.941L531.13 408.32L533.217 410.681L535.304 408.195L537.391 408.32L539.478 408.195L541.565 409.686L543.652 409.562L545.739 409.686L547.826 409.562L549.913 409.686L552 408.817L554.087 407.45L556.174 409.314L558.261 407.077L560.348 404.965L562.435 405.089L564.522 404.84L566.609 406.953L568.696 408.32L570.783 408.444L572.87 408.32L574.957 408.444L577.043 406.083L579.13 403.97L581.217 402.728L583.304 408.444L585.391 407.947L587.478 408.071L589.565 408.568L591.652 408.692L593.739 407.698H595.826L597.913 407.574L600 407.698L602.087 408.692L604.174 408.817L606.261 410.183L608.348 409.314L610.435 409.189L612.522 410.432L614.609 410.183L616.696 407.698L618.783 407.574L620.87 407.698H622.957L625.043 407.823L627.13 407.698L629.217 407.823L631.304 409.562L633.391 409.686L635.478 409.562L637.565 409.686L639.652 409.562L641.739 409.686L643.826 409.562L645.913 409.686L648 407.823L650.087 408.071H652.174L654.261 408.195L656.348 408.071L658.435 408.195L660.522 409.562L662.609 409.686L664.696 409.562L666.783 409.686L668.87 408.32L670.957 408.444L673.043 408.32L675.13 412.42L677.217 412.296L679.304 412.42L681.391 412.669L683.478 413.538L685.565 412.296L687.652 412.42L689.739 413.663L691.826 409.065L693.913 409.562L696 407.698L698.087 407.574L700.174 407.698L702.261 406.083L704.348 406.207L706.435 406.083L708.522 403.349L710.609 404.468L712.696 405.213L714.783 407.823L716.87 407.947L718.956 407.45L721.043 407.574L723.13 408.32L725.217 408.568L727.304 408.32L729.391 407.45L731.478 408.568L733.565 408.692L735.652 407.45L737.739 408.195L739.826 408.071L741.913 409.562L744 409.189L746.087 407.698L748.174 407.45L750.261 407.574L752.348 408.692L754.435 408.817L756.522 408.692L758.609 410.681L760.696 410.556L762.783 410.681L764.87 410.556L766.957 408.692L769.043 408.568L771.13 408.32L773.217 408.195L775.304 408.32L777.391 407.574H779.478L781.565 407.325L783.652 407.823L785.739 407.698L787.826 407.325L789.913 407.698L792 407.823L794.087 408.568L796.174 408.692L798.261 407.698L800.348 407.823L802.435 408.568L804.522 407.947L806.609 408.692L808.696 408.817L810.783 408.692L812.87 407.45L814.957 407.077L817.044 409.935L819.13 408.444L821.217 408.817L823.304 407.077L825.391 407.201L827.478 408.195L829.565 416.136L831.652 414.396H833.739L835.826 412.533L837.913 414.024L840 414.645L842.087 413.278L844.174 414.645H846.261L848.348 414.272L850.435 415.266L852.522 414.769L854.609 417.13L856.696 417.006L858.783 418L860.87 415.018L862.957 415.763L865.043 414.894L867.13 415.888L871.304 415.391L873.391 409.612L875.478 409.488L877.565 411.103L879.652 412.595L881.739 409.612L883.826 408.867L885.913 410.358L888 409.612L890.087 406.879L892.174 405.388L894.261 405.512L896.348 404.89L898.435 406.382L900.522 404.269L902.609 405.512L904.696 404.269L906.783 404.393L908.87 405.388L910.957 405.512L913.043 407.251L915.13 410.109L917.217 410.482L919.304 410.606L921.391 410.482L923.478 411.601L925.565 411.476L927.652 412.222L929.739 410.234L931.826 412.098L933.913 413.837L936 413.961L938.087 412.47L942.261 412.222L944.348 411.352L946.435 409.861L948.522 409.24L950.609 409.612L952.696 408.37L954.783 408.618H956.87L958.957 408.121L961.043 408.991L963.13 408.867L965.217 411.103L967.304 411.725L969.391 411.849L971.478 412.595L973.565 412.719L975.652 412.595L977.739 410.855L979.826 411.352L981.913 412.719L984 412.595L986.087 412.719L988.174 413.216L990.261 413.34L992.348 413.216L994.435 412.222L996.522 412.098H998.609L1000.7 412.47L1002.78 412.595L1004.87 411.973L1006.96 414.334L1009.04 411.849L1011.13 411.973L1013.22 411.849L1015.3 413.34L1017.39 413.216L1019.48 413.34L1021.57 413.216L1023.65 413.34L1025.74 412.47L1027.83 411.103L1029.91 412.967L1032 410.731L1034.09 408.618L1036.17 408.743L1038.26 408.494L1040.35 410.606L1042.43 411.973L1044.52 412.098L1046.61 411.973L1048.7 412.098L1050.78 409.737L1052.87 407.624L1054.96 406.382L1057.04 412.098L1059.13 411.601L1061.22 411.725L1063.3 412.222L1065.39 412.346L1067.48 411.352H1069.57L1071.65 411.228L1073.74 411.352L1075.83 412.346L1077.91 412.47L1080 413.837" stroke="#8EB2BF" stroke-linejoin="round"/>
<path d="M174.852 413.1L177.912 409.764C178.248 409.388 178.508 409.068 178.692 408.804C178.884 408.54 178.98 408.256 178.98 407.952C178.98 407.512 178.848 407.16 178.584 406.896C178.32 406.632 177.968 406.5 177.528 406.5C177.088 406.5 176.736 406.632 176.472 406.896C176.208 407.16 176.076 407.512 176.076 407.952H174.972C174.972 407.616 175.036 407.3 175.164 407.004C175.292 406.708 175.468 406.452 175.692 406.236C175.924 406.012 176.196 405.836 176.508 405.708C176.82 405.58 177.16 405.516 177.528 405.516C177.896 405.516 178.236 405.58 178.548 405.708C178.86 405.836 179.128 406.012 179.352 406.236C179.584 406.452 179.764 406.708 179.892 407.004C180.02 407.3 180.084 407.616 180.084 407.952C180.084 408.168 180.044 408.38 179.964 408.588C179.892 408.796 179.792 409.004 179.664 409.212C179.536 409.412 179.384 409.616 179.208 409.824C179.032 410.024 178.848 410.232 178.656 410.448L176.268 413.016H180.084V414H174.852V413.1ZM184.066 414.084C183.642 414.084 183.266 414.02 182.938 413.892C182.61 413.764 182.334 413.552 182.11 413.256C181.886 412.96 181.714 412.572 181.594 412.092C181.482 411.612 181.426 411.016 181.426 410.304V409.104C181.426 408.448 181.482 407.892 181.594 407.436C181.714 406.972 181.886 406.6 182.11 406.32C182.334 406.04 182.61 405.836 182.938 405.708C183.266 405.58 183.642 405.516 184.066 405.516C184.49 405.516 184.866 405.58 185.194 405.708C185.522 405.836 185.798 406.04 186.022 406.32C186.246 406.6 186.414 406.972 186.526 407.436C186.646 407.892 186.706 408.448 186.706 409.104V410.304C186.706 411.016 186.646 411.612 186.526 412.092C186.414 412.572 186.246 412.96 186.022 413.256C185.798 413.552 185.522 413.764 185.194 413.892C184.866 414.02 184.49 414.084 184.066 414.084ZM184.066 413.1C184.306 413.1 184.518 413.06 184.702 412.98C184.886 412.9 185.042 412.756 185.17 412.548C185.306 412.332 185.406 412.044 185.47 411.684C185.542 411.324 185.578 410.864 185.578 410.304V409.104C185.578 408.592 185.542 408.168 185.47 407.832C185.406 407.496 185.306 407.228 185.17 407.028C185.042 406.828 184.886 406.688 184.702 406.608C184.518 406.528 184.306 406.488 184.066 406.488C183.826 406.488 183.614 406.528 183.43 406.608C183.246 406.688 183.086 406.828 182.95 407.028C182.822 407.228 182.722 407.496 182.65 407.832C182.586 408.168 182.554 408.592 182.554 409.104V410.304C182.554 410.864 182.586 411.324 182.65 411.684C182.722 412.044 182.822 412.332 182.95 412.548C183.086 412.756 183.246 412.9 183.43 412.98C183.614 413.06 183.826 413.1 184.066 413.1ZM188.047 413.1L191.107 409.764C191.443 409.388 191.703 409.068 191.887 408.804C192.079 408.54 192.175 408.256 192.175 407.952C192.175 407.512 192.043 407.16 191.779 406.896C191.515 406.632 191.163 406.5 190.723 406.5C190.283 406.5 189.931 406.632 189.667 406.896C189.403 407.16 189.271 407.512 189.271 407.952H188.167C188.167 407.616 188.231 407.3 188.359 407.004C188.487 406.708 188.663 406.452 188.887 406.236C189.119 406.012 189.391 405.836 189.703 405.708C190.015 405.58 190.355 405.516 190.723 405.516C191.091 405.516 191.431 405.58 191.743 405.708C192.055 405.836 192.323 406.012 192.547 406.236C192.779 406.452 192.959 406.708 193.087 407.004C193.215 407.3 193.279 407.616 193.279 407.952C193.279 408.168 193.239 408.38 193.159 408.588C193.087 408.796 192.987 409.004 192.859 409.212C192.731 409.412 192.579 409.616 192.403 409.824C192.227 410.024 192.043 410.232 191.851 410.448L189.463 413.016H193.279V414H188.047V413.1ZM194.645 413.1L197.705 409.764C198.041 409.388 198.301 409.068 198.485 408.804C198.677 408.54 198.773 408.256 198.773 407.952C198.773 407.512 198.641 407.16 198.377 406.896C198.113 406.632 197.761 406.5 197.321 406.5C196.881 406.5 196.529 406.632 196.265 406.896C196.001 407.16 195.869 407.512 195.869 407.952H194.765C194.765 407.616 194.829 407.3 194.957 407.004C195.085 406.708 195.261 406.452 195.485 406.236C195.717 406.012 195.989 405.836 196.301 405.708C196.613 405.58 196.953 405.516 197.321 405.516C197.689 405.516 198.029 405.58 198.341 405.708C198.653 405.836 198.921 406.012 199.145 406.236C199.377 406.452 199.557 406.708 199.685 407.004C199.813 407.3 199.877 407.616 199.877 407.952C199.877 408.168 199.837 408.38 199.757 408.588C199.685 408.796 199.585 409.004 199.457 409.212C199.329 409.412 199.177 409.616 199.001 409.824C198.825 410.024 198.641 410.232 198.449 410.448L196.061 413.016H199.877V414H194.645V413.1ZM201.015 409.668H204.183V410.652H201.015V409.668ZM205.729 413.016H207.745V406.836L205.741 408.288V407.052L207.745 405.6H208.873V413.016H210.529V414H205.729V413.016ZM211.918 413.1L214.978 409.764C215.314 409.388 215.574 409.068 215.758 408.804C215.95 408.54 216.046 408.256 216.046 407.952C216.046 407.512 215.914 407.16 215.65 406.896C215.386 406.632 215.034 406.5 214.594 406.5C214.154 406.5 213.802 406.632 213.538 406.896C213.274 407.16 213.142 407.512 213.142 407.952H212.038C212.038 407.616 212.102 407.3 212.23 407.004C212.358 406.708 212.534 406.452 212.758 406.236C212.99 406.012 213.262 405.836 213.574 405.708C213.886 405.58 214.226 405.516 214.594 405.516C214.962 405.516 215.302 405.58 215.614 405.708C215.926 405.836 216.194 406.012 216.418 406.236C216.65 406.452 216.83 406.708 216.958 407.004C217.086 407.3 217.15 407.616 217.15 407.952C217.15 408.168 217.11 408.38 217.03 408.588C216.958 408.796 216.858 409.004 216.73 409.212C216.602 409.412 216.45 409.616 216.274 409.824C216.098 410.024 215.914 410.232 215.722 410.448L213.334 413.016H217.15V414H211.918V413.1Z" fill="#185A7E"/>
<rect opacity="0.6" width="3" height="24" transform="matrix(-1 0 0 1 229 397)" fill="#185A7E"/>
<rect opacity="0.1" x="229" y="397" width="743" height="24" fill="#185A7E"/>
<rect opacity="0.6" width="3" height="24" transform="matrix(-1 0 0 1 975 397)" fill="#185A7E"/>
<path d="M983.852 413.1L986.912 409.764C987.248 409.388 987.508 409.068 987.692 408.804C987.884 408.54 987.98 408.256 987.98 407.952C987.98 407.512 987.848 407.16 987.584 406.896C987.32 406.632 986.968 406.5 986.528 406.5C986.088 406.5 985.736 406.632 985.472 406.896C985.208 407.16 985.076 407.512 985.076 407.952H983.972C983.972 407.616 984.036 407.3 984.164 407.004C984.292 406.708 984.468 406.452 984.692 406.236C984.924 406.012 985.196 405.836 985.508 405.708C985.82 405.58 986.16 405.516 986.528 405.516C986.896 405.516 987.236 405.58 987.548 405.708C987.86 405.836 988.128 406.012 988.352 406.236C988.584 406.452 988.764 406.708 988.892 407.004C989.02 407.3 989.084 407.616 989.084 407.952C989.084 408.168 989.044 408.38 988.964 408.588C988.892 408.796 988.792 409.004 988.664 409.212C988.536 409.412 988.384 409.616 988.208 409.824C988.032 410.024 987.848 410.232 987.656 410.448L985.268 413.016H989.084V414H983.852V413.1ZM993.066 414.084C992.642 414.084 992.266 414.02 991.938 413.892C991.61 413.764 991.334 413.552 991.11 413.256C990.886 412.96 990.714 412.572 990.594 412.092C990.482 411.612 990.426 411.016 990.426 410.304V409.104C990.426 408.448 990.482 407.892 990.594 407.436C990.714 406.972 990.886 406.6 991.11 406.32C991.334 406.04 991.61 405.836 991.938 405.708C992.266 405.58 992.642 405.516 993.066 405.516C993.49 405.516 993.866 405.58 994.194 405.708C994.522 405.836 994.798 406.04 995.022 406.32C995.246 406.6 995.414 406.972 995.526 407.436C995.646 407.892 995.706 408.448 995.706 409.104V410.304C995.706 411.016 995.646 411.612 995.526 412.092C995.414 412.572 995.246 412.96 995.022 413.256C994.798 413.552 994.522 413.764 994.194 413.892C993.866 414.02 993.49 414.084 993.066 414.084ZM993.066 413.1C993.306 413.1 993.518 413.06 993.702 412.98C993.886 412.9 994.042 412.756 994.17 412.548C994.306 412.332 994.406 412.044 994.47 411.684C994.542 411.324 994.578 410.864 994.578 410.304V409.104C994.578 408.592 994.542 408.168 994.47 407.832C994.406 407.496 994.306 407.228 994.17 407.028C994.042 406.828 993.886 406.688 993.702 406.608C993.518 406.528 993.306 406.488 993.066 406.488C992.826 406.488 992.614 406.528 992.43 406.608C992.246 406.688 992.086 406.828 991.95 407.028C991.822 407.228 991.722 407.496 991.65 407.832C991.586 408.168 991.554 408.592 991.554 409.104V410.304C991.554 410.864 991.586 411.324 991.65 411.684C991.722 412.044 991.822 412.332 991.95 412.548C992.086 412.756 992.246 412.9 992.43 412.98C992.614 413.06 992.826 413.1 993.066 413.1ZM997.047 413.1L1000.11 409.764C1000.44 409.388 1000.7 409.068 1000.89 408.804C1001.08 408.54 1001.18 408.256 1001.18 407.952C1001.18 407.512 1001.04 407.16 1000.78 406.896C1000.52 406.632 1000.16 406.5 999.723 406.5C999.283 406.5 998.931 406.632 998.667 406.896C998.403 407.16 998.271 407.512 998.271 407.952H997.167C997.167 407.616 997.231 407.3 997.359 407.004C997.487 406.708 997.663 406.452 997.887 406.236C998.119 406.012 998.391 405.836 998.703 405.708C999.015 405.58 999.355 405.516 999.723 405.516C1000.09 405.516 1000.43 405.58 1000.74 405.708C1001.06 405.836 1001.32 406.012 1001.55 406.236C1001.78 406.452 1001.96 406.708 1002.09 407.004C1002.22 407.3 1002.28 407.616 1002.28 407.952C1002.28 408.168 1002.24 408.38 1002.16 408.588C1002.09 408.796 1001.99 409.004 1001.86 409.212C1001.73 409.412 1001.58 409.616 1001.4 409.824C1001.23 410.024 1001.04 410.232 1000.85 410.448L998.463 413.016H1002.28V414H997.047V413.1ZM1006.14 414.084C1005.74 414.084 1005.38 414.024 1005.05 413.904C1004.73 413.784 1004.45 413.62 1004.22 413.412C1004 413.196 1003.82 412.948 1003.69 412.668C1003.57 412.388 1003.51 412.084 1003.51 411.756H1004.63C1004.63 412.14 1004.76 412.46 1005.02 412.716C1005.3 412.972 1005.67 413.1 1006.14 413.1C1006.61 413.1 1006.98 412.972 1007.24 412.716C1007.52 412.452 1007.65 412.124 1007.65 411.732C1007.65 411.244 1007.51 410.864 1007.22 410.592C1006.93 410.312 1006.49 410.172 1005.9 410.172H1005.26V409.188H1005.9C1006.46 409.188 1006.87 409.064 1007.14 408.816C1007.4 408.568 1007.53 408.208 1007.53 407.736C1007.53 407.376 1007.41 407.08 1007.16 406.848C1006.92 406.616 1006.58 406.5 1006.14 406.5C1005.7 406.5 1005.36 406.616 1005.11 406.848C1004.87 407.072 1004.75 407.36 1004.75 407.712H1003.63C1003.63 407.408 1003.69 407.124 1003.8 406.86C1003.92 406.588 1004.09 406.356 1004.3 406.164C1004.52 405.964 1004.78 405.808 1005.1 405.696C1005.41 405.576 1005.76 405.516 1006.14 405.516C1006.52 405.516 1006.87 405.576 1007.17 405.696C1007.48 405.808 1007.75 405.964 1007.96 406.164C1008.19 406.364 1008.36 406.6 1008.47 406.872C1008.59 407.136 1008.65 407.424 1008.65 407.736C1008.65 408.216 1008.52 408.62 1008.26 408.948C1008.01 409.276 1007.7 409.508 1007.34 409.644C1007.78 409.772 1008.13 410.02 1008.38 410.388C1008.64 410.756 1008.77 411.208 1008.77 411.744C1008.77 412.072 1008.7 412.38 1008.58 412.668C1008.46 412.948 1008.28 413.196 1008.05 413.412C1007.82 413.62 1007.55 413.784 1007.22 413.904C1006.9 414.024 1006.54 414.084 1006.14 414.084ZM1010.01 409.668H1013.18V410.652H1010.01V409.668ZM1016.94 414.084C1016.51 414.084 1016.14 414.02 1015.81 413.892C1015.48 413.764 1015.2 413.552 1014.98 413.256C1014.76 412.96 1014.58 412.572 1014.46 412.092C1014.35 411.612 1014.3 411.016 1014.3 410.304V409.104C1014.3 408.448 1014.35 407.892 1014.46 407.436C1014.58 406.972 1014.76 406.6 1014.98 406.32C1015.2 406.04 1015.48 405.836 1015.81 405.708C1016.14 405.58 1016.51 405.516 1016.94 405.516C1017.36 405.516 1017.74 405.58 1018.06 405.708C1018.39 405.836 1018.67 406.04 1018.89 406.32C1019.12 406.6 1019.28 406.972 1019.4 407.436C1019.52 407.892 1019.58 408.448 1019.58 409.104V410.304C1019.58 411.016 1019.52 411.612 1019.4 412.092C1019.28 412.572 1019.12 412.96 1018.89 413.256C1018.67 413.552 1018.39 413.764 1018.06 413.892C1017.74 414.02 1017.36 414.084 1016.94 414.084ZM1016.94 413.1C1017.18 413.1 1017.39 413.06 1017.57 412.98C1017.76 412.9 1017.91 412.756 1018.04 412.548C1018.18 412.332 1018.28 412.044 1018.34 411.684C1018.41 411.324 1018.45 410.864 1018.45 410.304V409.104C1018.45 408.592 1018.41 408.168 1018.34 407.832C1018.28 407.496 1018.18 407.228 1018.04 407.028C1017.91 406.828 1017.76 406.688 1017.57 406.608C1017.39 406.528 1017.18 406.488 1016.94 406.488C1016.7 406.488 1016.48 406.528 1016.3 406.608C1016.12 406.688 1015.96 406.828 1015.82 407.028C1015.69 407.228 1015.59 407.496 1015.52 407.832C1015.46 408.168 1015.42 408.592 1015.42 409.104V410.304C1015.42 410.864 1015.46 411.324 1015.52 411.684C1015.59 412.044 1015.69 412.332 1015.82 412.548C1015.96 412.756 1016.12 412.9 1016.3 412.98C1016.48 413.06 1016.7 413.1 1016.94 413.1ZM1024.49 412.092H1020.65V411.252L1024.33 405.6H1025.6V411.108H1026.41V412.092H1025.6V414H1024.49V412.092ZM1024.49 411.108V407.124L1021.89 411.108H1024.49Z" fill="#185A7E"/>
<path d="M-42.5384 313.833L-98 315.681L-2.44565 359H1199V0L1194.32 41.8854V56.9765L1190.31 52.0488L1182.96 64.0601L1180.29 82.8469L1178.95 115.185V129.968L1172.27 120.729L1168.26 150.295L1166.26 185.405L1164.92 192.488L1155.57 190.948L1146.88 202.652L1140.2 185.405L1135.52 203.884L1132.18 199.264L1127.5 208.503L1117.48 153.683L1115.47 144.443L1106.79 145.367L1104.11 133.972L1094.09 136.744L1088.74 132.432L1076.05 118.573L1048.65 122.885L1043.31 114.261L1039.97 127.196L1035.96 121.961L1025.26 127.196L1021.26 120.729L1011.23 129.968L1007.89 85.9268L1005.89 89.9305L985.172 74.8394L978.49 94.8582L975.817 86.5427L969.135 90.8545L955.771 75.7634L951.093 87.7747L945.748 80.6911L939.734 93.6263L937.061 91.4704L924.365 103.174L915.678 94.8582L909.664 98.246L906.991 72.6836L898.973 64.984L894.295 71.4516L886.277 51.7408L878.926 74.8394L875.585 61.9042H870.24L865.562 58.2085L861.553 42.5014L858.88 45.2732L853.534 31.4141L847.52 37.8817L841.506 33.8779L838.165 44.6573V50.8169L831.483 53.2808L826.806 42.5014L824.801 43.4254L822.128 37.8817L816.783 43.4254L813.441 40.6535L808.764 45.8892L803.418 41.5775L797.404 54.8207L794.732 72.6836L790.054 74.8394L782.704 34.4939L778.694 49.277L774.017 41.5775L768.003 70.8357L763.326 110.565L757.312 131.2L752.634 127.196L747.288 144.443L743.947 141.671L733.256 154.299L725.237 141.671L721.896 145.367L717.219 137.052L699.177 144.443L687.818 151.219L671.781 139.823L666.435 109.641L661.089 113.953L658.416 103.174L647.725 93.3183L643 85.5L636.365 98.862L627.01 104.714L620.996 99.4779L612.978 107.485L611.641 101.634L605.628 105.638L599.614 86.8507L593.6 88.6986L587.586 83.1549L580.904 87.7747L574.221 83.1549L570.212 88.0826L560.857 82.231L557.516 68.3718L551.502 72.0676L546.825 67.1399L542.147 100.71L538.806 96.7061L536.133 101.634L532.792 94.8582L526.778 101.634L524.106 94.8582L514.751 108.101L507.4 97.3221L500.05 74.8394L497.377 77.9193L495.372 72.0676L484.681 90.8545L473.99 104.714L463.298 101.634L460.625 94.8582L449.266 109.641L431.892 77.9193L428.551 113.953L417.192 118.265V102.558L406.5 108.101L405.832 93.9343L396.477 98.862V105.946L383.781 113.953L379.104 102.558L371.753 107.485L365.071 94.8582L351.039 122.577L347.029 174.009L338.343 166.002L330.992 180.169L325.647 175.857L322.974 180.169L317.628 175.857L314.955 154.915L306.268 164.462L300.254 160.15L282.213 174.933L275.531 164.462L264.839 178.937L244.125 174.009L235.438 241.149L220.737 247.617V264.556L208.709 272.255V288.578L179.308 303.669L171.958 294.738L159.262 311.985H130.529L125.851 320.916L91.1041 313.833L76.4034 323.996L62.3709 318.145L8.91396 328L-2.44565 322.456L-17.1463 325.844L-42.5384 313.833Z" fill="url(#paint0_linear_117_2760)" fill-opacity="0.2"/>
<path d="M-98 315.681L-42.5384 313.833L-17.1463 325.844L-2.44565 322.456L8.91396 328L62.3709 318.145L76.4034 323.996L91.1041 313.833L125.851 320.916L130.529 311.985H159.262L171.958 294.738L179.308 303.669L208.709 288.578V272.255L220.737 264.556V247.617L235.438 241.149L244.125 174.009L264.839 178.937L275.531 164.462L282.213 174.933L300.254 160.15L306.268 164.462L314.955 154.915L317.628 175.857L322.974 180.169L325.647 175.857L330.992 180.169L338.343 166.002L347.029 174.009L351.039 122.577L365.071 94.8582L371.753 107.485L379.104 102.558L383.781 113.953L396.477 105.946V98.862L405.832 93.9343L406.5 108.101L417.192 102.558V118.265L428.551 113.953L431.892 77.9193L449.266 109.641L460.625 94.8582L463.298 101.634L473.99 104.714L484.681 90.8545L495.372 72.0676L497.377 77.9193L500.05 74.8394L507.4 97.3221L514.751 108.101L524.106 94.8582L526.778 101.634L532.792 94.8582L536.133 101.634L538.806 96.7061L542.147 100.71L546.825 67.1399L551.502 72.0676L557.516 68.3718L560.857 82.231L570.212 88.0826L574.221 83.1549L580.904 87.7747L587.586 83.1549L593.6 88.6986L599.614 86.8507L605.628 105.638L611.641 101.634L612.978 107.485L620.996 99.4779L627.01 104.714L636.365 98.862L643.056 85.5L647.725 93.3183L658.416 103.174L661.089 113.953L666.435 109.641L671.781 139.823L687.818 151.219L699.177 144.443L717.219 137.052L721.896 145.367L725.237 141.671L733.256 154.299L743.947 141.671L747.288 144.443L752.634 127.196L757.312 131.2L763.326 110.565L768.003 70.8357L774.017 41.5775L778.694 49.277L782.704 34.4939L790.054 74.8394L794.732 72.6836L797.404 54.8207L803.418 41.5775L808.764 45.8892L813.441 40.6535L816.783 43.4254L822.128 37.8817L824.801 43.4254L826.806 42.5014L831.483 53.2808L838.165 50.8169V44.6573L841.506 33.8779L847.52 37.8817L853.534 31.4141L858.88 45.2732L861.553 42.5014L865.562 58.2085L870.24 61.9042H875.585L878.926 74.8394L886.277 51.7408L894.295 71.4516L898.973 64.984L906.991 72.6836L909.664 98.246L915.678 94.8582L924.365 103.174L937.061 91.4704L939.734 93.6263L945.748 80.6911L951.093 87.7747L955.771 75.7634L969.135 90.8545L975.817 86.5427L978.49 94.8582L985.172 74.8394L1005.89 89.9305L1007.89 85.9268L1011.23 129.968L1021.26 120.729L1025.26 127.196L1035.96 121.961L1039.97 127.196L1043.31 114.261L1048.65 122.885L1076.05 118.573L1088.74 132.432L1094.09 136.744L1104.11 133.972L1106.79 145.367L1115.47 144.443L1117.48 153.683L1127.5 208.503L1132.18 199.264L1135.52 203.884L1140.2 185.405L1146.88 202.652L1155.57 190.948L1164.92 192.488L1166.26 185.405L1168.26 150.295L1172.27 120.729L1178.95 129.968V115.185L1180.29 82.8469L1182.96 64.0601L1190.31 52.0488L1194.32 56.9765V41.8854L1199 0" stroke="#73C1BE"/>
<line x1="132.09" y1="312.299" x2="434.299" y2="78.9099" stroke="#73C1BE" stroke-linecap="round" stroke-dasharray="4 4"/>
<line x1="245.143" y1="175.307" x2="364.307" y2="96.8573" stroke="#73C1BE" stroke-linecap="round" stroke-dasharray="4 4"/>
<line x1="734.909" y1="153.299" x2="824.299" y2="37.0915" stroke="#73C1BE" stroke-linecap="round" stroke-dasharray="4 4"/>
<line x1="1150.63" y1="198.395" x2="1199.39" y2="0.365955" stroke="#73C1BE" stroke-linecap="round" stroke-dasharray="4 4"/>
<line x1="1009.32" y1="127.187" x2="896.187" y2="62.682" stroke="#F0BDBD" stroke-linecap="round" stroke-dasharray="4 4"/>
<line x1="1130.31" y1="206.84" x2="1077.84" y2="122.689" stroke="#F0BDBD" stroke-linecap="round" stroke-dasharray="4 4"/>
<line x1="160.119" y1="310.303" x2="496.303" y2="71.8814" stroke="#73C1BE" stroke-linecap="round" stroke-dasharray="4 4"/>
<line x1="204.153" y1="290.31" x2="547.31" y2="71.8467" stroke="#73C1BE" stroke-linecap="round" stroke-dasharray="4 4"/>
<line x1="451.336" y1="116.757" x2="438.757" y2="89.6641" stroke="#F0BDBD" stroke-linecap="round" stroke-dasharray="4 4"/>
<line x1="519.293" y1="111.986" x2="495.986" y2="87.707" stroke="#F0BDBD" stroke-linecap="round" stroke-dasharray="4 4"/>
<line x1="687.32" y1="148.195" x2="560.195" y2="77.6798" stroke="#F0BDBD" stroke-linecap="round" stroke-dasharray="4 4"/>
<g filter="url(#filter0_b_117_2760)">
<circle cx="160" cy="311" r="8" fill="#73C1BE" fill-opacity="0.2"/>
</g>
<circle cx="160" cy="311" r="4" fill="#185A7E"/>
<g filter="url(#filter1_b_117_2760)">
<circle cx="202" cy="294" r="8" fill="#73C1BE" fill-opacity="0.2"/>
</g>
<circle cx="202" cy="294" r="4" fill="#185A7E"/>
<g filter="url(#filter2_b_117_2760)">
<circle cx="130" cy="316" r="8" fill="#73C1BE" fill-opacity="0.2"/>
</g>
<circle cx="130" cy="316" r="4" fill="#185A7E"/>
<g filter="url(#filter3_b_117_2760)">
<circle cx="245" cy="176" r="8" fill="#73C1BE" fill-opacity="0.2"/>
</g>
<circle cx="245" cy="176" r="4" fill="#185A7E"/>
<g filter="url(#filter4_b_117_2760)">
<circle cx="365" cy="97" r="8" fill="#73C1BE" fill-opacity="0.2"/>
</g>
<circle cx="365" cy="97" r="4" fill="#185A7E"/>
<g filter="url(#filter5_b_117_2760)">
<circle cx="548" cy="72" r="8" fill="#73C1BE" fill-opacity="0.2"/>
</g>
<circle cx="548" cy="72" r="4" fill="#185A7E"/>
<g filter="url(#filter6_b_117_2760)">
<circle cx="735" cy="154" r="8" fill="#73C1BE" fill-opacity="0.2"/>
</g>
<circle cx="735" cy="154" r="4" fill="#185A7E"/>
<g filter="url(#filter7_b_117_2760)">
<circle cx="825" cy="37" r="8" fill="#73C1BE" fill-opacity="0.2"/>
</g>
<circle cx="825" cy="37" r="4" fill="#185A7E"/>
<g filter="url(#filter8_b_117_2760)">
<circle cx="1151" cy="199" r="8" fill="#73C1BE" fill-opacity="0.2"/>
</g>
<circle cx="1151" cy="199" r="4" fill="#185A7E"/>
<g filter="url(#filter9_b_117_2760)">
<circle cx="1078" cy="122" r="8" fill="#73C1BE" fill-opacity="0.2"/>
</g>
<circle cx="1078" cy="122" r="4" fill="#EB5757"/>
<g filter="url(#filter10_b_117_2760)">
<circle cx="1010" cy="127" r="8" fill="#73C1BE" fill-opacity="0.2"/>
</g>
<circle cx="1010" cy="127" r="4" fill="#EB5757"/>
<g filter="url(#filter11_b_117_2760)">
<circle cx="496" cy="86" r="8" fill="#73C1BE" fill-opacity="0.2"/>
</g>
<circle cx="496" cy="86" r="4" fill="#EB5757"/>
<g filter="url(#filter12_b_117_2760)">
<circle cx="439" cy="89" r="8" fill="#73C1BE" fill-opacity="0.2"/>
</g>
<circle cx="439" cy="89" r="4" fill="#EB5757"/>
<g filter="url(#filter13_b_117_2760)">
<circle cx="452" cy="117" r="8" fill="#73C1BE" fill-opacity="0.2"/>
</g>
<circle cx="452" cy="117" r="4" fill="#EB5757"/>
<g filter="url(#filter14_b_117_2760)">
<circle cx="520" cy="112" r="8" fill="#73C1BE" fill-opacity="0.2"/>
</g>
<circle cx="520" cy="112" r="4" fill="#EB5757"/>
<g filter="url(#filter15_b_117_2760)">
<circle cx="560" cy="77" r="8" fill="#73C1BE" fill-opacity="0.2"/>
</g>
<circle cx="560" cy="77" r="4" fill="#EB5757"/>
<g filter="url(#filter16_b_117_2760)">
<circle cx="688" cy="148" r="8" fill="#73C1BE" fill-opacity="0.2"/>
</g>
<circle cx="688" cy="148" r="4" fill="#EB5757"/>
<g filter="url(#filter17_b_117_2760)">
<circle cx="1131" cy="207" r="8" fill="#73C1BE" fill-opacity="0.2"/>
</g>
<circle cx="1131" cy="207" r="4" fill="#EB5757"/>
<g filter="url(#filter18_b_117_2760)">
<circle cx="896" cy="62" r="8" fill="#73C1BE" fill-opacity="0.2"/>
</g>
<circle cx="896" cy="62" r="4" fill="#EB5757"/>
<g filter="url(#filter19_b_117_2760)">
<circle cx="435" cy="79" r="8" fill="#73C1BE" fill-opacity="0.2"/>
</g>
<circle cx="435" cy="79" r="4" fill="#185A7E"/>
<g filter="url(#filter20_b_117_2760)">
<circle cx="497" cy="72" r="8" fill="#73C1BE" fill-opacity="0.2"/>
</g>
<circle cx="497" cy="72" r="4" fill="#185A7E"/>
</g>
<defs>
<filter id="filter0_b_117_2760" x="52" y="203" width="216" height="216" filterUnits="userSpaceOnUse" color-interpolation-filters="sRGB">
<feFlood flood-opacity="0" result="BackgroundImageFix"/>
<feGaussianBlur in="BackgroundImageFix" stdDeviation="50"/>
<feComposite in2="SourceAlpha" operator="in" result="effect1_backgroundBlur_117_2760"/>
<feBlend mode="normal" in="SourceGraphic" in2="effect1_backgroundBlur_117_2760" result="shape"/>
</filter>
<filter id="filter1_b_117_2760" x="94" y="186" width="216" height="216" filterUnits="userSpaceOnUse" color-interpolation-filters="sRGB">
<feFlood flood-opacity="0" result="BackgroundImageFix"/>
<feGaussianBlur in="BackgroundImageFix" stdDeviation="50"/>
<feComposite in2="SourceAlpha" operator="in" result="effect1_backgroundBlur_117_2760"/>
<feBlend mode="normal" in="SourceGraphic" in2="effect1_backgroundBlur_117_2760" result="shape"/>
</filter>
<filter id="filter2_b_117_2760" x="22" y="208" width="216" height="216" filterUnits="userSpaceOnUse" color-interpolation-filters="sRGB">
<feFlood flood-opacity="0" result="BackgroundImageFix"/>
<feGaussianBlur in="BackgroundImageFix" stdDeviation="50"/>
<feComposite in2="SourceAlpha" operator="in" result="effect1_backgroundBlur_117_2760"/>
<feBlend mode="normal" in="SourceGraphic" in2="effect1_backgroundBlur_117_2760" result="shape"/>
</filter>
<filter id="filter3_b_117_2760" x="137" y="68" width="216" height="216" filterUnits="userSpaceOnUse" color-interpolation-filters="sRGB">
<feFlood flood-opacity="0" result="BackgroundImageFix"/>
<feGaussianBlur in="BackgroundImageFix" stdDeviation="50"/>
<feComposite in2="SourceAlpha" operator="in" result="effect1_backgroundBlur_117_2760"/>
<feBlend mode="normal" in="SourceGraphic" in2="effect1_backgroundBlur_117_2760" result="shape"/>
</filter>
<filter id="filter4_b_117_2760" x="257" y="-11" width="216" height="216" filterUnits="userSpaceOnUse" color-interpolation-filters="sRGB">
<feFlood flood-opacity="0" result="BackgroundImageFix"/>
<feGaussianBlur in="BackgroundImageFix" stdDeviation="50"/>
<feComposite in2="SourceAlpha" operator="in" result="effect1_backgroundBlur_117_2760"/>
<feBlend mode="normal" in="SourceGraphic" in2="effect1_backgroundBlur_117_2760" result="shape"/>
</filter>
<filter id="filter5_b_117_2760" x="440" y="-36" width="216" height="216" filterUnits="userSpaceOnUse" color-interpolation-filters="sRGB">
<feFlood flood-opacity="0" result="BackgroundImageFix"/>
<feGaussianBlur in="BackgroundImageFix" stdDeviation="50"/>
<feComposite in2="SourceAlpha" operator="in" result="effect1_backgroundBlur_117_2760"/>
<feBlend mode="normal" in="SourceGraphic" in2="effect1_backgroundBlur_117_2760" result="shape"/>
</filter>
<filter id="filter6_b_117_2760" x="627" y="46" width="216" height="216" filterUnits="userSpaceOnUse" color-interpolation-filters="sRGB">
<feFlood flood-opacity="0" result="BackgroundImageFix"/>
<feGaussianBlur in="BackgroundImageFix" stdDeviation="50"/>
<feComposite in2="SourceAlpha" operator="in" result="effect1_backgroundBlur_117_2760"/>
<feBlend mode="normal" in="SourceGraphic" in2="effect1_backgroundBlur_117_2760" result="shape"/>
</filter>
<filter id="filter7_b_117_2760" x="717" y="-71" width="216" height="216" filterUnits="userSpaceOnUse" color-interpolation-filters="sRGB">
<feFlood flood-opacity="0" result="BackgroundImageFix"/>
<feGaussianBlur in="BackgroundImageFix" stdDeviation="50"/>
<feComposite in2="SourceAlpha" operator="in" result="effect1_backgroundBlur_117_2760"/>
<feBlend mode="normal" in="SourceGraphic" in2="effect1_backgroundBlur_117_2760" result="shape"/>
</filter>
<filter id="filter8_b_117_2760" x="1043" y="91" width="216" height="216" filterUnits="userSpaceOnUse" color-interpolation-filters="sRGB">
<feFlood flood-opacity="0" result="BackgroundImageFix"/>
<feGaussianBlur in="BackgroundImageFix" stdDeviation="50"/>
<feComposite in2="SourceAlpha" operator="in" result="effect1_backgroundBlur_117_2760"/>
<feBlend mode="normal" in="SourceGraphic" in2="effect1_backgroundBlur_117_2760" result="shape"/>
</filter>
<filter id="filter9_b_117_2760" x="970" y="14" width="216" height="216" filterUnits="userSpaceOnUse" color-interpolation-filters="sRGB">
<feFlood flood-opacity="0" result="BackgroundImageFix"/>
<feGaussianBlur in="BackgroundImageFix" stdDeviation="50"/>
<feComposite in2="SourceAlpha" operator="in" result="effect1_backgroundBlur_117_2760"/>
<feBlend mode="normal" in="SourceGraphic" in2="effect1_backgroundBlur_117_2760" result="shape"/>
</filter>
<filter id="filter10_b_117_2760" x="902" y="19" width="216" height="216" filterUnits="userSpaceOnUse" color-interpolation-filters="sRGB">
<feFlood flood-opacity="0" result="BackgroundImageFix"/>
<feGaussianBlur in="BackgroundImageFix" stdDeviation="50"/>
<feComposite in2="SourceAlpha" operator="in" result="effect1_backgroundBlur_117_2760"/>
<feBlend mode="normal" in="SourceGraphic" in2="effect1_backgroundBlur_117_2760" result="shape"/>
</filter>
<filter id="filter11_b_117_2760" x="388" y="-22" width="216" height="216" filterUnits="userSpaceOnUse" color-interpolation-filters="sRGB">
<feFlood flood-opacity="0" result="BackgroundImageFix"/>
<feGaussianBlur in="BackgroundImageFix" stdDeviation="50"/>
<feComposite in2="SourceAlpha" operator="in" result="effect1_backgroundBlur_117_2760"/>
<feBlend mode="normal" in="SourceGraphic" in2="effect1_backgroundBlur_117_2760" result="shape"/>
</filter>
<filter id="filter12_b_117_2760" x="331" y="-19" width="216" height="216" filterUnits="userSpaceOnUse" color-interpolation-filters="sRGB">
<feFlood flood-opacity="0" result="BackgroundImageFix"/>
<feGaussianBlur in="BackgroundImageFix" stdDeviation="50"/>
<feComposite in2="SourceAlpha" operator="in" result="effect1_backgroundBlur_117_2760"/>
<feBlend mode="normal" in="SourceGraphic" in2="effect1_backgroundBlur_117_2760" result="shape"/>
</filter>
<filter id="filter13_b_117_2760" x="344" y="9" width="216" height="216" filterUnits="userSpaceOnUse" color-interpolation-filters="sRGB">
<feFlood flood-opacity="0" result="BackgroundImageFix"/>
<feGaussianBlur in="BackgroundImageFix" stdDeviation="50"/>
<feComposite in2="SourceAlpha" operator="in" result="effect1_backgroundBlur_117_2760"/>
<feBlend mode="normal" in="SourceGraphic" in2="effect1_backgroundBlur_117_2760" result="shape"/>
</filter>
<filter id="filter14_b_117_2760" x="412" y="4" width="216" height="216" filterUnits="userSpaceOnUse" color-interpolation-filters="sRGB">
<feFlood flood-opacity="0" result="BackgroundImageFix"/>
<feGaussianBlur in="BackgroundImageFix" stdDeviation="50"/>
<feComposite in2="SourceAlpha" operator="in" result="effect1_backgroundBlur_117_2760"/>
<feBlend mode="normal" in="SourceGraphic" in2="effect1_backgroundBlur_117_2760" result="shape"/>
</filter>
<filter id="filter15_b_117_2760" x="452" y="-31" width="216" height="216" filterUnits="userSpaceOnUse" color-interpolation-filters="sRGB">
<feFlood flood-opacity="0" result="BackgroundImageFix"/>
<feGaussianBlur in="BackgroundImageFix" stdDeviation="50"/>
<feComposite in2="SourceAlpha" operator="in" result="effect1_backgroundBlur_117_2760"/>
<feBlend mode="normal" in="SourceGraphic" in2="effect1_backgroundBlur_117_2760" result="shape"/>
</filter>
<filter id="filter16_b_117_2760" x="580" y="40" width="216" height="216" filterUnits="userSpaceOnUse" color-interpolation-filters="sRGB">
<feFlood flood-opacity="0" result="BackgroundImageFix"/>
<feGaussianBlur in="BackgroundImageFix" stdDeviation="50"/>
<feComposite in2="SourceAlpha" operator="in" result="effect1_backgroundBlur_117_2760"/>
<feBlend mode="normal" in="SourceGraphic" in2="effect1_backgroundBlur_117_2760" result="shape"/>
</filter>
<filter id="filter17_b_117_2760" x="1023" y="99" width="216" height="216" filterUnits="userSpaceOnUse" color-interpolation-filters="sRGB">
<feFlood flood-opacity="0" result="BackgroundImageFix"/>
<feGaussianBlur in="BackgroundImageFix" stdDeviation="50"/>
<feComposite in2="SourceAlpha" operator="in" result="effect1_backgroundBlur_117_2760"/>
<feBlend mode="normal" in="SourceGraphic" in2="effect1_backgroundBlur_117_2760" result="shape"/>
</filter>
<filter id="filter18_b_117_2760" x="788" y="-46" width="216" height="216" filterUnits="userSpaceOnUse" color-interpolation-filters="sRGB">
<feFlood flood-opacity="0" result="BackgroundImageFix"/>
<feGaussianBlur in="BackgroundImageFix" stdDeviation="50"/>
<feComposite in2="SourceAlpha" operator="in" result="effect1_backgroundBlur_117_2760"/>
<feBlend mode="normal" in="SourceGraphic" in2="effect1_backgroundBlur_117_2760" result="shape"/>
</filter>
<filter id="filter19_b_117_2760" x="327" y="-29" width="216" height="216" filterUnits="userSpaceOnUse" color-interpolation-filters="sRGB">
<feFlood flood-opacity="0" result="BackgroundImageFix"/>
<feGaussianBlur in="BackgroundImageFix" stdDeviation="50"/>
<feComposite in2="SourceAlpha" operator="in" result="effect1_backgroundBlur_117_2760"/>
<feBlend mode="normal" in="SourceGraphic" in2="effect1_backgroundBlur_117_2760" result="shape"/>
</filter>
<filter id="filter20_b_117_2760" x="389" y="-36" width="216" height="216" filterUnits="userSpaceOnUse" color-interpolation-filters="sRGB">
<feFlood flood-opacity="0" result="BackgroundImageFix"/>
<feGaussianBlur in="BackgroundImageFix" stdDeviation="50"/>
<feComposite in2="SourceAlpha" operator="in" result="effect1_backgroundBlur_117_2760"/>
<feBlend mode="normal" in="SourceGraphic" in2="effect1_backgroundBlur_117_2760" result="shape"/>
</filter>
<linearGradient id="paint0_linear_117_2760" x1="550.5" y1="0" x2="550.5" y2="359" gradientUnits="userSpaceOnUse">
<stop stop-color="#73C1BE"/>
<stop offset="1" stop-color="#73C1BE" stop-opacity="0.2"/>
</linearGradient>
<clipPath id="clip0_117_2760">
<rect width="1201" height="351" fill="white" transform="translate(0 26)"/>
</clipPath>
<clipPath id="clip1_117_2760">
<rect width="1199" height="421" fill="white"/>
</clipPath>
</defs>
</svg>
