<svg width="82" height="32" viewBox="0 0 82 32" fill="none" xmlns="http://www.w3.org/2000/svg">
<g opacity="0.2">
<path d="M58.4446 23.8658V2.82373H62.6802V23.8658H58.4446Z" fill="#F7A600"/>
<path d="M9.08039 30.1163H0V9.07422H8.71524C12.9509 9.07422 15.4189 11.3793 15.4189 14.9851C15.4189 17.3191 13.8339 18.8274 12.7368 19.3296C14.0463 19.9204 15.7226 21.25 15.7226 24.059C15.7226 27.9883 12.9509 30.1163 9.08039 30.1163ZM8.37998 12.7395H4.23563V17.5863H8.37998C10.1775 17.5863 11.1833 16.6109 11.1833 15.1621C11.1833 13.715 10.1775 12.7395 8.37998 12.7395ZM8.65384 21.2806H4.23563V26.4526H8.65384C10.5741 26.4526 11.487 25.2711 11.487 23.8513C11.487 22.4332 10.5724 21.2806 8.65384 21.2806Z" fill="white"/>
<path d="M28.6417 21.4866V30.1163H24.436V21.4866L17.9149 9.07422H22.5157L26.5687 17.5557L30.5604 9.07422H35.1612L28.6417 21.4866Z" fill="white"/>
<path d="M47.1695 30.1163H38.0891V9.07422H46.8044C51.04 9.07422 53.508 11.3793 53.508 14.9851C53.508 17.3191 51.923 18.8274 50.8259 19.3296C52.1354 19.9204 53.8118 21.25 53.8118 24.059C53.8118 27.9883 51.04 30.1163 47.1695 30.1163ZM46.4691 12.7395H42.3247V17.5863H46.4691C48.2666 17.5863 49.2724 16.6109 49.2724 15.1621C49.2724 13.715 48.2666 12.7395 46.4691 12.7395ZM46.7429 21.2806H42.3247V26.4526H46.7429C48.6632 26.4526 49.5761 25.2711 49.5761 23.8513C49.5761 22.4332 48.6632 21.2806 46.7429 21.2806Z" fill="white"/>
<path d="M76.3316 12.7395V30.1179H72.096V12.7395H66.428V9.07422H81.9996V12.7395H76.3316Z" fill="white"/>
</g>
</svg>
