<svg width="123" height="48" viewBox="0 0 123 48" fill="none" xmlns="http://www.w3.org/2000/svg">
<path d="M87.6669 35.7985V4.23535H94.0204V35.7985H87.6669Z" fill="#F7A600"/>
<path d="M13.6206 45.1742H0V13.6111H13.0729C19.4264 13.6111 23.1284 17.0688 23.1284 22.4774C23.1284 25.9784 20.7508 28.2409 19.1052 28.9942C21.0695 29.8804 23.5839 31.8748 23.5839 36.0882C23.5839 41.9822 19.4264 45.1742 13.6206 45.1742ZM12.57 19.109H6.35344V26.3792H12.57C15.2663 26.3792 16.7749 24.9161 16.7749 22.7429C16.7749 20.5722 15.2663 19.109 12.57 19.109ZM12.9808 31.9207H6.35344V39.6786H12.9808C15.8612 39.6786 17.2305 37.9064 17.2305 35.7768C17.2305 33.6495 15.8587 31.9207 12.9808 31.9207Z" fill="white"/>
<path d="M42.9626 32.2297V45.1742H36.654V32.2297L26.8724 13.6111H33.7735L39.8531 26.3333L45.8407 13.6111H52.7418L42.9626 32.2297Z" fill="white"/>
<path d="M70.7543 45.1742H57.1337V13.6111H70.2066C76.56 13.6111 80.262 17.0688 80.262 22.4774C80.262 25.9784 77.8845 28.2409 76.2388 28.9942C78.2031 29.8804 80.7177 31.8748 80.7177 36.0882C80.7177 41.9822 76.56 45.1742 70.7543 45.1742ZM69.7037 19.109H63.4871V26.3792H69.7037C72.3999 26.3792 73.9086 24.9161 73.9086 22.7429C73.9086 20.5722 72.3999 19.109 69.7037 19.109ZM70.1144 31.9207H63.4871V39.6786H70.1144C72.9949 39.6786 74.3641 37.9064 74.3641 35.7768C74.3641 33.6495 72.9949 31.9207 70.1144 31.9207Z" fill="white"/>
<path d="M114.497 19.109V45.1766H108.144V19.109H99.642V13.6111H122.999V19.109H114.497Z" fill="white"/>
</svg>
