<svg width="32" height="32" viewBox="0 0 32 32" fill="none" xmlns="http://www.w3.org/2000/svg">
<circle cx="16" cy="16" r="16" fill="#E8EAEE" fill-opacity="0.1"/>
<path d="M14.4805 15.8896H17.249V17.1904H14.7529C14.8643 17.4482 14.9199 17.7061 14.9199 17.9639C14.9199 18.4736 14.7969 19.0127 14.5508 19.5811C14.3105 20.1494 13.9121 20.7295 13.3555 21.3213C13.8184 21.1924 14.2402 21.1279 14.6211 21.1279C15.1074 21.1279 15.6553 21.2012 16.2646 21.3477C17.2725 21.5879 17.9551 21.708 18.3125 21.708C18.7461 21.708 19.3086 21.5439 20 21.2158L20.5098 22.666C19.9707 22.8945 19.5518 23.0439 19.2529 23.1143C18.96 23.1846 18.667 23.2197 18.374 23.2197C18.1279 23.2197 17.8789 23.1963 17.627 23.1494C17.4688 23.1201 17.0879 23.0146 16.4844 22.833C15.8867 22.6455 15.5 22.5342 15.3242 22.499C15.0488 22.4521 14.7734 22.4287 14.498 22.4287C14.0762 22.4287 13.625 22.502 13.1445 22.6484C12.6699 22.7949 12.2363 22.9941 11.8438 23.2461L11.2373 21.7256C11.7998 21.415 12.2773 20.9727 12.6699 20.3984C13.0625 19.8184 13.2588 19.1123 13.2588 18.2803C13.2588 17.9229 13.209 17.5596 13.1094 17.1904H11.3867V15.8896H12.7402C12.5469 15.2334 12.4238 14.7559 12.3711 14.457C12.3184 14.1523 12.292 13.8564 12.292 13.5693C12.292 12.3506 12.7432 11.3984 13.6455 10.7129C14.3721 10.168 15.251 9.89551 16.2822 9.89551C17.3428 9.89551 18.2158 10.1885 18.9014 10.7744C19.5928 11.3545 20.0176 12.1719 20.1758 13.2266L18.6025 13.4639C18.5146 12.7607 18.251 12.207 17.8115 11.8027C17.3779 11.3984 16.8564 11.1963 16.2471 11.1963C15.5967 11.1963 15.0547 11.4072 14.6211 11.8291C14.1934 12.2451 13.9795 12.749 13.9795 13.3408C13.9795 13.9912 14.1465 14.8408 14.4805 15.8896Z" fill="#E8EAEE"/>
</svg>
