<svg width="93" height="34" viewBox="0 0 93 34" fill="none" xmlns="http://www.w3.org/2000/svg">
<path d="M31.36 29.1067L31.36 25.0972C31.36 23.8601 30.3772 22.8571 29.1647 22.8571L25.2354 22.8571C24.0229 22.8571 23.04 23.8601 23.04 25.0972L23.04 29.1067C23.04 30.3439 24.0229 31.3469 25.2354 31.3469L29.1647 31.3469C30.3772 31.3469 31.36 30.3439 31.36 29.1067Z" fill="#101619"/>
<path d="M31.36 29.1067L31.36 25.0972C31.36 23.8601 30.3772 22.8571 29.1647 22.8571L25.2354 22.8571C24.0229 22.8571 23.04 23.8601 23.04 25.0972L23.04 29.1067C23.04 30.3439 24.0229 31.3469 25.2354 31.3469L29.1647 31.3469C30.3772 31.3469 31.36 30.3439 31.36 29.1067Z" fill="url(#paint0_linear_226_1503)" fill-opacity="0.2"/>
<path d="M22.8058 13.4053L22.8058 16.9261C22.7247 18.383 22.1622 19.7689 21.21 20.8577L21.0662 20.9898C20.0023 21.9664 18.6423 22.5412 17.2132 22.6181L13.7772 22.6181C13.1786 22.6181 12.6044 22.8608 12.1811 23.2927C11.7578 23.7247 11.52 24.3105 11.52 24.9214L11.52 29.0437C11.52 29.6545 11.7578 30.2404 12.1811 30.6723C12.6044 31.1043 13.1786 31.3469 13.7772 31.3469L17.817 31.3469C18.4157 31.3469 18.9898 31.1043 19.4131 30.6723C19.8364 30.2404 20.0742 29.6545 20.0742 29.0437L20.0742 25.5375C20.1496 24.0793 20.7129 22.6915 21.67 21.6059L21.7994 21.4592C22.8652 20.4856 24.2241 19.9113 25.6524 19.8308L29.1028 19.8308C29.7014 19.8308 30.2756 19.5882 30.6989 19.1562C31.1222 18.7242 31.36 18.1384 31.36 17.5276L31.36 13.4053C31.36 12.7944 31.1222 12.2086 30.6989 11.7766C30.2756 11.3447 29.7014 11.102 29.1028 11.102L25.0629 11.102C24.4643 11.102 23.8902 11.3447 23.4669 11.7766C23.0436 12.2086 22.8058 12.7944 22.8058 13.4053Z" fill="#101619"/>
<path d="M22.8058 13.4053L22.8058 16.9261C22.7247 18.383 22.1622 19.7689 21.21 20.8577L21.0662 20.9898C20.0023 21.9664 18.6423 22.5412 17.2132 22.6181L13.7772 22.6181C13.1786 22.6181 12.6044 22.8608 12.1811 23.2927C11.7578 23.7247 11.52 24.3105 11.52 24.9214L11.52 29.0437C11.52 29.6545 11.7578 30.2404 12.1811 30.6723C12.6044 31.1043 13.1786 31.3469 13.7772 31.3469L17.817 31.3469C18.4157 31.3469 18.9898 31.1043 19.4131 30.6723C19.8364 30.2404 20.0742 29.6545 20.0742 29.0437L20.0742 25.5375C20.1496 24.0793 20.7129 22.6915 21.67 21.6059L21.7994 21.4592C22.8652 20.4856 24.2241 19.9113 25.6524 19.8308L29.1028 19.8308C29.7014 19.8308 30.2756 19.5882 30.6989 19.1562C31.1222 18.7242 31.36 18.1384 31.36 17.5276L31.36 13.4053C31.36 12.7944 31.1222 12.2086 30.6989 11.7766C30.2756 11.3447 29.7014 11.102 29.1028 11.102L25.0629 11.102C24.4643 11.102 23.8902 11.3447 23.4669 11.7766C23.0436 12.2086 22.8058 12.7944 22.8058 13.4053Z" fill="url(#paint1_linear_226_1503)" fill-opacity="0.5"/>
<path d="M8.66118 29.7039L8.66118 26.2162C8.75353 24.7643 9.34381 23.3887 10.3324 22.3215L10.7247 21.9291C11.8002 20.9617 13.1749 20.3923 14.6195 20.3161L18.1072 20.3161C18.7111 20.3122 19.2892 20.0707 19.7163 19.6436C20.1434 19.2165 20.385 18.6384 20.3887 18.0345L20.3887 14.5467C20.4493 13.1069 21.0035 11.7317 21.9582 10.6521L22.3506 10.2598C23.426 9.29228 24.8007 8.72294 26.2452 8.64666L29.7184 8.64666C30.3235 8.64666 30.9039 8.40627 31.3318 7.97845C31.7596 7.55056 32 6.97025 32 6.36512L32 2.28153C32 1.67647 31.7596 1.0961 31.3318 0.668278C30.9039 0.240392 30.3235 -7.32812e-08 29.7184 -9.97319e-08L25.6349 -2.78228e-07C25.0298 -3.04679e-07 24.4494 0.240392 24.0216 0.668277C23.5937 1.0961 23.3533 1.67647 23.3533 2.28153L23.3533 5.75477C23.2862 7.22135 22.7108 8.6189 21.7257 9.70756L21.3333 10.0999C20.256 11.0644 18.8824 11.6332 17.4387 11.713L13.9509 11.713C13.347 11.7168 12.7689 11.9584 12.3419 12.3854C11.9148 12.8125 11.6732 13.3906 11.6694 13.9945L11.6694 17.4822C11.58 18.9108 11.0117 20.2675 10.0563 21.3334L9.66394 21.7257C8.58662 22.6902 7.21299 23.259 5.76928 23.3388L2.28154 23.3388C1.67757 23.3426 1.09952 23.5842 0.672446 24.0112C0.245374 24.4383 0.00384031 25.0164 -1.1199e-06 25.6203L-1.29903e-06 29.7184C0.00384007 30.3223 0.245373 30.9005 0.672446 31.3275C1.09952 31.7546 1.67757 31.9962 2.28154 32L6.37965 32C6.98605 31.9961 7.5664 31.7526 7.99386 31.3224C8.42131 30.8922 8.66124 30.3103 8.66118 29.7039Z" fill="#414042"/>
<path d="M8.66118 29.7039L8.66118 26.2162C8.75353 24.7643 9.34381 23.3887 10.3324 22.3215L10.7247 21.9291C11.8002 20.9617 13.1749 20.3923 14.6195 20.3161L18.1072 20.3161C18.7111 20.3122 19.2892 20.0707 19.7163 19.6436C20.1434 19.2165 20.385 18.6384 20.3887 18.0345L20.3887 14.5467C20.4493 13.1069 21.0035 11.7317 21.9582 10.6521L22.3506 10.2598C23.426 9.29228 24.8007 8.72294 26.2452 8.64666L29.7184 8.64666C30.3235 8.64666 30.9039 8.40627 31.3318 7.97845C31.7596 7.55056 32 6.97025 32 6.36512L32 2.28153C32 1.67647 31.7596 1.0961 31.3318 0.668278C30.9039 0.240392 30.3235 -7.32812e-08 29.7184 -9.97319e-08L25.6349 -2.78228e-07C25.0298 -3.04679e-07 24.4494 0.240392 24.0216 0.668277C23.5937 1.0961 23.3533 1.67647 23.3533 2.28153L23.3533 5.75477C23.2862 7.22135 22.7108 8.6189 21.7257 9.70756L21.3333 10.0999C20.256 11.0644 18.8824 11.6332 17.4387 11.713L13.9509 11.713C13.347 11.7168 12.7689 11.9584 12.3419 12.3854C11.9148 12.8125 11.6732 13.3906 11.6694 13.9945L11.6694 17.4822C11.58 18.9108 11.0117 20.2675 10.0563 21.3334L9.66394 21.7257C8.58662 22.6902 7.21299 23.259 5.76928 23.3388L2.28154 23.3388C1.67757 23.3426 1.09952 23.5842 0.672446 24.0112C0.245374 24.4383 0.00384031 25.0164 -1.1199e-06 25.6203L-1.29903e-06 29.7184C0.00384007 30.3223 0.245373 30.9005 0.672446 31.3275C1.09952 31.7546 1.67757 31.9962 2.28154 32L6.37965 32C6.98605 31.9961 7.5664 31.7526 7.99386 31.3224C8.42131 30.8922 8.66124 30.3103 8.66118 29.7039Z" fill="url(#paint2_linear_226_1503)"/>
<path d="M9.19423 17.9417L9.19423 14.4355C9.26969 12.9772 9.83289 11.5895 10.79 10.5038L10.9194 10.3572C11.9928 9.37737 13.3628 8.80267 14.8011 8.72875L18.2516 8.72875C18.833 8.7215 19.3892 8.48561 19.8043 8.0702C20.2195 7.65479 20.4615 7.09192 20.48 6.49887L20.48 2.30322C20.48 1.69234 20.2422 1.10654 19.8189 0.67461C19.3956 0.242676 18.8215 -7.24951e-08 18.2228 -9.86632e-08L14.183 -2.75252e-07C13.5843 -3.0142e-07 13.0102 0.242675 12.5869 0.67461C12.1636 1.10654 11.9258 1.69234 11.9258 2.30321L11.9258 5.82406C11.8447 7.28098 11.2822 8.6669 10.33 9.75569L10.1862 9.88774C9.1223 10.8644 7.7623 11.4391 6.33324 11.5161L2.89721 11.5161C2.59955 11.5161 2.30489 11.5762 2.03014 11.6928C1.75532 11.8095 1.50585 11.9805 1.29606 12.1959C1.08627 12.4113 0.920316 12.667 0.807741 12.9481C0.695163 13.2293 0.638139 13.5303 0.64006 13.834L0.64006 17.9417C0.64006 18.5525 0.877818 19.1383 1.30111 19.5703C1.72441 20.0022 2.29856 20.2449 2.89721 20.2449L6.93709 20.2449C7.53568 20.2449 8.10982 20.0022 8.53312 19.5703C8.95641 19.1383 9.19423 18.5525 9.19423 17.9417Z" fill="#101619"/>
<path d="M9.19423 17.9417L9.19423 14.4355C9.26969 12.9772 9.83289 11.5895 10.79 10.5038L10.9194 10.3572C11.9928 9.37737 13.3628 8.80267 14.8011 8.72875L18.2516 8.72875C18.833 8.7215 19.3892 8.48561 19.8043 8.0702C20.2195 7.65479 20.4615 7.09192 20.48 6.49887L20.48 2.30322C20.48 1.69234 20.2422 1.10654 19.8189 0.67461C19.3956 0.242676 18.8215 -7.24951e-08 18.2228 -9.86632e-08L14.183 -2.75252e-07C13.5843 -3.0142e-07 13.0102 0.242675 12.5869 0.67461C12.1636 1.10654 11.9258 1.69234 11.9258 2.30321L11.9258 5.82406C11.8447 7.28098 11.2822 8.6669 10.33 9.75569L10.1862 9.88774C9.1223 10.8644 7.7623 11.4391 6.33324 11.5161L2.89721 11.5161C2.59955 11.5161 2.30489 11.5762 2.03014 11.6928C1.75532 11.8095 1.50585 11.9805 1.29606 12.1959C1.08627 12.4113 0.920316 12.667 0.807741 12.9481C0.695163 13.2293 0.638139 13.5303 0.64006 13.834L0.64006 17.9417C0.64006 18.5525 0.877818 19.1383 1.30111 19.5703C1.72441 20.0022 2.29856 20.2449 2.89721 20.2449L6.93709 20.2449C7.53568 20.2449 8.10982 20.0022 8.53312 19.5703C8.95641 19.1383 9.19423 18.5525 9.19423 17.9417Z" fill="url(#paint3_linear_226_1503)" fill-opacity="0.5"/>
<path d="M8.95999 6.73038L8.95999 2.41247C8.95999 1.0801 7.97708 -4.29644e-08 6.7646 -9.59636e-08L2.83532 -2.67718e-07C1.62284 -3.20717e-07 0.639991 1.0801 0.639991 2.41247L0.639991 6.73038C0.63999 8.06276 1.62284 9.14286 2.83532 9.14286L6.7646 9.14286C7.97708 9.14286 8.95999 8.06276 8.95999 6.73038Z" fill="#101619"/>
<path d="M8.95999 6.73038L8.95999 2.41247C8.95999 1.0801 7.97708 -4.29644e-08 6.7646 -9.59636e-08L2.83532 -2.67718e-07C1.62284 -3.20717e-07 0.639991 1.0801 0.639991 2.41247L0.639991 6.73038C0.63999 8.06276 1.62284 9.14286 2.83532 9.14286L6.7646 9.14286C7.97708 9.14286 8.95999 8.06276 8.95999 6.73038Z" fill="url(#paint4_linear_226_1503)" fill-opacity="0.2"/>
<path d="M39.328 7.184L42.736 12.96L46.16 7.184L46.928 14H48.88L47.344 2.24L42.736 9.84L38.144 2.24L36.608 14H38.56L39.328 7.184ZM54.3004 14H59.9484V12.336H54.3004V14ZM54.3004 4.464H59.9484V2.8H54.3004V4.464ZM54.3004 8.816H59.6284V7.184H54.3004V8.816ZM53.1324 2.8V14H54.9884V2.8H53.1324ZM63.553 4.544H66.513V14H68.401V4.544H71.361V2.8H63.553V4.544ZM74.8858 11.12H80.8058L80.4538 9.52H75.2538L74.8858 11.12ZM77.8138 5.968L79.6058 10.128L79.6378 10.592L81.1578 14H83.3018L77.8138 2.176L72.3418 14H74.4698L76.0218 10.496L76.0538 10.08L77.8138 5.968Z" fill="#E8EAEE"/>
<path d="M38 24.864H46V23.12H38V24.864ZM44.768 18.8V30H46.656V18.8H44.768ZM37.248 18.8V30H39.136V18.8H37.248ZM52.2103 30.16C53.0636 30.16 53.7943 29.9947 54.4023 29.664C55.0103 29.3227 55.5116 28.8213 55.9062 28.16L54.4023 27.568C54.1783 27.9627 53.8903 28.256 53.5383 28.448C53.1863 28.64 52.7703 28.736 52.2903 28.736C51.8423 28.736 51.4636 28.64 51.1543 28.448C50.8449 28.256 50.6049 27.9733 50.4343 27.6C50.2743 27.2267 50.1996 26.7787 50.2103 26.256C50.2103 25.7227 50.2903 25.2747 50.4503 24.912C50.6209 24.5493 50.8556 24.272 51.1543 24.08C51.4636 23.888 51.8369 23.792 52.2743 23.792C52.6369 23.792 52.9516 23.872 53.2183 24.032C53.4956 24.192 53.7089 24.416 53.8583 24.704C54.0183 24.992 54.0983 25.3333 54.0983 25.728C54.0983 25.8027 54.0769 25.8933 54.0343 26C54.0023 26.1067 53.9703 26.192 53.9383 26.256L54.4663 25.52H49.4903V26.72H55.9543C55.9543 26.6773 55.9543 26.608 55.9543 26.512C55.9649 26.416 55.9703 26.3253 55.9703 26.24C55.9703 25.4507 55.8263 24.7787 55.5383 24.224C55.2503 23.6587 54.8289 23.2267 54.2743 22.928C53.7303 22.6293 53.0689 22.48 52.2903 22.48C51.5116 22.48 50.8343 22.64 50.2582 22.96C49.6823 23.2693 49.2343 23.712 48.9143 24.288C48.6049 24.864 48.4503 25.5413 48.4503 26.32C48.4503 27.088 48.6049 27.76 48.9143 28.336C49.2236 28.912 49.6609 29.36 50.2263 29.68C50.8023 30 51.4636 30.16 52.2103 30.16ZM63.1713 17.52V30H64.9153V17.52H63.1713ZM57.0753 26.32C57.0753 27.12 57.2406 27.808 57.5713 28.384C57.9019 28.96 58.3393 29.4027 58.8832 29.712C59.4379 30.0107 60.0299 30.16 60.6593 30.16C61.2779 30.16 61.8166 30.0053 62.2753 29.696C62.7446 29.3867 63.1126 28.944 63.3793 28.368C63.6566 27.792 63.7953 27.1093 63.7953 26.32C63.7953 25.52 63.6566 24.8373 63.3793 24.272C63.1126 23.696 62.7446 23.2533 62.2753 22.944C61.8166 22.6347 61.2779 22.48 60.6593 22.48C60.0299 22.48 59.4379 22.6347 58.8832 22.944C58.3393 23.2427 57.9019 23.68 57.5713 24.256C57.2406 24.8213 57.0753 25.5093 57.0753 26.32ZM58.8673 26.32C58.8673 25.8293 58.9686 25.408 59.1713 25.056C59.3739 24.704 59.6406 24.4373 59.9713 24.256C60.3126 24.0747 60.6806 23.984 61.0753 23.984C61.4166 23.984 61.7473 24.0747 62.0673 24.256C62.3873 24.4373 62.6486 24.704 62.8513 25.056C63.0646 25.3973 63.1713 25.8187 63.1713 26.32C63.1713 26.8213 63.0646 27.248 62.8513 27.6C62.6486 27.9413 62.3873 28.2027 62.0673 28.384C61.7473 28.5653 61.4166 28.656 61.0753 28.656C60.6806 28.656 60.3126 28.5653 59.9713 28.384C59.6406 28.2027 59.3739 27.936 59.1713 27.584C58.9686 27.232 58.8673 26.8107 58.8673 26.32ZM66.6411 30.496C66.6625 31.136 66.8278 31.7013 67.1371 32.192C67.4465 32.6827 67.8838 33.0613 68.4491 33.328C69.0145 33.6053 69.6918 33.744 70.4811 33.744C71.1531 33.744 71.7771 33.6 72.3531 33.312C72.9291 33.0347 73.3931 32.608 73.7451 32.032C74.1078 31.456 74.2891 30.7253 74.2891 29.84V22.64H72.5931V29.84C72.5931 30.3947 72.4865 30.848 72.2731 31.2C72.0705 31.552 71.8038 31.8133 71.4731 31.984C71.1425 32.1547 70.8011 32.24 70.4491 32.24C70.0331 32.24 69.6705 32.16 69.3611 32C69.0518 31.8507 68.8118 31.6427 68.6411 31.376C68.4705 31.12 68.3798 30.8267 68.3691 30.496H66.6411ZM66.4971 26.272C66.4971 27.0827 66.6625 27.7707 66.9931 28.336C67.3238 28.9013 67.7611 29.3333 68.3051 29.632C68.8598 29.9307 69.4518 30.08 70.0811 30.08C70.6998 30.08 71.2385 29.9307 71.6971 29.632C72.1665 29.3227 72.5345 28.8853 72.8011 28.32C73.0785 27.744 73.2171 27.0613 73.2171 26.272C73.2171 25.472 73.0785 24.7947 72.8011 24.24C72.5345 23.6747 72.1665 23.2427 71.6971 22.944C71.2385 22.6347 70.6998 22.48 70.0811 22.48C69.4518 22.48 68.8598 22.6293 68.3051 22.928C67.7611 23.2267 67.3238 23.6587 66.9931 24.224C66.6625 24.7787 66.4971 25.4613 66.4971 26.272ZM68.2891 26.272C68.2891 25.7813 68.3905 25.3653 68.5931 25.024C68.7958 24.6827 69.0625 24.4267 69.3931 24.256C69.7345 24.0747 70.1025 23.984 70.4971 23.984C70.7531 23.984 71.0038 24.032 71.2491 24.128C71.4945 24.224 71.7185 24.3733 71.9211 24.576C72.1238 24.768 72.2838 25.008 72.4011 25.296C72.5291 25.5733 72.5931 25.8987 72.5931 26.272C72.5931 26.7733 72.4865 27.1947 72.2731 27.536C72.0705 27.8773 71.8091 28.1387 71.4891 28.32C71.1691 28.4907 70.8385 28.576 70.4971 28.576C70.1025 28.576 69.7345 28.4907 69.3931 28.32C69.0625 28.1387 68.7958 27.8773 68.5931 27.536C68.3905 27.184 68.2891 26.7627 68.2891 26.272ZM79.6321 30.16C80.4855 30.16 81.2161 29.9947 81.8241 29.664C82.4321 29.3227 82.9335 28.8213 83.3281 28.16L81.8241 27.568C81.6001 27.9627 81.3121 28.256 80.9601 28.448C80.6081 28.64 80.1921 28.736 79.7121 28.736C79.2641 28.736 78.8855 28.64 78.5761 28.448C78.2668 28.256 78.0268 27.9733 77.8561 27.6C77.6961 27.2267 77.6215 26.7787 77.6321 26.256C77.6321 25.7227 77.7121 25.2747 77.8721 24.912C78.0428 24.5493 78.2775 24.272 78.5761 24.08C78.8855 23.888 79.2588 23.792 79.6961 23.792C80.0588 23.792 80.3735 23.872 80.6401 24.032C80.9175 24.192 81.1308 24.416 81.2801 24.704C81.4401 24.992 81.5201 25.3333 81.5201 25.728C81.5201 25.8027 81.4988 25.8933 81.4561 26C81.4241 26.1067 81.3921 26.192 81.3601 26.256L81.8881 25.52H76.9121V26.72H83.3761C83.3761 26.6773 83.3761 26.608 83.3761 26.512C83.3868 26.416 83.3921 26.3253 83.3921 26.24C83.3921 25.4507 83.2481 24.7787 82.9601 24.224C82.6721 23.6587 82.2508 23.2267 81.6961 22.928C81.1521 22.6293 80.4908 22.48 79.7121 22.48C78.9335 22.48 78.2561 22.64 77.6801 22.96C77.1041 23.2693 76.6561 23.712 76.3361 24.288C76.0268 24.864 75.8721 25.5413 75.8721 26.32C75.8721 27.088 76.0268 27.76 76.3361 28.336C76.6455 28.912 77.0828 29.36 77.6481 29.68C78.2241 30 78.8855 30.16 79.6321 30.16Z" fill="#E8EAEE"/>
<defs>
<linearGradient id="paint0_linear_226_1503" x1="23.04" y1="31.3469" x2="31.257" y2="23.16" gradientUnits="userSpaceOnUse">
<stop stop-color="#13547A"/>
<stop offset="1" stop-color="#80D0C7"/>
</linearGradient>
<linearGradient id="paint1_linear_226_1503" x1="11.52" y1="31.3469" x2="31.1144" y2="11.8244" gradientUnits="userSpaceOnUse">
<stop stop-color="#13547A"/>
<stop offset="1" stop-color="#80D0C7"/>
</linearGradient>
<linearGradient id="paint2_linear_226_1503" x1="-3.21382e-06" y1="32" x2="30.9677" y2="0.516132" gradientUnits="userSpaceOnUse">
<stop stop-color="#13547A"/>
<stop offset="1" stop-color="#80D0C7"/>
</linearGradient>
<linearGradient id="paint3_linear_226_1503" x1="0.640011" y1="20.2449" x2="20.2344" y2="0.72238" gradientUnits="userSpaceOnUse">
<stop stop-color="#13547A"/>
<stop offset="1" stop-color="#80D0C7"/>
</linearGradient>
<linearGradient id="paint4_linear_226_1503" x1="0.63999" y1="9.14286" x2="9.46243" y2="0.980637" gradientUnits="userSpaceOnUse">
<stop stop-color="#13547A"/>
<stop offset="1" stop-color="#80D0C7"/>
</linearGradient>
</defs>
</svg>
